<?xml version="1.0" encoding="UTF-8"?>
<svg width="33px" height="40px" viewBox="0 0 33 40" version="1.1" xmlns="http://www.w3.org/2000/svg" xmlns:xlink="http://www.w3.org/1999/xlink">
    <!-- Generator: Sketch 42 (36781) - http://www.bohemiancoding.com/sketch -->
    <title>Fill 15 Copy</title>
    <desc>Created with Sketch.</desc>
    <defs></defs>
    <g id="Page-1" stroke="none" stroke-width="1" fill="none" fill-rule="evenodd">
        <g id="Group-2" transform="translate(-275.000000, 0.000000)" fill="#0B0B0A">
            <g id="Fill-15" transform="translate(76.000000, 0.000000)">
                <path d="M220.45,11.5868233 L220.45,1.65526047 L230.35,11.5868233 L220.45,11.5868233 Z M222.925,18.2078652 L208.075,18.2078652 C207.6196,18.2078652 207.25,17.8370869 207.25,17.380235 C207.25,16.9233831 207.6196,16.5526047 208.075,16.5526047 L222.925,16.5526047 C223.3804,16.5526047 223.75,16.9233831 223.75,17.380235 C223.75,17.8370869 223.3804,18.2078652 222.925,18.2078652 L222.925,18.2078652 Z M223.75,24.0012769 C223.75,24.4581287 223.3804,24.8289071 222.925,24.8289071 C222.4696,24.8289071 222.1,24.4581287 222.1,24.0012769 L222.1,23.1736466 L220.45,23.1736466 L220.45,31.449949 L222.1,31.449949 C222.5554,31.449949 222.925,31.8207273 222.925,32.2775792 C222.925,32.7344311 222.5554,33.1052095 222.1,33.1052095 L217.15,33.1052095 C216.6946,33.1052095 216.325,32.7344311 216.325,32.2775792 C216.325,31.8207273 216.6946,31.449949 217.15,31.449949 L218.8,31.449949 L218.8,23.1736466 L217.15,23.1736466 L217.15,24.0012769 C217.15,24.4581287 216.7804,24.8289071 216.325,24.8289071 C215.8696,24.8289071 215.5,24.4581287 215.5,24.0012769 L215.5,22.3460164 C215.5,21.8891645 215.8696,21.5183861 216.325,21.5183861 L222.925,21.5183861 C223.3804,21.5183861 223.75,21.8891645 223.75,22.3460164 L223.75,24.0012769 Z M213.025,23.1736466 L208.075,23.1736466 C207.6196,23.1736466 207.25,22.8028683 207.25,22.3460164 C207.25,21.8891645 207.6196,21.5183861 208.075,21.5183861 L213.025,21.5183861 C213.4804,21.5183861 213.85,21.8891645 213.85,22.3460164 C213.85,22.8028683 213.4804,23.1736466 213.025,23.1736466 L213.025,23.1736466 Z M213.025,28.139428 L208.075,28.139428 C207.6196,28.139428 207.25,27.7686497 207.25,27.3117978 C207.25,26.8549459 207.6196,26.4841676 208.075,26.4841676 L213.025,26.4841676 C213.4804,26.4841676 213.85,26.8549459 213.85,27.3117978 C213.85,27.7686497 213.4804,28.139428 213.025,28.139428 L213.025,28.139428 Z M213.025,33.1052095 L208.075,33.1052095 C207.6196,33.1052095 207.25,32.7344311 207.25,32.2775792 C207.25,31.8207273 207.6196,31.449949 208.075,31.449949 L213.025,31.449949 C213.4804,31.449949 213.85,31.8207273 213.85,32.2775792 C213.85,32.7344311 213.4804,33.1052095 213.025,33.1052095 L213.025,33.1052095 Z M208.075,11.5868233 L215.5,11.5868233 C215.9554,11.5868233 216.325,11.9576017 216.325,12.4144535 C216.325,12.8713054 215.9554,13.2420838 215.5,13.2420838 L208.075,13.2420838 C207.6196,13.2420838 207.25,12.8713054 207.25,12.4144535 C207.25,11.9576017 207.6196,11.5868233 208.075,11.5868233 L208.075,11.5868233 Z M231.75745,10.1732309 L221.85745,0.241668029 C221.704,0.087728805 221.4928,0 221.275,0 L199.825,0 C199.3696,0 199,0.370778346 199,0.827630236 L199,38.8986211 C199,39.355473 199.3696,39.7262513 199.825,39.7262513 L231.175,39.7262513 C231.6304,39.7262513 232,39.355473 232,38.8986211 L232,10.7591931 C232,10.5390434 231.91255,10.3288253 231.75745,10.1732309 L231.75745,10.1732309 Z" id="Fill-15-Copy"></path>
            </g>
        </g>
    </g>
</svg>