<?xml version="1.0" encoding="UTF-8"?>
<svg width="16px" height="16px" viewBox="0 0 16 16" version="1.1" xmlns="http://www.w3.org/2000/svg" xmlns:xlink="http://www.w3.org/1999/xlink">
    <!-- Generator: Sketch 40.3 (33839) - http://www.bohemiancoding.com/sketch -->
    <title>account circle 1.3.3.1</title>
    <desc>Created with Sketch.</desc>
    <defs></defs>
    <g id="Page-1" stroke="none" stroke-width="1" fill="none" fill-rule="evenodd">
        <g id="account-circle-1.3.3.1" transform="translate(1.000000, 1.000000)">
            <g id="Group">
                <g id="Outline_Icons_1_" stroke-width="0.8" stroke="#000000">
                    <g id="Outline_Icons">
                        <g id="Group">
                            <path d="M5.83333333,8.75 C5.83333333,8.75 4.95833333,8.45833333 4.95833333,7 C4.4765,7 4.4765,5.83333333 4.95833333,5.83333333 C4.95833333,5.63791667 4.08333333,3.5 5.54166667,3.79166667 C5.83333333,2.625 9.04166667,2.625 9.33333333,3.79166667 C9.53575,4.60133333 9.04166667,5.68983333 9.04166667,5.83333333 C9.5235,5.83333333 9.5235,7 9.04166667,7 C9.04166667,8.45833333 8.16666667,8.75 8.16666667,8.75 L8.16666667,10.2083333 C9.61158333,10.75025 11.0425,11.19825 11.7751667,11.7104167 C12.9698333,10.4994167 13.7083333,8.83575 13.7083333,7 C13.7083333,3.29466667 10.7053333,0.291666667 7,0.291666667 C3.29466667,0.291666667 0.291666667,3.29466667 0.291666667,7 C0.291666667,8.83925 1.0325,10.50525 2.23125,11.7174167 C3.00708333,11.18075 4.53658333,10.6989167 5.83333333,10.2083333 L5.83333333,8.75 L5.83333333,8.75 Z" id="Shape"></path>
                            <path d="M2.23125,11.7174167 C3.4475,12.9465 5.1345,13.7083333 7,13.7083333 C8.86841667,13.7083333 10.5583333,12.9435833 11.7751667,11.7104167" id="Shape"></path>
                        </g>
                    </g>
                </g>
                <g id="Invisible_Shape">
                    <rect id="Rectangle-path" x="0" y="0" width="14" height="14"></rect>
                </g>
            </g>
        </g>
    </g>
</svg>