<?xml version="1.0" encoding="UTF-8" standalone="no"?>
<svg width="16px" height="16px" viewBox="0 0 16 16" version="1.1" xmlns="http://www.w3.org/2000/svg" xmlns:xlink="http://www.w3.org/1999/xlink">
    <!-- Generator: Sketch 41.2 (35397) - http://www.bohemiancoding.com/sketch -->
    <title>edit</title>
    <desc>Created with Sketch.</desc>
    <defs></defs>
    <g id="Page-1" stroke="none" stroke-width="1" fill="none" fill-rule="evenodd">
        <g id="edit" transform="translate(-3.000000, 0.000000)">
            <g id="Outline_Icons_1_" transform="translate(0.666667, 0.000000)">
                <g id="Outline_Icons" transform="translate(3.000000, 0.000000)" stroke-width="0.8" stroke="#EBEAE4">
                    <g id="Group">
                        <polygon id="Shape" points="4.33333333 14 0 15.3333333 1.33333333 11 9.33333333 3 12.3333333 6"></polygon>
                        <path d="M9.33333333,3 L11.3906667,0.943333333 C11.9093333,0.424666667 12.7573333,0.424666667 13.276,0.943333333 L14.3906667,2.05733333 C14.9093333,2.57666667 14.9093333,3.42466667 14.3906667,3.94333333 L12.3333333,6" id="Shape"></path>
                        <path d="M10.8333333,4.5 L3.66666667,11.6666667" id="Shape"></path>
                        <polyline id="Shape" points="1.33333333 11 2 11.6666667 3.66666667 11.6666667 3.66666667 13.3333333 4.33333333 14"></polyline>
                        <path d="M0.666666667,13.3333333 L2,14.6666667" id="Shape"></path>
                        <path d="M10.3333333,2 L13.3333333,5" id="Shape"></path>
                    </g>
                </g>
                <g id="Invisible_Shape" transform="translate(0.000000, 0.000000)">
                    <rect id="Rectangle-path" x="0" y="0" width="16" height="16"></rect>
                </g>
            </g>
        </g>
    </g>
</svg>