<?xml version="1.0" encoding="UTF-8" standalone="no"?>
<svg width="26px" height="26px" viewBox="0 0 26 26" version="1.1" xmlns="http://www.w3.org/2000/svg" xmlns:xlink="http://www.w3.org/1999/xlink" xmlns:sketch="http://www.bohemiancoding.com/sketch/ns">
    <!-- Generator: Sketch 3.5.1 (25234) - http://www.bohemiancoding.com/sketch -->
    <title>edgenote-report</title>
    <desc>Created with Sketch.</desc>
    <defs></defs>
    <g id="Page-1" stroke="none" stroke-width="1" fill="none" fill-rule="evenodd" sketch:type="MSPage">
        <g id="edgenote-report" sketch:type="MSArtboardGroup" stroke="#F1C432" stroke-linejoin="round">
            <g id="Group" sketch:type="MSLayerGroup" transform="translate(2.000000, 1.000000)">
                <path d="M0.5,0.5 L0.5,5.5 C0.5,6.604 1.396,7.5 2.5,7.5 L4.5,7.5 C5.604,7.5 6.5,6.604 6.5,5.5 L6.5,0.5" id="Stroke-491" stroke-linecap="round" sketch:type="MSShapeGroup"></path>
                <path d="M0.5,4 L0.5,22 C0.5,23.104 1.396,23.5 2.5,23.5 L4.5,23.5 C5.604,23.5 6.5,23.104 6.5,22 L6.5,4" id="Stroke-492" sketch:type="MSShapeGroup"></path>
                <path d="M8.5,0.5 L8.5,5.5 C8.5,6.604 9.396,7.5 10.5,7.5 L12.5,7.5 C13.604,7.5 14.5,6.604 14.5,5.5 L14.5,0.5" id="Stroke-493" stroke-linecap="round" sketch:type="MSShapeGroup"></path>
                <path d="M8.5,4 L8.5,22 C8.5,23.104 9.396,23.5 10.5,23.5 L12.5,23.5 C13.604,23.5 14.5,23.104 14.5,22 L14.5,4" id="Stroke-494" sketch:type="MSShapeGroup"></path>
                <path d="M16.5,0.5 L16.5,5.5 C16.5,6.604 17.396,7.5 18.5,7.5 L20.5,7.5 C21.604,7.5 22.5,6.604 22.5,5.5 L22.5,0.5" id="Stroke-495" stroke-linecap="round" sketch:type="MSShapeGroup"></path>
                <path d="M16.5,4 L16.5,22 C16.5,23.104 17.396,23.5 18.5,23.5 L20.5,23.5 C21.604,23.5 22.5,23.104 22.5,22 L22.5,4" id="Stroke-496" sketch:type="MSShapeGroup"></path>
                <path d="M6.5,19.5 L0.5,19.5" id="Stroke-497" sketch:type="MSShapeGroup"></path>
                <path d="M6.5,17.5 L0.5,17.5" id="Stroke-498" sketch:type="MSShapeGroup"></path>
                <path d="M14.5,19.5 L8.5,19.5" id="Stroke-499" sketch:type="MSShapeGroup"></path>
                <path d="M14.5,17.5 L8.5,17.5" id="Stroke-500" sketch:type="MSShapeGroup"></path>
                <path d="M22.5,19.5 L16.5,19.5" id="Stroke-501" sketch:type="MSShapeGroup"></path>
                <path d="M22.5,17.5 L16.5,17.5" id="Stroke-502" sketch:type="MSShapeGroup"></path>
                <path d="M6.5,13.5 L0.5,13.5" id="Stroke-503" sketch:type="MSShapeGroup"></path>
                <path d="M6.5,11.5 L0.5,11.5" id="Stroke-504" sketch:type="MSShapeGroup"></path>
                <path d="M14.5,13.5 L8.5,13.5" id="Stroke-505" sketch:type="MSShapeGroup"></path>
                <path d="M14.5,11.5 L8.5,11.5" id="Stroke-506" sketch:type="MSShapeGroup"></path>
                <path d="M22.5,13.5 L16.5,13.5" id="Stroke-507" sketch:type="MSShapeGroup"></path>
                <path d="M22.5,11.5 L16.5,11.5" id="Stroke-508" sketch:type="MSShapeGroup"></path>
                <path d="M2.5,5.5 L2.5,1.5" id="Stroke-509" stroke-linecap="round" sketch:type="MSShapeGroup"></path>
                <path d="M4.5,5.5 L4.5,1.5" id="Stroke-510" stroke-linecap="round" sketch:type="MSShapeGroup"></path>
                <path d="M10.5,5.5 L10.5,1.5" id="Stroke-511" stroke-linecap="round" sketch:type="MSShapeGroup"></path>
                <path d="M12.5,5.5 L12.5,1.5" id="Stroke-512" stroke-linecap="round" sketch:type="MSShapeGroup"></path>
                <path d="M18.5,5.5 L18.5,1.5" id="Stroke-513" stroke-linecap="round" sketch:type="MSShapeGroup"></path>
                <path d="M20.5,5.5 L20.5,1.5" id="Stroke-514" stroke-linecap="round" sketch:type="MSShapeGroup"></path>
            </g>
        </g>
    </g>
</svg>