<?xml version="1.0" encoding="UTF-8"?>
<svg width="24px" height="16px" viewBox="0 0 24 16" version="1.1" xmlns="http://www.w3.org/2000/svg" xmlns:xlink="http://www.w3.org/1999/xlink">
    <!-- Generator: Sketch 41 (35326) - http://www.bohemiancoding.com/sketch -->
    <title>et</title>
    <desc>Created with Sketch.</desc>
    <defs>
        <rect id="path-1" x="0" y="0" width="24" height="16"></rect>
        <mask id="mask-2" maskContentUnits="userSpaceOnUse" maskUnits="objectBoundingBox" x="0" y="0" width="24" height="16" fill="white">
            <use xlink:href="#path-1"></use>
        </mask>
        <mask id="mask-4" maskContentUnits="userSpaceOnUse" maskUnits="objectBoundingBox" x="0" y="0" width="24" height="16" fill="white">
            <use xlink:href="#path-1"></use>
        </mask>
    </defs>
    <g id="Page-1" stroke="none" stroke-width="1" fill="none" fill-rule="evenodd">
        <g id="et">
            <g id="Clipped">
                <mask id="mask-3" fill="white">
                    <use xlink:href="#path-1"></use>
                </mask>
                <g id="Rectangle" stroke="#EF2118" mask="url(#mask-2)" stroke-width="2" fill="#D8D8D8">
                    <use mask="url(#mask-4)" xlink:href="#path-1"></use>
                </g>
                <g id="Group" mask="url(#mask-3)">
                    <g transform="translate(-5.000000, 0.000000)">
                        <polygon id="Shape" fill="#FFC621" points="0.0632675799 0.108524306 32.7326314 0.108524306 32.7326314 15.5499826 0.0632675799 15.5499826"></polygon>
                        <polygon id="Shape" fill="#EF2118" points="0 10.6198785 32.7134307 10.6198785 32.7134307 15.8755556 0 15.8755556"></polygon>
                        <polygon id="Shape" fill="#298C08" points="0.0632675799 0 32.735779 0 32.735779 5.58125 0.0632675799 5.58125"></polygon>
                        <ellipse id="Oval" fill="#006BC6" cx="16.8222082" cy="8.20300498" rx="3.39350301" ry="3.34288969"></ellipse>
                        <path d="M15.2981583,5.83550694 L15.095702,5.97572035 L15.8352088,6.99956965 L16.0324399,6.87569691 L15.2980953,5.83553795 L15.2981583,5.83550694 Z M16.2238795,8.25225021 L15.9198174,8.04338743 L16.0454082,7.6503434 L14.5307635,7.67118007 L14.0922971,7.34052201 L16.1599823,7.3185691 L16.5434909,6.17416479 L16.749504,6.63691243 L16.223848,8.25231222 L16.2238795,8.25225021 Z M18.6325171,6.06067937 L18.4356637,5.91296229 L17.6683318,6.91678111 L17.8478418,7.06456021 L18.6325486,6.06071038 L18.6325171,6.06067937 Z M16.5735823,7.66026562 L16.6838442,7.31159253 L17.1021657,7.31084837 L16.6242908,5.89476122 L16.8118273,5.38314663 L17.4578491,7.31822802 L18.6811482,7.33249122 L18.2956251,7.66575385 L16.5735509,7.66029663 L16.5735823,7.66026562 Z M19.4276112,9.24673594 L19.509922,9.01681944 L18.304533,8.60560535 L18.2168712,8.81924319 L19.4276112,9.24670493 L19.4276112,9.24673594 Z M17.2500733,7.8075176 L17.6208024,7.80379677 L17.7499816,8.19572455 L18.9713607,7.31301885 L19.5232051,7.33174705 L17.8520281,8.53149875 L18.2137865,9.68269358 L17.7734315,9.42356854 L17.2500418,7.8074866 L17.2500733,7.8075176 Z M16.6284772,10.9727065 L16.8759447,10.9762413 L16.8873707,9.71971587 L16.6538157,9.70597979 L16.6284457,10.9727065 L16.6284772,10.9727065 Z M17.3191955,8.4808024 L17.4409148,8.82575465 L17.1049671,9.07123663 L18.3436581,9.93028403 L18.5015438,10.4515108 L16.8145342,9.27355694 L15.8221461,9.97834479 L15.9311174,9.48459021 L17.319227,8.48074038 L17.3191955,8.4808024 Z M14.0686268,8.88348958 L14.1418095,9.11635174 L15.3582468,8.738005 L15.2991655,8.51500306 L14.0686898,8.88348958 L14.0686268,8.88348958 Z M16.6877788,8.75884167 L16.39253,8.97961111 L16.0514832,8.74101267 L15.6058717,10.1672391 L15.1516041,10.4765334 L15.766181,8.53156076 L14.7785772,7.82026146 L15.2889042,7.76947208 L16.6877158,8.75884167 L16.6877788,8.75884167 Z" id="Shape" fill="#FFC621"></path>
                    </g>
                </g>
            </g>
        </g>
    </g>
</svg>