<?xml version="1.0" encoding="UTF-8"?>
<svg width="30px" height="16px" viewBox="0 0 30 16" version="1.1" xmlns="http://www.w3.org/2000/svg" xmlns:xlink="http://www.w3.org/1999/xlink">
    <!-- Generator: Sketch 41 (35326) - http://www.bohemiancoding.com/sketch -->
    <title>um</title>
    <desc>Created with Sketch.</desc>
    <defs></defs>
    <g id="Page-1" stroke="none" stroke-width="1" fill="none" fill-rule="evenodd">
        <g id="um">
            <g id="Clipped">
                <g id="Group">
                    <g id="Shape">
                        <g fill="#BD3D44">
                            <path d="M0,0 L29.9674493,0 L29.9674493,1.22822245 L0,1.22822245 L0,0 Z M0,2.45644491 L29.9674493,2.45644491 L29.9674493,3.68466736 L0,3.68466736 L0,2.45644491 Z M0,4.91288981 L29.9674493,4.91288981 L29.9674493,6.14111227 L0,6.14111227 L0,4.91288981 Z M0,7.36933472 L29.9674493,7.36933472 L29.9674493,8.59755717 L0,8.59755717 L0,7.36933472 Z M0,9.82577963 L29.9674493,9.82577963 L29.9674493,11.0540021 L0,11.0540021 L0,9.82577963 Z M0,12.2822245 L29.9674493,12.2822245 L29.9674493,13.510447 L0,13.510447 L0,12.2822245 Z M0,14.7386694 L29.9674493,14.7386694 L29.9674493,15.9668919 L0,15.9668919 L0,14.7386694 Z"></path>
                        </g>
                        <g transform="translate(0.000000, 1.216216)" fill="#FFFFFF">
                            <path d="M0,0.012006237 L29.9674493,0.012006237 L29.9674493,1.24022869 L0,1.24022869 L0,0.012006237 Z M0,2.46845114 L29.9674493,2.46845114 L29.9674493,3.6966736 L0,3.6966736 L0,2.46845114 Z M0,4.92489605 L29.9674493,4.92489605 L29.9674493,6.1531185 L0,6.1531185 L0,4.92489605 Z M0,7.38134096 L29.9674493,7.38134096 L29.9674493,8.60956341 L0,8.60956341 L0,7.38134096 Z M0,9.83778586 L29.9674493,9.83778586 L29.9674493,11.0660083 L0,11.0660083 L0,9.83778586 Z M0,12.2942308 L29.9674493,12.2942308 L29.9674493,13.5224532 L0,13.5224532 L0,12.2942308 Z"></path>
                        </g>
                    </g>
                    <polygon id="Shape" fill="#192F5D" points="0 0 11.9868565 0 11.9868565 8.59740125 0 8.59740125"></polygon>
                    <g transform="translate(0.523686, 0.343035)" id="Shape" fill="#FFFFFF">
                        <path d="M0.475229326,0.0249480249 L0.584279162,0.364740125 L0.937243291,0.364740125 L0.651680586,0.57477131 L0.760761227,0.91456341 L0.475198521,0.70456341 L0.189697426,0.91456341 L0.298747262,0.57477131 L0.0132153614,0.364740125 L0.366148686,0.364740125 L0.475229326,0.0249480249 Z M2.47302848,0.0249480249 L2.58210912,0.364740125 L2.93507325,0.364740125 L2.64951054,0.57477131 L2.75859118,0.91456341 L2.47302848,0.70456341 L2.18752738,0.91456341 L2.29657722,0.57477131 L2.01104532,0.364740125 L2.36397864,0.364740125 L2.47302848,0.0249480249 Z M4.47092004,0.0249480249 L4.57996988,0.364740125 L4.93293401,0.364740125 L4.6473713,0.57477131 L4.75645194,0.91456341 L4.47092004,0.70456341 L4.18538814,0.91456341 L4.29443798,0.57477131 L4.00890608,0.364740125 L4.36187021,0.364740125 L4.47092004,0.0249480249 Z M6.46868839,0.0249480249 L6.57773823,0.364740125 L6.93067155,0.364740125 L6.64513965,0.57477131 L6.75418949,0.91456341 L6.46868839,0.70456341 L6.18312568,0.91456341 L6.29220633,0.57477131 L6.00664362,0.364740125 L6.35960775,0.364740125 L6.46868839,0.0249480249 Z M8.46654915,0.0249480249 L8.57559899,0.364740125 L8.92856312,0.364740125 L8.64300041,0.57477131 L8.75208105,0.91456341 L8.46651835,0.70456341 L8.18101725,0.91456341 L8.29006709,0.57477131 L8.00453519,0.364740125 L8.35746851,0.364740125 L8.46654915,0.0249480249 Z M10.4644099,0.0249480249 L10.5734597,0.364740125 L10.9264239,0.364740125 L10.6408612,0.57477131 L10.7499418,0.91456341 L10.4644099,0.70456341 L10.1788472,0.91456341 L10.2879587,0.57477131 L10.0023959,0.364740125 L10.3553601,0.364740125 L10.4644099,0.0249480249 Z"></path>
                        <path d="M1.47417511,0.884719335 L1.58322495,1.22451143 L1.93618907,1.22451143 L1.65062637,1.43451143 L1.75973781,1.77433472 L1.47417511,1.56433472 L1.18864321,1.77433472 L1.29769304,1.43451143 L1.01216114,1.22451143 L1.36512527,1.22451143 L1.47417511,0.884719335 Z M3.47194346,0.884719335 L3.58099329,1.22451143 L3.93392662,1.22451143 L3.64839472,1.43451143 L3.75744455,1.77433472 L3.47194346,1.56433472 L3.18638075,1.77433472 L3.29546139,1.43451143 L3.00989869,1.22451143 L3.36286281,1.22451143 L3.47194346,0.884719335 Z M5.46980422,0.884719335 L5.57885405,1.22451143 L5.93181818,1.22451143 L5.64625548,1.43451143 L5.75533612,1.77433472 L5.46977341,1.56433472 L5.18427232,1.77433472 L5.29332215,1.43451143 L5.00779025,1.22451143 L5.36072358,1.22451143 L5.46980422,0.884719335 Z M7.46766498,0.884719335 L7.57671481,1.22451143 L7.92967894,1.22451143 L7.64411624,1.43451143 L7.75319688,1.77433472 L7.46766498,1.56433472 L7.18210227,1.77433472 L7.29124452,1.43451143 L7.00568182,1.22451143 L7.35864595,1.22451143 L7.46766498,0.884719335 Z M9.46543332,0.884719335 L9.57448316,1.22451143 L9.92741648,1.22451143 L9.64188458,1.43451143 L9.75093442,1.77433472 L9.46543332,1.56433472 L9.17987062,1.77433472 L9.28895126,1.43451143 L9.00338855,1.22451143 L9.35635268,1.22451143 L9.46543332,0.884719335 Z"></path>
                        <g transform="translate(0.000000, 1.715177)">
                            <path d="M0.475229326,0.0292827443 L0.584279162,0.369074844 L0.937243291,0.369074844 L0.651680586,0.579106029 L0.760761227,0.918898129 L0.475198521,0.708898129 L0.189697426,0.918898129 L0.298747262,0.579106029 L0.0132153614,0.369074844 L0.366148686,0.369074844 L0.475229326,0.0292827443 Z M2.47302848,0.0292827443 L2.58210912,0.369074844 L2.93507325,0.369074844 L2.64951054,0.579106029 L2.75859118,0.918898129 L2.47302848,0.708898129 L2.18752738,0.918898129 L2.29657722,0.579106029 L2.01104532,0.369074844 L2.36397864,0.369074844 L2.47302848,0.0292827443 Z M4.47092004,0.0292827443 L4.57996988,0.369074844 L4.93293401,0.369074844 L4.6473713,0.579106029 L4.75645194,0.918898129 L4.47092004,0.708898129 L4.18538814,0.918898129 L4.29443798,0.579106029 L4.00890608,0.369074844 L4.36187021,0.369074844 L4.47092004,0.0292827443 Z M6.46868839,0.0292827443 L6.57773823,0.369074844 L6.93067155,0.369074844 L6.64513965,0.579106029 L6.75418949,0.918898129 L6.46868839,0.708898129 L6.18312568,0.918898129 L6.29220633,0.579106029 L6.00664362,0.369074844 L6.35960775,0.369074844 L6.46868839,0.0292827443 Z M8.46654915,0.0292827443 L8.57559899,0.369074844 L8.92856312,0.369074844 L8.64300041,0.579106029 L8.75208105,0.918898129 L8.46651835,0.708898129 L8.18101725,0.918898129 L8.29006709,0.579106029 L8.00453519,0.369074844 L8.35746851,0.369074844 L8.46654915,0.0292827443 Z M10.4644099,0.0292827443 L10.5734597,0.369074844 L10.9264239,0.369074844 L10.6408612,0.579106029 L10.7499418,0.918898129 L10.4644099,0.708898129 L10.1788472,0.918898129 L10.2879587,0.579106029 L10.0023959,0.369074844 L10.3553601,0.369074844 L10.4644099,0.0292827443 Z"></path>
                            <path d="M1.47417511,0.889022869 L1.58322495,1.22884615 L1.93618907,1.22884615 L1.65062637,1.43884615 L1.75973781,1.77866944 L1.47417511,1.56866944 L1.18864321,1.77866944 L1.29769304,1.43884615 L1.01216114,1.22884615 L1.36512527,1.22884615 L1.47417511,0.889022869 Z M3.47194346,0.889022869 L3.58099329,1.22884615 L3.93392662,1.22884615 L3.64839472,1.43884615 L3.75744455,1.77866944 L3.47194346,1.56866944 L3.18638075,1.77866944 L3.29546139,1.43884615 L3.00989869,1.22884615 L3.36286281,1.22884615 L3.47194346,0.889022869 Z M5.46980422,0.889022869 L5.57885405,1.22884615 L5.93181818,1.22884615 L5.64625548,1.43884615 L5.75533612,1.77866944 L5.46977341,1.56866944 L5.18427232,1.77866944 L5.29332215,1.43884615 L5.00779025,1.22884615 L5.36072358,1.22884615 L5.46980422,0.889022869 Z M7.46766498,0.889022869 L7.57671481,1.22884615 L7.92967894,1.22884615 L7.64411624,1.43884615 L7.75319688,1.77866944 L7.46766498,1.56866944 L7.18210227,1.77866944 L7.29121372,1.43884615 L7.00565101,1.22884615 L7.35861514,1.22884615 L7.46766498,0.889022869 Z M9.46543332,0.889022869 L9.57448316,1.22884615 L9.92741648,1.22884615 L9.64188458,1.43884615 L9.75093442,1.77866944 L9.46543332,1.56866944 L9.17987062,1.77866944 L9.28895126,1.43884615 L9.00338855,1.22884615 L9.35635268,1.22884615 L9.46543332,0.889022869 Z"></path>
                        </g>
                        <g transform="translate(0.000000, 3.461538)">
                            <path d="M0.475229326,0.00243243243 L0.584279162,0.342224532 L0.937243291,0.342224532 L0.651680586,0.552255717 L0.760761227,0.892047817 L0.475198521,0.682047817 L0.189697426,0.892047817 L0.298747262,0.552255717 L0.0132153614,0.342224532 L0.366148686,0.342224532 L0.475229326,0.00243243243 Z M2.47302848,0.00243243243 L2.58210912,0.342224532 L2.93507325,0.342224532 L2.64951054,0.552255717 L2.75859118,0.892047817 L2.47302848,0.682047817 L2.18752738,0.892047817 L2.29657722,0.552255717 L2.01104532,0.342224532 L2.36397864,0.342224532 L2.47302848,0.00243243243 Z M4.47092004,0.00243243243 L4.57996988,0.342224532 L4.93293401,0.342224532 L4.6473713,0.552255717 L4.75645194,0.892047817 L4.47092004,0.682047817 L4.18538814,0.892047817 L4.29443798,0.552255717 L4.00890608,0.342224532 L4.36187021,0.342224532 L4.47092004,0.00243243243 Z M6.46868839,0.00243243243 L6.57773823,0.342224532 L6.93067155,0.342224532 L6.64513965,0.552255717 L6.75418949,0.892047817 L6.46868839,0.682047817 L6.18312568,0.892047817 L6.29220633,0.552255717 L6.00664362,0.342224532 L6.35960775,0.342224532 L6.46868839,0.00243243243 Z M8.46654915,0.00243243243 L8.57559899,0.342224532 L8.92856312,0.342224532 L8.64300041,0.552255717 L8.75208105,0.892047817 L8.46651835,0.682047817 L8.18101725,0.892047817 L8.29006709,0.552255717 L8.00453519,0.342224532 L8.35746851,0.342224532 L8.46654915,0.00243243243 Z M10.4644099,0.00243243243 L10.5734597,0.342224532 L10.9264239,0.342224532 L10.6408612,0.552255717 L10.7499418,0.892047817 L10.4644099,0.682047817 L10.1788472,0.892047817 L10.2879587,0.552255717 L10.0023959,0.342224532 L10.3553601,0.342224532 L10.4644099,0.00243243243 Z"></path>
                            <path d="M1.47417511,0.862172557 L1.58322495,1.20199584 L1.93618907,1.20199584 L1.65062637,1.41199584 L1.75973781,1.75181913 L1.47417511,1.54181913 L1.18864321,1.75181913 L1.29769304,1.41199584 L1.01216114,1.20199584 L1.36512527,1.20199584 L1.47417511,0.862172557 Z M3.47194346,0.862172557 L3.58099329,1.20199584 L3.93392662,1.20199584 L3.64839472,1.41199584 L3.75744455,1.75181913 L3.47194346,1.54181913 L3.18638075,1.75181913 L3.29546139,1.41199584 L3.00989869,1.20199584 L3.36286281,1.20199584 L3.47194346,0.862172557 Z M5.46980422,0.862172557 L5.57885405,1.20199584 L5.93181818,1.20199584 L5.64625548,1.41199584 L5.75533612,1.75181913 L5.46977341,1.54181913 L5.18427232,1.75181913 L5.29332215,1.41199584 L5.00779025,1.20199584 L5.36072358,1.20199584 L5.46980422,0.862172557 Z M7.46766498,0.862172557 L7.57671481,1.20199584 L7.92967894,1.20199584 L7.64411624,1.41199584 L7.75319688,1.75181913 L7.46766498,1.54181913 L7.18210227,1.75181913 L7.29121372,1.41199584 L7.00565101,1.20199584 L7.35861514,1.20199584 L7.46766498,0.862172557 Z M9.46543332,0.862172557 L9.57448316,1.20199584 L9.92741648,1.20199584 L9.64188458,1.41199584 L9.75093442,1.75181913 L9.46543332,1.54181913 L9.17987062,1.75181913 L9.28895126,1.41199584 L9.00338855,1.20199584 L9.35635268,1.20199584 L9.46543332,0.862172557 Z"></path>
                        </g>
                        <g transform="translate(0.000000, 5.176715)">
                            <path d="M0.475229326,0.00676715177 L0.584279162,0.346559252 L0.937243291,0.346559252 L0.651680586,0.556590437 L0.760761227,0.896382536 L0.475198521,0.686382536 L0.189697426,0.896382536 L0.298747262,0.556590437 L0.0132153614,0.346559252 L0.366148686,0.346559252 L0.475229326,0.00676715177 Z M2.47302848,0.00676715177 L2.58210912,0.346559252 L2.93507325,0.346559252 L2.64951054,0.556590437 L2.75859118,0.896382536 L2.47302848,0.686382536 L2.18752738,0.896382536 L2.29657722,0.556590437 L2.01104532,0.346559252 L2.36397864,0.346559252 L2.47302848,0.00676715177 Z M4.47092004,0.00676715177 L4.57996988,0.346559252 L4.93293401,0.346559252 L4.6473713,0.556590437 L4.75645194,0.896382536 L4.47092004,0.686382536 L4.18538814,0.896382536 L4.29443798,0.556590437 L4.00890608,0.346559252 L4.36187021,0.346559252 L4.47092004,0.00676715177 Z M6.46868839,0.00676715177 L6.57773823,0.346559252 L6.93067155,0.346559252 L6.64513965,0.556590437 L6.75418949,0.896382536 L6.46868839,0.686382536 L6.18312568,0.896382536 L6.29220633,0.556590437 L6.00664362,0.346559252 L6.35960775,0.346559252 L6.46868839,0.00676715177 Z M8.46654915,0.00676715177 L8.57559899,0.346559252 L8.92856312,0.346559252 L8.64300041,0.556590437 L8.75208105,0.896382536 L8.46651835,0.686382536 L8.18101725,0.896382536 L8.29006709,0.556590437 L8.00453519,0.346559252 L8.35746851,0.346559252 L8.46654915,0.00676715177 Z M10.4644099,0.00676715177 L10.5734597,0.346559252 L10.9264239,0.346559252 L10.6408612,0.556590437 L10.7499418,0.896382536 L10.4644099,0.686382536 L10.1788472,0.896382536 L10.2879587,0.556590437 L10.0023959,0.346559252 L10.3553601,0.346559252 L10.4644099,0.00676715177 Z"></path>
                            <path d="M1.47417511,0.866507277 L1.58322495,1.20633056 L1.93618907,1.20633056 L1.65062637,1.41633056 L1.75973781,1.75615385 L1.47417511,1.54615385 L1.18864321,1.75615385 L1.29769304,1.41633056 L1.01216114,1.20633056 L1.36512527,1.20633056 L1.47417511,0.866507277 Z M3.47194346,0.866507277 L3.58099329,1.20633056 L3.93392662,1.20633056 L3.64839472,1.41633056 L3.75744455,1.75615385 L3.47194346,1.54615385 L3.18638075,1.75615385 L3.29546139,1.41633056 L3.00989869,1.20633056 L3.36286281,1.20633056 L3.47194346,0.866507277 Z M5.46980422,0.866507277 L5.57885405,1.20633056 L5.93181818,1.20633056 L5.64625548,1.41633056 L5.75533612,1.75615385 L5.46977341,1.54615385 L5.18427232,1.75615385 L5.29332215,1.41633056 L5.00779025,1.20633056 L5.36072358,1.20633056 L5.46980422,0.866507277 Z M7.46766498,0.866507277 L7.57671481,1.20633056 L7.92967894,1.20633056 L7.64411624,1.41633056 L7.75319688,1.75615385 L7.46766498,1.54615385 L7.18210227,1.75615385 L7.29121372,1.41633056 L7.00565101,1.20633056 L7.35861514,1.20633056 L7.46766498,0.866507277 Z M9.46543332,0.866507277 L9.57448316,1.20633056 L9.92741648,1.20633056 L9.64188458,1.41633056 L9.75093442,1.75615385 L9.46543332,1.54615385 L9.17987062,1.75615385 L9.28895126,1.41633056 L9.00338855,1.20633056 L9.35635268,1.20633056 L9.46543332,0.866507277 Z"></path>
                        </g>
                        <path d="M0.475229326,6.90299376 L0.584279162,7.24278586 L0.937243291,7.24278586 L0.651680586,7.45281705 L0.760761227,7.79260915 L0.475198521,7.58260915 L0.189697426,7.79260915 L0.298747262,7.45281705 L0.0132153614,7.24278586 L0.366148686,7.24278586 L0.475229326,6.90299376 Z M2.47302848,6.90299376 L2.58210912,7.24278586 L2.93507325,7.24278586 L2.64951054,7.45281705 L2.75859118,7.79260915 L2.47302848,7.58260915 L2.18752738,7.79260915 L2.29657722,7.45281705 L2.01104532,7.24278586 L2.36397864,7.24278586 L2.47302848,6.90299376 Z M4.47092004,6.90299376 L4.57996988,7.24278586 L4.93293401,7.24278586 L4.6473713,7.45281705 L4.75645194,7.79260915 L4.47092004,7.58260915 L4.18538814,7.79260915 L4.29443798,7.45281705 L4.00890608,7.24278586 L4.36187021,7.24278586 L4.47092004,6.90299376 Z M6.46868839,6.90299376 L6.57773823,7.24278586 L6.93067155,7.24278586 L6.64513965,7.45281705 L6.75418949,7.79260915 L6.46868839,7.58260915 L6.18312568,7.79260915 L6.29220633,7.45281705 L6.00664362,7.24278586 L6.35960775,7.24278586 L6.46868839,6.90299376 Z M8.46654915,6.90299376 L8.57559899,7.24278586 L8.92856312,7.24278586 L8.64300041,7.45281705 L8.75208105,7.79260915 L8.46651835,7.58260915 L8.18101725,7.79260915 L8.29006709,7.45281705 L8.00453519,7.24278586 L8.35746851,7.24278586 L8.46654915,6.90299376 Z M10.4644099,6.90299376 L10.5734597,7.24278586 L10.9264239,7.24278586 L10.6408612,7.45281705 L10.7499418,7.79260915 L10.4644099,7.58260915 L10.1788472,7.79260915 L10.2879587,7.45281705 L10.0023959,7.24278586 L10.3553601,7.24278586 L10.4644099,6.90299376 Z"></path>
                    </g>
                </g>
            </g>
        </g>
    </g>
</svg>