<?xml version="1.0" encoding="UTF-8" standalone="no"?>
<svg width="30px" height="30px" viewBox="0 0 30 30" version="1.1" xmlns="http://www.w3.org/2000/svg" xmlns:xlink="http://www.w3.org/1999/xlink" xmlns:sketch="http://www.bohemiancoding.com/sketch/ns">
    <!-- Generator: Sketch 3.5.1 (25234) - http://www.bohemiancoding.com/sketch -->
    <title>read</title>
    <desc>Created with Sketch.</desc>
    <defs></defs>
    <g id="Page-1" stroke="none" stroke-width="1" fill="none" fill-rule="evenodd" sketch:type="MSPage">
        <g id="read" sketch:type="MSArtboardGroup" stroke-linecap="round" stroke="#EBEAE4" stroke-linejoin="round">
            <g id="Group" sketch:type="MSLayerGroup" transform="translate(14.875000, 14.875000) scale(-1, -1) translate(-14.875000, -14.875000) translate(0.875000, 0.875000)">
                <path d="M27.1640625,27.1640625 L0.2109375,27.1640625 L0.2109375,0.2109375 L27.1640625,0.2109375 L27.1640625,27.1640625 Z" id="Stroke-2737" sketch:type="MSShapeGroup"></path>
                <path d="M15.4453125,7 L23.6484375,7" id="Stroke-2738" sketch:type="MSShapeGroup"></path>
                <path d="M11.9296875,10 L23.6484375,10" id="Stroke-2739" sketch:type="MSShapeGroup"></path>
                <path d="M11.9296875,14 L23.6484375,14" id="Stroke-2740" sketch:type="MSShapeGroup"></path>
                <path d="M11.9296875,17 L23.6484375,17" id="Stroke-2741" sketch:type="MSShapeGroup"></path>
                <path d="M11.9296875,21 L20.1328125,21" id="Stroke-2742" sketch:type="MSShapeGroup"></path>
                <path d="M8.4140625,8.4140625 L3.7265625,8.4140625 L3.7265625,3.7265625 L8.4140625,3.7265625 L8.4140625,8.4140625 Z" id="Stroke-2743" sketch:type="MSShapeGroup"></path>
                <path d="M8.4140625,16.6171875 L3.7265625,16.6171875 L3.7265625,10.7578125 L8.4140625,10.7578125 L8.4140625,16.6171875 Z" id="Stroke-2744" sketch:type="MSShapeGroup"></path>
                <path d="M8.4140625,23.6484375 L3.7265625,23.6484375 L3.7265625,18.9609375 L8.4140625,18.9609375 L8.4140625,23.6484375 Z" id="Stroke-2745" sketch:type="MSShapeGroup"></path>
            </g>
        </g>
    </g>
</svg>