;<svg
  xmlns="http://www.w3.org/2000/svg"
  width="191"
  height="38"
  viewBox="0 0 191 38"
>
  <path
    fill-rule="evenodd"
    d="M5.148,28.482 C2.847,28.209 0.975,26.532 0.975,24.66 C0.975,22.554 3.081,20.994 5.382,20.331 L5.382,20.292 C3.159,19.512 1.638,18.03 1.638,15.339 C1.638,12.219 4.758,9.294 9.36,9.294 C11.115,9.294 12.987,9.723 14.196,10.425 L19.89,9.801 L19.578,12.297 L15.678,11.712 L15.639,11.829 C16.497,12.57 17.004,13.662 17.004,14.871 C17.004,18.342 13.806,20.799 9.087,20.799 C8.112,20.799 7.215,20.721 6.396,20.565 C5.382,20.838 4.68,21.579 4.68,22.32 C4.68,23.256 5.577,23.685 7.644,23.685 C8.853,23.685 11.7,23.568 13.182,23.568 C16.653,23.568 19.071,25.518 19.071,28.638 C19.071,32.811 14.508,36.399 8.073,36.399 C3.003,36.399 0.507,35.112 0.507,32.499 C0.507,30.432 2.808,29.379 5.148,28.482 Z M10.101,35.229 C13.26,35.229 15.405,33.552 15.405,31.329 C15.405,29.34 14.079,28.716 11.31,28.521 C10.452,28.404 8.658,28.482 6.123,28.599 C4.992,29.106 4.68,30.12 4.68,31.524 C4.68,33.63 6.708,35.229 10.101,35.229 Z M9.321,20.019 C10.959,20.019 11.7,18.732 11.7,15.183 C11.7,11.829 10.803,10.152 9.321,10.152 C7.722,10.152 7.059,11.478 7.059,15.144 C7.059,18.537 7.878,20.019 9.321,20.019 Z M33.774,27.507 C31.863,27.507 30.459,26.22 30.186,23.802 L30.069,23.763 C28.236,25.908 26.598,27.468 24.414,27.468 C22.074,27.468 20.163,25.713 20.163,23.49 C20.163,20.448 22.932,18.615 30.186,16.665 L30.225,15.573 C30.342,12.921 28.899,10.854 26.286,10.854 C24.843,10.854 24.219,11.244 24.219,11.634 C24.219,11.907 25.467,12.921 25.467,14.052 C25.467,15.261 24.375,16.353 22.854,16.353 C21.45,16.353 20.28,15.612 20.28,14.247 C20.28,11.361 25.701,9.294 29.601,9.294 C34.086,9.294 36.036,11.205 35.88,15.651 L35.568,22.515 C35.49,24.036 36.075,24.621 36.933,24.621 C37.479,24.621 38.103,23.997 38.61,23.412 L39,23.841 C37.869,25.284 35.88,27.507 33.774,27.507 Z M27.807,24.153 C28.743,24.153 29.484,23.529 29.991,22.944 L30.225,17.445 C26.637,18.42 25.545,19.746 25.545,21.618 C25.545,23.178 26.403,24.153 27.807,24.153 Z M39.468,27 L39.624,26.337 L40.17,26.298 C41.301,26.22 41.535,26.103 41.535,25.635 L41.535,6.213 C41.535,4.302 41.262,3.951 40.17,3.6 L39.156,3.171 L39.234,2.703 L47.229,0.519 L47.229,25.674 C47.229,26.025 47.541,26.181 48.828,26.298 L49.296,26.337 L49.413,27 L39.468,27 Z M64.662,27.507 C62.751,27.507 61.347,26.22 61.074,23.802 L60.957,23.763 C59.124,25.908 57.486,27.468 55.302,27.468 C52.962,27.468 51.051,25.713 51.051,23.49 C51.051,20.448 53.82,18.615 61.074,16.665 L61.113,15.573 C61.23,12.921 59.787,10.854 57.174,10.854 C55.731,10.854 55.107,11.244 55.107,11.634 C55.107,11.907 56.355,12.921 56.355,14.052 C56.355,15.261 55.263,16.353 53.742,16.353 C52.338,16.353 51.168,15.612 51.168,14.247 C51.168,11.361 56.589,9.294 60.489,9.294 C64.974,9.294 66.924,11.205 66.768,15.651 L66.456,22.515 C66.378,24.036 66.963,24.621 67.821,24.621 C68.367,24.621 68.991,23.997 69.498,23.412 L69.888,23.841 C68.757,25.284 66.768,27.507 64.662,27.507 Z M58.695,24.153 C59.631,24.153 60.372,23.529 60.879,22.944 L61.113,17.445 C57.525,18.42 56.433,19.746 56.433,21.618 C56.433,23.178 57.291,24.153 58.695,24.153 Z M69.264,27 L69.381,26.337 L70.161,26.142 C72.072,25.752 72.657,24.972 74.958,22.125 L77.103,19.59 L72.969,13.194 C71.838,11.517 71.019,10.815 70.044,10.698 L69.381,10.542 L69.264,9.879 L80.418,9.879 L80.301,10.542 L79.716,10.62 C78.468,10.815 78.585,11.556 79.248,12.57 L81.393,16.08 L81.471,16.08 L82.68,14.559 C85.059,11.4 85.059,10.854 82.563,10.62 L82.134,10.542 L82.017,9.879 L89.349,9.879 L89.232,10.542 L88.374,10.776 C86.58,11.166 85.917,11.907 83.616,14.715 L81.939,16.743 L86.424,23.685 C87.516,25.44 88.413,26.025 89.115,26.181 L89.739,26.337 L89.895,27 L78.975,27 L79.053,26.337 L79.638,26.259 C81.003,26.142 80.808,25.362 80.145,24.348 L77.649,20.253 L77.571,20.253 L75.933,22.32 C73.476,25.44 73.632,26.025 76.089,26.259 L76.479,26.337 L76.557,27 L69.264,27 Z M92.586,37.062 C91.143,37.062 89.544,36.165 89.544,34.332 C89.544,33.045 90.519,31.797 92.079,31.797 C93.756,31.797 94.692,33.045 94.848,34.215 C95.823,33.981 96.291,33.24 96.993,31.251 L98.241,27.858 L97.578,27.858 L90.753,12.531 C90.129,11.205 89.778,10.893 88.647,10.698 L87.984,10.542 L87.867,9.879 L98.826,9.879 L98.709,10.542 L97.851,10.698 C96.525,10.893 96.252,11.283 96.759,12.336 L100.581,21.54 L102.96,14.949 C104.13,11.712 103.818,11.127 101.751,10.776 L100.932,10.542 L100.815,9.879 L108.03,9.879 L107.913,10.542 L107.055,10.698 C105.573,10.854 105.3,11.439 103.935,15.027 L99.645,26.454 L97.734,31.953 C96.525,35.541 94.887,37.062 92.586,37.062 Z M115.986,27 L115.713,24.777 C121.953,20.331 124.839,18.537 124.839,15.066 C124.839,12.726 123.123,11.088 120.861,11.088 C118.833,11.088 117.312,12.024 116.259,14.013 L115.791,13.779 C117.234,9.684 120.627,7.539 124.488,7.539 C128.115,7.539 130.689,9.645 130.689,12.609 C130.689,16.275 126.594,18.42 119.964,22.788 L119.964,22.944 L128.115,22.983 C130.533,22.983 131.274,22.008 132.6,19.044 L133.068,18.186 L133.809,18.264 L132.093,27 L115.986,27 Z M145.704,27.507 C139.854,27.507 135.642,23.373 135.642,17.601 C135.642,11.79 140.478,7.5 146.289,7.5 C152.178,7.5 156.351,11.673 156.351,17.406 C156.351,23.256 151.593,27.507 145.704,27.507 Z M145.938,26.649 C148.473,26.649 150.345,22.827 150.345,17.835 C150.345,11.244 148.785,8.319 146.016,8.319 C143.481,8.319 141.648,12.024 141.648,17.172 C141.648,24.075 143.208,26.649 145.938,26.649 Z M158.145,27 L158.262,26.259 L159.393,26.103 C160.446,26.025 160.992,25.908 160.992,25.44 L160.992,10.425 L157.482,10.074 L157.599,9.411 L166.959,7.578 L166.959,25.479 C166.959,25.83 167.622,26.025 168.753,26.103 L169.806,26.259 L169.923,27 L158.145,27 Z M181.428,27.585 C176.046,27.585 172.185,25.089 172.185,21.111 C172.224,18.693 174.681,16.704 177.723,15.963 L177.723,15.924 C174.837,14.676 172.458,12.765 172.497,9.567 C172.497,5.55 175.539,2.04 181.077,2.04 C186.342,2.04 190.086,4.263 190.047,7.929 C190.047,10.464 187.551,12.141 184.548,12.921 L184.548,12.96 C187.863,14.247 190.515,16.392 190.476,19.746 C190.476,23.997 186.888,27.585 181.428,27.585 Z M183.534,12.57 C184.509,11.829 184.86,10.113 184.86,8.592 C184.899,5.355 183.3,2.82 180.921,2.82 C178.62,2.82 177.333,4.692 177.333,6.798 C177.333,9.489 179.4,10.932 183.534,12.57 Z M181.701,26.649 C183.963,26.649 185.679,24.855 185.679,22.671 C185.718,19.785 182.988,18.03 178.776,16.353 C177.801,17.133 177.489,18.693 177.45,20.604 C177.45,23.607 179.127,26.649 181.701,26.649 Z"
  />
</svg>
