<svg xmlns="http://www.w3.org/2000/svg" viewBox="0 0 76 41"><style>.st0{fill:#ebeae4}.st1{fill:#8764ea}</style><path class="st0" d="M23.3 15.1L18.7 14v.4c1.4 1.1 2 2.5 2 3.9 0 3.7-3.6 6.2-7.4 6.2-.9 0-1.9-.2-2.7-.4-.8.2-1.4 1-1.4 1.6 0 1 1.3 1.4 3.2 2.1l1.8.5c3.6 1.1 6 2.4 6 5.3s-3.6 5.9-10.5 5.9c-4.6 0-7.8-1.7-7.8-4.6 0-2.4 2.8-3.9 5.4-4.6V30c-.9-.5-1.7-1.4-1.7-2.6 0-1.8 1.4-3 3.5-3.7v-.3c-1.7-1-2.8-2.9-2.8-4.9 0-4.4 3.8-7.5 8.3-7.5 1.7 0 3.7.5 4.6.8l4.9-.1-.8 3.4zm-6.4.2c0-1.1-1.6-2.3-2.9-2.3-.6 0-1 .2-1.2.4-1.3 1.3-2.1 4.4-2.1 6.4 0 1.1.5 2.1.9 2.5.3.3.7.5 1.2.5.9 0 1.6-.4 2.1-1 1.4-1.4 2-4.6 2-6.5zM16.7 35c0-1.2-1.3-2-4.3-3-1.4-.4-2.7-.9-3.9-1.4-1.7.8-2.8 2-2.8 3.5 0 2 2.4 3.4 6.1 3.4 2.8 0 4.9-1.1 4.9-2.5z"/><path class="st0" d="M37.2 13.9h.3l1.1-3h4L40.3 18l-2.1 8.7 1.1.4 2.9-2 .7.8c-1.2 2-3.4 3.9-5.5 3.9-1 0-3.5-.9-3.5-1.6 0-.8 1.4-4.4 2.2-6.8h-.4c-3 5-4.8 8.4-7.5 8.4-2.5 0-4.4-1.8-4.4-5.3 0-3.9 2.1-8.3 4.7-10.9 1.6-1.6 3.6-2.7 5.4-2.7 1.9 0 2.9 1.4 3.3 3zm-.5 2.5c-.9-1.5-2.9-3-4.3-3-.5 0-.9.2-1.3.6-1.6 1.6-3.1 6.2-3.1 9.3 0 2 .8 3.1 2 3.1 1.5 0 2.8-2.3 5.7-6.9l1-3.1z"/><path class="st0" d="M37.2 13.9h.3l1.1-3h4L40.3 18l-2.1 8.7 1.1.4 2.9-2 .7.8c-1.2 2-3.4 3.9-5.5 3.9-1 0-3.5-.9-3.5-1.6 0-.8 1.4-4.4 2.2-6.8h-.4c-3 5-4.8 8.4-7.5 8.4-2.5 0-4.4-1.8-4.4-5.3 0-3.9 2.1-8.3 4.7-10.9 1.6-1.6 3.6-2.7 5.4-2.7 1.9 0 2.9 1.4 3.3 3zm-.5 2.5c-.9-1.5-2.9-3-4.3-3-.5 0-.9.2-1.3.6-1.6 1.6-3.1 6.2-3.1 9.3 0 2 .8 3.1 2 3.1 1.5 0 2.8-2.3 5.7-6.9l1-3.1z"/><path class="st0" d="M53.4 25.9l-.7-.8-2.8 2-1.1-.4L54.1 2l-7.8 2-.2 1.1 2.2 1.1c.5.2.6.7.5 1.3l-4.3 20.7c-.1.5 2.5 1.6 3.4 1.6 2 0 4.3-1.9 5.5-3.9z"/><path class="st0" d="M53.4 25.9l-.7-.8-2.8 2-1.1-.4L54.1 2l-7.8 2-.2 1.1 2.2 1.1c.5.2.6.7.5 1.3l-4.3 20.7c-.1.5 2.5 1.6 3.4 1.6 2 0 4.3-1.9 5.5-3.9z"/><path class="st0" d="M68.5 13.9h.3l1.1-3h4L71.5 18l-2.1 8.7 1.1.4 2.9-2 .7.8c-1.2 2-3.4 3.9-5.5 3.9-1 0-3.5-.9-3.5-1.6 0-.8 1.4-4.4 2.2-6.8h-.4c-3 5-4.8 8.4-7.5 8.4-2.5 0-4.4-1.8-4.4-5.3 0-3.9 2.1-8.3 4.7-10.9 1.6-1.6 3.6-2.7 5.4-2.7 2 0 2.9 1.4 3.4 3zm-.6 2.5c-.9-1.5-2.9-3-4.3-3-.5 0-.9.2-1.3.6-1.6 1.6-3.1 6.2-3.1 9.3 0 2 .8 3.1 2 3.1 1.5 0 2.8-2.3 5.7-6.9l1-3.1z"/><path class="st0" d="M68.5 13.9h.3l1.1-3h4L71.5 18l-2.1 8.7 1.1.4 2.9-2 .7.8c-1.2 2-3.4 3.9-5.5 3.9-1 0-3.5-.9-3.5-1.6 0-.8 1.4-4.4 2.2-6.8h-.4c-3 5-4.8 8.4-7.5 8.4-2.5 0-4.4-1.8-4.4-5.3 0-3.9 2.1-8.3 4.7-10.9 1.6-1.6 3.6-2.7 5.4-2.7 2 0 2.9 1.4 3.4 3zm-.6 2.5c-.9-1.5-2.9-3-4.3-3-.5 0-.9.2-1.3.6-1.6 1.6-3.1 6.2-3.1 9.3 0 2 .8 3.1 2 3.1 1.5 0 2.8-2.3 5.7-6.9l1-3.1z"/><path class="st1" d="M73 33H21.5v.5c0 .8-.2 1.7-.7 2.5H73v-3zM15.5 35c0-.3-.6-.9-3.4-1.8-.2-.1-.4-.1-.6-.2H7.4c-.3.3-.4.7-.4 1.1 0 .8 1 1.6 2.6 1.9h4.2c1.1-.3 1.7-.8 1.7-1z"/></svg>
