<?xml version="1.0" encoding="UTF-8" standalone="no"?>
<svg width="469px" height="35px" viewBox="0 0 469 35" version="1.1" xmlns="http://www.w3.org/2000/svg" xmlns:xlink="http://www.w3.org/1999/xlink" xmlns:sketch="http://www.bohemiancoding.com/sketch/ns">
    <!-- Generator: Sketch 3.4.4 (17249) - http://www.bohemiancoding.com/sketch -->
    <title>msc-logo</title>
    <desc>Created with Sketch.</desc>
    <defs></defs>
    <g id="Page-1" stroke="none" stroke-width="1" fill="none" fill-rule="evenodd" sketch:type="MSPage">
        <g id="msc-logo" sketch:type="MSArtboardGroup">
            <path d="M102.918,31.788 C102.928,33.251 102.928,33.451 103.695,33.468 L103.695,33.822 L101.029,33.822 L101.029,33.468 C101.715,33.414 101.787,33.304 101.797,32.619 C101.805,32.355 101.805,32.058 101.805,31.798 L101.805,29.488 C101.805,28.722 101.797,28.451 101.77,28.244 C101.723,27.89 101.551,27.826 101.029,27.781 L101.029,27.439 L103.92,27.449 C105.494,27.449 105.99,28.199 105.99,29.083 C105.99,29.701 105.611,30.5 104.732,30.769 L105.863,32.736 C106.271,33.488 106.488,33.66 107.004,33.732 L107.004,33.947 C106.867,33.957 106.73,33.964 106.586,33.964 C105.383,33.964 104.887,33.55 104.381,32.474 L104.027,31.724 C103.648,30.919 103.523,30.97 102.918,30.958 L102.918,31.788 L102.918,31.788 Z M102.918,30.398 C103.088,30.433 103.332,30.462 103.514,30.462 C104.238,30.466 104.787,29.896 104.814,29.384 C104.855,28.646 104.48,28.003 103.307,28.003 C103.143,28.003 103.043,28.011 102.918,28.039 L102.918,30.398 L102.918,30.398 Z M184.468,31.046 L184.468,31.39 C183.89,31.423 183.89,31.589 183.872,32.8 L183.872,33.279 C183.38,33.587 182.669,34.029 181.417,34.029 C179.22,34.029 178.171,32.365 178.171,30.693 C178.171,28.65 179.552,27.32 181.288,27.32 C182.378,27.32 183.005,27.728 183.524,28.044 L183.858,27.666 L183.907,29.662 L183.647,29.708 C183.517,29.33 183.321,28.892 182.841,28.41 C182.628,28.203 182.222,27.935 181.577,27.935 C180.464,27.935 179.538,28.875 179.538,30.71 C179.538,32.177 180.263,33.433 181.503,33.433 C182.216,33.433 182.579,32.937 182.614,32.898 C182.728,32.726 182.755,32.574 182.743,32.294 C182.714,31.48 182.604,31.462 181.897,31.39 L181.897,31.046 L184.468,31.046 L184.468,31.046 Z M99.953,33.822 C99.953,33.361 100.033,32.603 100.088,32.167 L99.781,32.167 C99.563,33.308 98.922,33.251 98,33.251 C97.15,33.251 96.98,33.025 96.98,32.609 L96.98,30.826 L97.666,30.826 C98.451,30.826 98.678,30.894 98.678,31.607 L98.984,31.607 L98.984,29.501 L98.678,29.501 C98.615,30.068 98.498,30.257 97.676,30.257 L96.98,30.257 L96.98,28.007 L97.764,28.007 C98.85,28.007 99.238,28.087 99.385,28.955 L99.674,28.955 L99.635,27.439 L95.09,27.439 L95.09,27.781 C95.549,27.828 95.748,27.855 95.813,28.156 C95.857,28.353 95.863,29.054 95.863,29.308 L95.863,31.552 C95.863,31.724 95.857,32.492 95.85,32.646 C95.832,33.341 95.748,33.408 95.09,33.468 L95.09,33.822 L99.953,33.822 L99.953,33.822 Z M124.74,33.822 L124.74,33.476 C125.24,33.425 125.43,33.408 125.555,33.279 C125.701,33.136 125.701,32.974 125.707,32.277 L125.707,31.156 L124.014,28.525 C123.551,27.837 123.543,27.82 122.93,27.785 L122.93,27.431 L126.25,27.431 L126.25,27.785 C125.582,27.802 125.283,27.82 125.283,28.126 C125.283,28.298 125.4,28.498 125.564,28.769 L126.539,30.367 L127.441,28.777 C127.604,28.458 127.695,28.273 127.695,28.126 C127.695,27.82 127.434,27.812 126.988,27.785 L126.988,27.431 L129.48,27.431 L129.48,27.785 C128.838,27.802 128.65,27.992 127.922,29.183 L126.928,30.847 L126.928,32.177 C126.928,33.333 126.934,33.425 127.883,33.476 L127.883,33.822 L124.74,33.822 L124.74,33.822 Z M94.486,27.439 L94.486,27.785 C93.873,27.875 93.787,28.044 93.264,29.312 L91.32,33.947 L90.977,33.947 L89.233,29.24 C88.8,28.027 88.743,27.884 88.103,27.785 L88.103,27.439 L91.131,27.439 L91.131,27.785 C90.615,27.802 90.281,27.82 90.281,28.191 C90.281,28.371 90.326,28.525 90.5,29.058 L91.611,32.304 L92.912,28.949 C92.992,28.724 93.102,28.433 93.102,28.273 C93.102,27.812 92.65,27.791 92.252,27.785 L92.252,27.439 L94.486,27.439 L94.486,27.439 Z M71.861,27.439 L71.861,27.785 C71.013,27.845 71.013,27.875 71.003,29.23 L71.003,30.728 C71.003,31.509 71.019,32.177 71.429,32.775 C71.756,33.25 72.312,33.31 72.59,33.31 C73.503,33.31 74.006,32.837 74.224,32.083 C74.403,31.49 74.411,30.369 74.411,29.626 C74.411,29.392 74.411,28.63 74.403,28.427 C74.367,27.845 74.068,27.828 73.499,27.785 L73.499,27.439 L75.93,27.439 L75.93,27.785 C75.334,27.773 75.207,27.908 75.172,28.544 C75.161,28.695 75.089,30.468 75.081,30.74 C75.062,31.224 75.034,31.707 74.928,32.167 C74.494,33.884 72.821,33.976 72.379,33.976 C72.026,33.976 71.303,33.921 70.706,33.523 C69.757,32.88 69.747,31.923 69.747,30.894 L69.747,29.447 C69.739,28.759 69.739,28.451 69.72,28.288 C69.666,27.89 69.468,27.812 68.988,27.785 L68.988,27.439 L71.861,27.439 L71.861,27.439 Z M117.848,33.822 L117.848,33.55 C118.434,33.541 118.598,33.326 118.598,32.82 L118.598,28.117 L117.803,28.117 C117.082,28.117 116.604,28.087 116.547,29.228 L116.215,29.228 L116.268,27.439 L122.064,27.439 L122.117,29.228 L121.781,29.228 C121.729,28.087 121.25,28.117 120.527,28.117 L119.734,28.117 L119.734,32.82 C119.734,33.326 119.896,33.541 120.482,33.55 L120.482,33.822 L117.848,33.822 L117.848,33.822 Z M107.355,31.833 L107.682,31.798 C108.033,32.837 108.619,33.396 109.578,33.396 C110.256,33.396 110.854,33.107 110.854,32.419 C110.854,31.695 110.158,31.41 109.85,31.283 C109.596,31.181 109.326,31.099 109.072,31 C108.549,30.81 107.563,30.406 107.563,29.166 C107.563,27.974 108.502,27.302 109.596,27.302 C110.021,27.302 110.518,27.394 111.063,27.74 L111.449,27.46 L111.658,29.355 L111.34,29.417 C111.23,29.001 111.148,28.81 110.898,28.474 C110.592,28.076 110.158,27.89 109.65,27.89 C108.973,27.89 108.576,28.216 108.576,28.724 C108.576,29.482 109.326,29.738 110.039,29.968 C110.402,30.089 110.699,30.189 110.959,30.339 C111.465,30.64 111.883,31.199 111.883,31.966 C111.883,33.072 110.977,33.984 109.633,33.984 C108.766,33.984 108.23,33.64 107.98,33.476 L107.449,33.091 L107.355,31.833 L107.355,31.833 Z M76.745,33.822 L76.745,33.476 C77.269,33.451 77.468,33.441 77.541,33.08 C77.632,32.654 77.657,28.869 77.666,28.208 C77.313,27.884 77.169,27.82 76.745,27.785 L76.745,27.439 L78.661,27.439 C79.194,28.199 79.311,28.371 80.251,29.537 L82.032,31.742 L82.032,28.886 C82.024,27.875 81.997,27.82 80.983,27.785 L80.983,27.439 L83.495,27.439 L83.495,27.785 C82.8,27.791 82.738,27.937 82.73,28.976 L82.638,33.904 L82.259,33.904 L81.69,33.189 C81.399,32.826 81.111,32.466 80.821,32.113 L78.3,29.001 L78.3,32.312 C78.3,33.341 78.372,33.378 79.349,33.476 L79.349,33.822 L76.745,33.822 L76.745,33.822 Z M112.631,33.822 L112.631,33.476 C113.252,33.396 113.381,33.326 113.387,32.654 L113.387,29.257 C113.381,27.927 113.381,27.89 112.631,27.785 L112.631,27.439 L115.277,27.439 L115.277,27.785 C114.525,27.857 114.525,27.89 114.525,29.257 L114.525,31.833 C114.525,32.058 114.535,32.775 114.555,32.962 C114.6,33.351 114.779,33.441 115.277,33.476 L115.277,33.822 L112.631,33.822 L112.631,33.822 Z M84.515,33.822 L84.515,33.476 C85.14,33.396 85.265,33.326 85.274,32.654 L85.274,29.257 C85.265,27.927 85.265,27.89 84.515,27.785 L84.515,27.439 L87.165,27.439 L87.165,27.785 C86.416,27.857 86.416,27.89 86.416,29.257 L86.416,31.833 C86.416,32.058 86.423,32.775 86.443,32.962 C86.487,33.351 86.669,33.441 87.165,33.476 L87.165,33.822 L84.515,33.822 L84.515,33.822 Z M139.371,33.513 L139.371,33.865 L142.014,33.865 L142.014,33.513 C141.354,33.451 141.271,33.388 141.252,32.691 L141.258,30.871 L141.965,30.871 C142.678,30.871 143.057,30.939 143.102,31.652 L143.41,31.652 L143.41,29.546 L143.102,29.546 C143.066,30.234 142.877,30.302 142.1,30.302 L141.258,30.302 L141.258,28.091 C141.486,28.062 141.611,28.056 142.018,28.056 C143.268,28.056 143.668,28.05 143.838,29.048 L144.152,29.048 L144.051,27.486 L139.371,27.486 L139.371,27.828 C139.83,27.875 140.031,27.902 140.096,28.199 C140.139,28.398 140.148,29.101 140.148,29.355 L140.148,31.595 C140.148,31.769 140.137,32.539 140.127,32.691 C140.109,33.388 140.031,33.451 139.371,33.513 L139.371,33.513 Z M135.541,33.441 C135.904,33.431 136.412,33.251 136.807,32.652 C137.256,31.96 137.35,31.324 137.324,30.492 C137.297,29.671 137.068,28.964 136.6,28.462 C136.395,28.244 135.992,27.921 135.457,27.937 C134.926,27.937 134.531,28.273 134.332,28.498 C133.879,29.011 133.672,29.726 133.672,30.548 C133.672,31.38 133.783,32.013 134.254,32.691 C134.668,33.279 135.18,33.441 135.541,33.441 L135.541,33.441 Z M138.73,30.667 C138.73,32.875 137.227,34.031 135.535,34.031 C133.678,34.031 132.229,32.691 132.229,30.658 C132.229,28.916 133.398,27.339 135.447,27.349 C137.381,27.357 138.73,28.73 138.73,30.667 L138.73,30.667 Z M191.97,33.865 L191.97,33.523 C192.495,33.494 192.694,33.488 192.767,33.124 C192.856,32.701 192.884,28.916 192.892,28.253 C192.538,27.927 192.396,27.863 191.97,27.828 L191.97,27.486 L193.888,27.486 C194.421,28.246 194.536,28.416 195.478,29.582 L197.259,31.787 L197.259,28.929 C197.251,27.919 197.224,27.863 196.21,27.828 L196.21,27.486 L198.726,27.486 L198.726,27.828 C198.026,27.837 197.966,27.982 197.958,29.021 L197.866,33.947 L197.483,33.947 L196.915,33.234 C196.628,32.875 196.337,32.509 196.048,32.158 L193.526,29.048 L193.526,32.355 C193.526,33.388 193.597,33.425 194.575,33.523 L194.575,33.865 L191.97,33.865 L191.97,33.865 Z M152.535,33.865 L152.535,33.523 C153.338,33.468 153.338,33.433 153.348,32.25 L153.348,29.041 L151.115,33.947 L150.555,33.947 L148.504,28.974 L148.457,32.726 C148.457,33.351 148.531,33.468 149.209,33.523 L149.209,33.865 L146.994,33.865 L146.994,33.523 C147.508,33.494 147.711,33.425 147.742,32.992 C147.762,32.82 147.789,32.283 147.797,31.931 L147.889,29.257 C147.896,29.048 147.896,28.742 147.896,28.515 C147.896,27.884 147.771,27.837 147.201,27.828 L147.201,27.486 L149.209,27.486 L151.197,32.332 L153.385,27.486 L155.328,27.486 L155.328,27.863 C154.568,27.908 154.561,27.992 154.568,28.984 L154.568,31.615 C154.568,32.052 154.576,32.591 154.604,32.917 C154.641,33.388 154.822,33.476 155.328,33.523 L155.328,33.865 L152.535,33.865 L152.535,33.865 Z M156.555,33.865 L156.555,33.523 C157.18,33.441 157.305,33.369 157.314,32.701 L157.314,29.3 C157.305,27.974 157.305,27.937 156.555,27.828 L156.555,27.486 L159.203,27.486 L159.203,27.828 C158.453,27.902 158.453,27.937 158.453,29.3 L158.453,31.878 C158.453,32.105 158.465,32.82 158.482,33.007 C158.525,33.396 158.707,33.488 159.203,33.523 L159.203,33.865 L156.555,33.865 L156.555,33.865 Z M174.733,33.865 L174.733,33.523 C175.358,33.441 175.483,33.369 175.493,32.701 L175.493,29.3 C175.483,27.974 175.483,27.937 174.733,27.828 L174.733,27.486 L177.388,27.486 L177.388,27.828 C176.638,27.902 176.638,27.937 176.638,29.3 L176.638,31.878 C176.638,32.105 176.646,32.82 176.663,33.007 C176.708,33.396 176.89,33.488 177.388,33.523 L177.388,33.865 L174.733,33.865 L174.733,33.865 Z M166.859,33.865 L166.859,33.523 C167.584,33.46 167.592,33.304 167.592,32.691 C167.602,32.466 167.602,32.238 167.602,32.013 L167.602,29.337 C167.602,28.921 167.602,28.505 167.572,28.306 C167.537,27.927 167.355,27.875 166.859,27.828 L166.859,27.486 L169.594,27.486 L169.594,27.828 C169.059,27.884 168.859,27.902 168.797,28.253 C168.75,28.458 168.744,28.929 168.744,29.312 L168.744,30.191 C169.293,30.22 169.678,30.234 170.213,30.234 C170.754,30.234 171.182,30.22 171.727,30.191 L171.727,29.121 C171.717,27.957 171.709,27.908 170.84,27.828 L170.84,27.486 L173.606,27.486 L173.606,27.828 C172.865,27.919 172.865,27.927 172.865,29.14 L172.865,31.833 C172.865,32.083 172.873,32.89 172.902,33.08 C172.947,33.414 173.137,33.476 173.606,33.523 L173.606,33.865 L170.84,33.865 L170.84,33.523 C171.48,33.451 171.652,33.433 171.709,32.992 C171.727,32.808 171.727,32.566 171.727,32.105 L171.727,30.933 C171.221,30.916 170.799,30.888 170.273,30.888 C169.723,30.888 169.293,30.906 168.744,30.933 L168.744,32.105 C168.75,33.433 168.77,33.433 169.594,33.523 L169.594,33.865 L166.859,33.865 L166.859,33.865 Z M165.785,32.449 C165.502,32.908 164.824,34.039 163.063,34.039 C161.141,34.039 159.896,32.621 159.896,30.757 C159.896,29.031 160.951,27.332 163.105,27.332 C164.24,27.332 164.842,27.808 165.213,28.099 L165.646,27.703 L165.682,29.638 L165.398,29.691 C165.287,29.32 165.125,29.021 164.709,28.57 C164.514,28.363 164.043,27.945 163.375,27.945 C162.221,27.945 161.313,28.886 161.313,30.542 C161.313,31.941 162.061,33.261 163.535,33.261 C164.65,33.261 165.072,32.638 165.404,32.16 L165.785,32.449 L165.785,32.449 Z M187.999,28.746 L187.062,31.39 L188.897,31.39 L187.999,28.746 L187.999,28.746 Z M188.573,33.865 L188.573,33.523 C189.007,33.494 189.341,33.46 189.341,33.107 C189.341,32.98 189.302,32.845 189.267,32.726 L189.077,32.078 L186.829,32.078 L186.63,32.626 C186.587,32.765 186.548,32.89 186.548,33.025 C186.548,33.476 187.026,33.505 187.415,33.523 L187.415,33.865 L184.786,33.865 L184.786,33.523 C185.456,33.494 185.673,33.361 185.917,32.691 L187.644,27.957 L187.544,27.802 C188.282,27.56 188.491,27.449 188.81,27.214 C188.935,27.646 188.952,27.703 189.095,28.156 L190.509,32.492 C190.761,33.261 190.88,33.451 191.554,33.523 L191.554,33.865 L188.573,33.865 L188.573,33.865 Z" id="Fill-1" fill="#EBEAE4" sketch:type="MSShapeGroup"></path>
            <path d="M73.027,20.911 L70.657,20.911 L70.657,1.014 L74.763,1.014 L79.779,17.713 L79.834,17.713 L84.904,1.014 L89.093,1.014 L89.093,20.911 L86.558,20.911 L86.558,3.219 L86.502,3.219 L80.936,20.911 L78.539,20.911 L73.082,3.219 L73.027,3.219 L73.027,20.911" id="Fill-2" fill="#EBEAE4" sketch:type="MSShapeGroup"></path>
            <path d="M93.915,1.014 L96.45,1.014 L96.45,20.91 L93.915,20.91 L93.915,1.014 Z" id="Fill-3" fill="#EBEAE4" sketch:type="MSShapeGroup"></path>
            <path d="M110.009,6.498 C110.036,5.368 109.954,4.238 109.43,3.604 C108.906,2.971 107.721,2.75 107.198,2.75 C105.104,2.75 104.277,4.018 104.194,4.293 C104.111,4.514 103.615,5.01 103.615,8.427 L103.615,13.746 C103.615,18.624 105.213,19.202 107.17,19.202 C107.942,19.202 110.284,18.926 110.312,15.041 L112.93,15.041 C113.04,21.324 108.603,21.324 107.308,21.324 C104.828,21.324 101.025,21.159 101.025,13.442 L101.025,7.821 C101.025,2.199 103.505,0.601 107.418,0.601 C111.359,0.601 112.875,2.64 112.626,6.498 L110.009,6.498" id="Fill-4" fill="#EBEAE4" sketch:type="MSShapeGroup"></path>
            <path d="M116.732,20.911 L116.732,1.014 L119.268,1.014 L119.268,9.612 L126.24,9.612 L126.24,1.014 L128.775,1.014 L128.775,20.911 L126.24,20.911 L126.24,11.817 L119.268,11.817 L119.268,20.911 L116.732,20.911" id="Fill-5" fill="#EBEAE4" sketch:type="MSShapeGroup"></path>
            <path d="M133.735,1.014 L136.271,1.014 L136.271,20.91 L133.735,20.91 L133.735,1.014 Z" id="Fill-6" fill="#EBEAE4" sketch:type="MSShapeGroup"></path>
            <path d="M150.6,6.333 C150.6,3.99 149.636,2.723 147.073,2.723 C146.273,2.723 143.408,2.86 143.408,7.022 L143.408,13.746 C143.408,18.099 144.675,19.202 147.073,19.202 C148.892,19.202 150.104,18.705 150.627,18.32 L150.627,12.368 L146.962,12.368 L146.962,10.163 L153.163,10.163 L153.163,19.835 C151.537,20.717 149.636,21.324 147.073,21.324 C142.856,21.324 140.817,19.147 140.817,13.635 L140.817,7.104 C140.817,3.136 142.856,0.601 147.073,0.601 C151.372,0.601 153.411,2.171 153.246,6.333 L150.6,6.333" id="Fill-7" fill="#EBEAE4" sketch:type="MSShapeGroup"></path>
            <path d="M163.938,3.356 L163.882,3.356 L160.769,13.966 L167.134,13.966 L163.938,3.356 L163.938,3.356 Z M162.395,1.014 L165.619,1.014 L172.095,20.911 L169.256,20.911 L167.823,16.171 L160.135,16.171 L158.646,20.911 L156.084,20.911 L162.395,1.014 L162.395,1.014 Z" id="Fill-8" fill="#EBEAE4" sketch:type="MSShapeGroup"></path>
            <path d="M188.519,1.014 L188.519,20.911 L185.046,20.911 L177.192,3.66 L177.138,3.66 L177.138,20.911 L174.878,20.911 L174.878,1.014 L178.46,1.014 L186.204,18.044 L186.259,18.044 L186.259,1.014 L188.519,1.014" id="Fill-9" fill="#EBEAE4" sketch:type="MSShapeGroup"></path>
            <path d="M201.194,14.986 L201.194,15.564 C201.194,18.265 202.903,19.12 204.528,19.12 C206.54,19.12 208.083,18.265 208.083,15.895 C208.083,11.486 199.155,11.982 199.155,6.002 C199.155,2.475 201.663,0.601 204.997,0.601 C208.635,0.601 210.674,2.365 210.508,6.415 L207.863,6.415 C207.891,4.238 207.202,2.806 204.804,2.806 C203.289,2.806 201.745,3.577 201.745,5.727 C201.745,10.108 210.674,9.474 210.674,15.785 C210.674,19.973 207.78,21.324 204.501,21.324 C198.631,21.378 198.631,16.887 198.687,14.986 L201.194,14.986" id="Fill-10" fill="#EBEAE4" sketch:type="MSShapeGroup"></path>
            <path d="M214.477,1.014 L217.012,1.014 L217.012,13.746 C217.012,18.099 218.334,19.202 220.732,19.202 C223.13,19.202 224.452,18.099 224.452,13.746 L224.452,1.014 L226.988,1.014 L226.988,13.635 C226.988,19.147 224.948,21.324 220.732,21.324 C216.516,21.324 214.477,19.147 214.477,13.635 L214.477,1.014" id="Fill-11" fill="#EBEAE4" sketch:type="MSShapeGroup"></path>
            <path d="M233.354,14.986 L233.354,15.564 C233.354,18.265 235.062,19.12 236.688,19.12 C238.699,19.12 240.243,18.265 240.243,15.895 C240.243,11.486 231.314,11.982 231.314,6.002 C231.314,2.475 233.822,0.601 237.156,0.601 C240.794,0.601 242.833,2.365 242.667,6.415 L240.022,6.415 C240.05,4.238 239.361,2.806 236.963,2.806 C235.448,2.806 233.904,3.577 233.904,5.727 C233.904,10.108 242.833,9.474 242.833,15.785 C242.833,19.973 239.939,21.324 236.66,21.324 C230.791,21.378 230.791,16.887 230.846,14.986 L233.354,14.986" id="Fill-12" fill="#EBEAE4" sketch:type="MSShapeGroup"></path>
            <path d="M257.879,1.014 L257.879,3.219 L252.644,3.219 L252.644,20.911 L250.107,20.911 L250.107,3.219 L244.872,3.219 L244.872,1.014 L257.879,1.014" id="Fill-13" fill="#EBEAE4" sketch:type="MSShapeGroup"></path>
            <path d="M264.493,3.356 L264.438,3.356 L261.324,13.966 L267.689,13.966 L264.493,3.356 L264.493,3.356 Z M262.95,1.014 L266.174,1.014 L272.65,20.911 L269.812,20.911 L268.379,16.171 L260.69,16.171 L259.202,20.911 L256.64,20.911 L262.95,1.014 L262.95,1.014 Z" id="Fill-14" fill="#EBEAE4" sketch:type="MSShapeGroup"></path>
            <path d="M275.626,1.014 L278.161,1.014 L278.161,20.91 L275.626,20.91 L275.626,1.014 Z" id="Fill-15" fill="#EBEAE4" sketch:type="MSShapeGroup"></path>
            <path d="M296.734,1.014 L296.734,20.911 L293.263,20.911 L285.408,3.66 L285.354,3.66 L285.354,20.911 L283.094,20.911 L283.094,1.014 L286.677,1.014 L294.42,18.044 L294.475,18.044 L294.475,1.014 L296.734,1.014" id="Fill-16" fill="#EBEAE4" sketch:type="MSShapeGroup"></path>
            <path d="M307.372,3.356 L307.316,3.356 L304.202,13.966 L310.568,13.966 L307.372,3.356 L307.372,3.356 Z M305.828,1.014 L309.053,1.014 L315.528,20.911 L312.69,20.911 L311.257,16.171 L303.568,16.171 L302.081,20.911 L299.518,20.911 L305.828,1.014 L305.828,1.014 Z" id="Fill-17" fill="#EBEAE4" sketch:type="MSShapeGroup"></path>
            <path d="M320.957,18.705 L324.539,18.705 C327.24,18.705 328.204,16.777 328.204,15.316 C328.204,12.147 326.248,11.596 323.657,11.596 L320.957,11.596 L320.957,18.705 L320.957,18.705 Z M320.957,9.392 L324.649,9.392 C326.634,9.364 327.599,8.151 327.599,6.223 C327.599,4.569 326.661,3.219 324.539,3.219 L320.957,3.219 L320.957,9.392 L320.957,9.392 Z M318.422,20.911 L318.422,1.014 L324.897,1.014 C327.653,1.014 328.59,1.951 329.334,3.053 C330.023,4.128 330.134,5.313 330.134,5.699 C330.134,8.179 329.279,9.832 326.717,10.411 L326.717,10.549 C329.555,10.88 330.795,12.588 330.795,15.316 C330.795,20.415 327.074,20.911 324.814,20.911 L318.422,20.911 L318.422,20.911 Z" id="Fill-18" fill="#EBEAE4" sketch:type="MSShapeGroup"></path>
            <path d="M335.342,1.014 L337.877,1.014 L337.877,20.91 L335.342,20.91 L335.342,1.014 Z" id="Fill-19" fill="#EBEAE4" sketch:type="MSShapeGroup"></path>
            <path d="M342.672,20.911 L342.672,1.014 L345.207,1.014 L345.207,18.705 L352.51,18.705 L352.51,20.911 L342.672,20.911" id="Fill-20" fill="#EBEAE4" sketch:type="MSShapeGroup"></path>
            <path d="M355.237,1.014 L357.772,1.014 L357.772,20.91 L355.237,20.91 L355.237,1.014 Z" id="Fill-21" fill="#EBEAE4" sketch:type="MSShapeGroup"></path>
            <path d="M373.729,1.014 L373.729,3.219 L368.493,3.219 L368.493,20.911 L365.958,20.911 L365.958,3.219 L360.722,3.219 L360.722,1.014 L373.729,1.014" id="Fill-22" fill="#EBEAE4" sketch:type="MSShapeGroup"></path>
            <path d="M385.083,1.014 L387.645,1.014 L382.215,13.333 L382.215,20.911 L379.68,20.911 L379.68,13.333 L374.334,1.014 L377.172,1.014 L381.059,10.632 L385.083,1.014" id="Fill-23" fill="#EBEAE4" sketch:type="MSShapeGroup"></path>
            <path d="M405.004,6.498 C405.034,5.368 404.95,4.238 404.426,3.604 C403.903,2.971 402.717,2.75 402.194,2.75 C400.1,2.75 399.274,4.018 399.19,4.293 C399.108,4.514 398.612,5.01 398.612,8.427 L398.612,13.746 C398.612,18.624 400.209,19.202 402.167,19.202 C402.938,19.202 405.28,18.926 405.309,15.041 L407.926,15.041 C408.036,21.324 403.6,21.324 402.305,21.324 C399.825,21.324 396.022,21.159 396.022,13.442 L396.022,7.821 C396.022,2.199 398.502,0.601 402.415,0.601 C406.356,0.601 407.872,2.64 407.624,6.498 L405.004,6.498" id="Fill-24" fill="#EBEAE4" sketch:type="MSShapeGroup"></path>
            <path d="M417.6,3.356 L417.543,3.356 L414.43,13.966 L420.795,13.966 L417.6,3.356 L417.6,3.356 Z M416.055,1.014 L419.28,1.014 L425.756,20.911 L422.918,20.911 L421.485,16.171 L413.795,16.171 L412.309,20.911 L409.745,20.911 L416.055,1.014 L416.055,1.014 Z" id="Fill-25" fill="#EBEAE4" sketch:type="MSShapeGroup"></path>
            <path d="M430.358,14.986 L430.358,15.564 C430.358,18.265 432.067,19.12 433.692,19.12 C435.704,19.12 437.247,18.265 437.247,15.895 C437.247,11.486 428.319,11.982 428.319,6.002 C428.319,2.475 430.827,0.601 434.161,0.601 C437.797,0.601 439.838,2.365 439.672,6.415 L437.026,6.415 C437.053,4.238 436.366,2.806 433.967,2.806 C432.452,2.806 430.909,3.577 430.909,5.727 C430.909,10.108 439.838,9.474 439.838,15.785 C439.838,19.973 436.944,21.324 433.665,21.324 C427.795,21.378 427.795,16.887 427.85,14.986 L430.358,14.986" id="Fill-26" fill="#EBEAE4" sketch:type="MSShapeGroup"></path>
            <path d="M443.723,20.911 L443.723,1.014 L453.975,1.014 L453.975,3.219 L446.258,3.219 L446.258,9.612 L453.424,9.612 L453.424,11.817 L446.258,11.817 L446.258,18.705 L454.139,18.705 L454.139,20.911 L443.723,20.911" id="Fill-27" fill="#EBEAE4" sketch:type="MSShapeGroup"></path>
            <path d="M459.458,14.986 L459.458,15.564 C459.458,18.265 461.167,19.12 462.793,19.12 C464.805,19.12 466.348,18.265 466.348,15.895 C466.348,11.486 457.418,11.982 457.418,6.002 C457.418,2.475 459.926,0.601 463.26,0.601 C466.899,0.601 468.938,2.365 468.772,6.415 L466.127,6.415 C466.155,4.238 465.465,2.806 463.069,2.806 C461.553,2.806 460.01,3.577 460.01,5.727 C460.01,10.108 468.938,9.474 468.938,15.785 C468.938,19.973 466.045,21.324 462.766,21.324 C456.895,21.378 456.895,16.887 456.95,14.986 L459.458,14.986" id="Fill-28" fill="#EBEAE4" sketch:type="MSShapeGroup"></path>
            <path d="M58.21,0.344 L58.71,0.344 L58.71,34.94 L58.21,34.94 L58.21,0.344 Z" id="Fill-30" fill="#EBEAE4" sketch:type="MSShapeGroup"></path>
            <path d="M24.232,28.953 L14.307,15.389 L14.307,25.255 L18.254,25.255 L18.254,34.999 L0,34.999 L0,25.255 L3.699,25.255 L3.699,10.086 L0,10.086 L0,0.344 L14.34,0.344 L24.232,14.006 L34.13,0.344 L48.465,0.344 L48.465,10.086 L44.765,10.086 L44.765,25.255 L48.465,25.255 L48.465,34.999 L30.214,34.999 L30.214,25.255 L34.158,25.255 L34.158,15.389 L24.232,28.953" id="Fill-31" fill="#EBBF28" sketch:type="MSShapeGroup"></path>
        </g>
    </g>
</svg>