<svg xmlns="http://www.w3.org/2000/svg" width="43" height="43" viewBox="0 0 43 43">
  <path fill="#FFF" fill-opacity=".8" d="M28.231925,29.4013525 L34.0381262,27.4758769 C36.2246441,26.8520117 37.9522052,27.4148187 39.8942739,29.3550605 C40.377292,29.8376242 40.2453819,30.651618 39.6346843,30.9569418 C37.4440152,32.0521868 35.4667278,33.0776355 33.3407213,34.2104988 C32.6167878,34.5962539 29.5979928,36.2210909 28.8983053,36.5904453 C26.0313569,38.1038639 24.536691,38.7340361 22.9975271,38.9860612 C21.361505,39.2539459 19.8216795,39.0432794 17.4019705,38.2949342 C16.4260205,37.9931015 11.9406264,36.422803 9.3125,35.5208667 L9.3125,36.5625 C9.3125,37.1147847 8.86478475,37.5625 8.3125,37.5625 L1.8125,37.5625 C1.26021525,37.5625 0.8125,37.1147847 0.8125,36.5625 L0.8125,23.5625 C0.8125,23.0102153 1.26021525,22.5625 1.8125,22.5625 L8.3125,22.5625 C8.86478475,22.5625 9.3125,23.0102153 9.3125,23.5625 L9.3125,24.1875 L13.1875,24.1875 C16.3678308,24.1875 18.9074476,25.5458102 20.9061075,27.4375 L25.375,27.4375 C27.0035251,27.4375 27.9558334,28.3426953 28.231925,29.4013525 Z M27.7623937,31.6641224 C27.2806878,32.2670512 26.4848898,32.6875 25.375,32.6875 L16.4375,32.6875 C15.8852153,32.6875 15.4375,32.2397847 15.4375,31.6875 C15.4375,31.1352153 15.8852153,30.6875 16.4375,30.6875 L25.375,30.6875 C26.6302917,30.6875 26.6302917,29.4375 25.375,29.4375 L20.5,29.4375 C20.2347835,29.4375 19.9804296,29.3321432 19.7928932,29.1446068 C18.0890362,27.4407498 15.8879715,26.1875 13.1875,26.1875 L9.3125,26.1875 L9.3125,33.407128 C11.7927162,34.2514039 16.9715936,36.0683668 17.9928967,36.3842259 C20.1432988,37.0492823 21.3993168,37.2211206 22.6743479,37.0123451 C23.9344437,36.8060151 25.2821186,36.2378163 27.96464,34.8217539 C28.655688,34.4569602 31.6696696,32.834714 32.4001957,32.445446 C34.1000966,31.5396372 35.7066205,30.7014878 37.4016465,29.8420263 C36.4655675,29.1918754 35.6548675,29.0941515 34.6273789,29.3866319 L27.7623937,31.6641224 Z M7.3125,35.5625 L7.3125,24.5625 L2.8125,24.5625 L2.8125,35.5625 L7.3125,35.5625 Z M13.0261401,19.409597 C13.2745871,19.902844 13.0761374,20.5041057 12.5828905,20.7525526 C12.0896435,21.0009996 11.4883818,20.8025499 11.2399349,20.309303 C10.2646272,18.3730041 9.7501625,16.2311056 9.7501625,14.01595 C9.7501625,6.28549836 16.0191696,0.01595 23.7501625,0.01595 C31.4800722,0.01595 37.7501625,6.28604025 37.7501625,14.01595 C37.7501625,19.0059977 35.1180206,23.5406264 30.9119978,26.0498605 C30.4377036,26.3328155 29.823832,26.1777044 29.540877,25.7034103 C29.257922,25.2291161 29.4130331,24.6152445 29.8873272,24.3322895 C33.4945649,22.1802793 35.7501625,18.2943575 35.7501625,14.01595 C35.7501625,7.39060975 30.3755028,2.01595 23.7501625,2.01595 C17.1237777,2.01595 11.7501625,7.39002921 11.7501625,14.01595 C11.7501625,15.9169418 12.1906655,17.7509117 13.0261401,19.409597 Z M25.4450375,9.9298625 C25.2512976,9.9298625 25.0699962,9.96530458 24.2463155,10.1552586 C23.8724872,10.2414694 23.6161157,10.2953257 23.3466792,10.3401347 C22.022469,10.5603594 21.001845,10.4210038 20.2165724,9.63798451 C20.1084715,9.53019384 20.027571,9.40023173 19.9782977,9.25876437 C19.943211,9.24995775 19.8898649,9.23866337 19.8132168,9.22773075 C19.4779467,9.17990985 18.9759881,9.20972766 18.2940948,9.34665484 C17.5214374,9.50083087 16.9937582,10.0493715 16.6468446,10.951267 C16.4854737,11.3707943 16.3789652,11.8322901 16.3195393,12.2957716 C16.2840283,12.5727325 16.2725375,12.7818467 16.2725375,12.8851125 C16.2725375,13.0585742 16.3120371,13.3748738 16.4208366,13.665284 C16.5526588,14.0171469 16.69873,14.1471125 16.9674125,14.1471125 C17.1794266,14.1471125 17.3677604,14.1392092 17.7506226,14.1173254 C18.9533818,14.0485775 19.406965,14.06508 20.0031164,14.3288279 C20.8079419,14.6848968 21.2494225,15.4038767 21.3408489,16.426504 C21.4547045,16.552402 21.5792046,16.6970335 21.7048057,16.8538544 C21.8241886,17.0029116 21.9329257,17.1495754 22.0289755,17.2935814 C22.3194462,17.7290793 22.4897875,18.112348 22.4897875,18.5384875 C22.4897875,18.9897012 22.3854123,19.267088 22.0997498,19.8355483 C22.0584,19.9178539 22.0424753,19.9498602 22.0229374,19.9903542 C21.947133,20.1474654 21.9226625,20.2235853 21.9226625,20.2333625 C21.9226625,20.2847781 22.1526536,20.8675237 22.4334508,21.372056 C22.5912837,21.6556478 22.7509195,21.8975114 22.8821112,22.0534563 C23.2622826,22.0401725 23.592716,21.9896566 23.9327352,21.8686953 C24.6464243,21.6148016 25.0121625,21.1569562 25.0121625,20.2333625 C25.0121625,19.802508 25.2881267,19.4200927 25.6970279,19.2843155 C25.7467106,19.2678182 25.8753875,19.2128121 26.0562303,19.1124981 C26.2939594,18.9806292 26.5334118,18.8159376 26.7648803,18.6156836 C26.35047,18.2414218 26.1415375,17.9410735 26.1415375,17.4074875 C26.1415375,16.924302 26.3139576,16.682481 26.8086951,16.1437712 C26.9188419,16.0238346 27.5245115,15.3937431 27.6966019,15.2062462 C28.0564318,14.8142024 28.3176001,14.4891945 28.496296,14.1998795 C28.5104985,14.1768851 28.5239405,14.1547686 28.5366511,14.1334919 C28.4891135,14.1359876 28.4414562,14.1372346 28.3936813,14.1371654 C27.8672003,14.1364035 27.3787271,13.9726407 26.9983057,13.5922193 C26.8700251,13.4639386 26.7790576,13.3031776 26.735147,13.1271557 C26.7204794,13.0683582 26.690714,12.9570155 26.6483398,12.8114783 C26.5777044,12.5688762 26.4991873,12.3269238 26.4163201,12.1056795 C26.3293267,11.873419 26.2436857,11.6817823 26.1696818,11.5525073 C25.7000303,11.3800794 25.3581084,10.9121035 25.526255,10.2915026 C25.5686689,10.1349598 25.6334196,10.0072915 25.7194439,9.89163391 C25.6319991,9.91656756 25.5398935,9.9298625 25.4450375,9.9298625 Z M27.0817935,8.93752325 C28.1050466,8.47269993 29.2530006,8.26376431 30.3646211,8.44128517 C30.8456115,8.12941714 31.259,7.663957 31.6048079,7.07430895 C31.8613862,6.63680908 32.0637212,6.16041335 32.2148836,5.68339593 C32.3045754,5.40035896 32.3557256,5.1871172 32.3749671,5.08145524 C32.4739129,4.53810621 32.9945957,4.17784623 33.5379448,4.27679205 C34.0812938,4.37573787 34.4415538,4.89642073 34.3426079,5.43976976 C34.2178661,6.12477439 33.9094323,7.09808714 33.3300095,8.0860793 C32.7375632,9.09627833 31.9652399,9.89758695 30.9798688,10.3899183 C30.7663647,10.4965936 30.5217474,10.5233892 30.2902128,10.465464 C29.5708041,10.2854825 28.7490179,10.3987502 28.0045308,10.716368 C28.1000935,10.9178034 28.1929618,11.1470807 28.2892549,11.4041705 C28.3763994,11.6368346 28.4570685,11.880094 28.5307304,12.1245247 C28.603955,12.1121868 28.6861501,12.0911422 28.7707883,12.0628213 C28.8625245,12.0321253 28.9299727,12.0031001 28.9531566,11.9914581 C29.3385693,11.7979199 29.8046422,11.8732781 30.1094258,12.1784125 C30.9753183,13.0453014 30.8817671,14.1436467 30.1978887,15.2508705 C29.9402462,15.668003 29.6079184,16.0815645 29.1700554,16.5586273 C29.0154063,16.7271214 28.5949907,17.1659953 28.3884126,17.3834449 C28.6542845,17.6311603 28.7947815,17.8202446 28.9020448,18.1396755 C29.103539,18.7397264 28.9010915,19.3250818 28.4125193,19.8127193 C27.9139644,20.3112741 27.4113751,20.6660782 26.9665216,20.9034394 C26.7621075,22.3459422 25.8843735,23.2971909 24.6030771,23.75301 C23.9186634,23.996489 23.326174,24.0592375 22.6207875,24.0592375 C21.4080322,24.0592375 19.9226625,21.3903471 19.9226625,20.2333625 C19.9226625,19.8473222 20.0251654,19.5284693 20.2216436,19.1212508 C20.2474326,19.0678009 20.2689813,19.0244911 20.3127002,18.9375205 C20.4520772,18.6601643 20.4897875,18.5599457 20.4897875,18.5384875 C20.4897875,18.6193452 20.451046,18.5321768 20.3651196,18.4033487 C20.3038753,18.3115261 20.2290169,18.2105575 20.1437693,18.1041206 C19.9587085,17.8730604 19.7696587,17.6685281 19.6521892,17.5512274 C19.4643418,17.3636499 19.3587875,17.1090781 19.3587875,16.8436125 C19.3587875,16.3248243 19.2962186,16.2030757 19.1939363,16.1578242 C19.0119293,16.0773011 18.7039826,16.0660972 17.8647533,16.1140663 C17.4449288,16.1380628 17.2292765,16.1471125 16.9674125,16.1471125 C15.7530793,16.1471125 14.9457834,15.4288281 14.5479572,14.366941 C14.3389676,13.8091012 14.2725375,13.2771508 14.2725375,12.8851125 C14.2725375,12.1999478 14.3969628,11.2295162 14.7801747,10.2332535 C15.3515728,8.7477497 16.3674985,7.69166024 17.901537,7.38555899 C19.6369741,7.03707365 20.7908732,7.20165885 21.4499381,7.86186137 C21.600245,8.01242782 21.7095624,8.17168253 21.7849659,8.33127785 C22.0272709,8.44983587 22.4199605,8.46678482 23.0185728,8.36723176 C23.2378702,8.33076119 23.4601297,8.28407085 23.7968799,8.20641084 C24.1120955,8.13371704 24.348948,8.07969362 24.5376596,8.03969799 C24.5632484,7.74504136 24.5801679,7.45623598 24.5853625,7.18721241 C24.5887737,7.01055186 24.586676,6.84855433 24.5797788,6.70608976 C23.0992775,7.04978782 21.7795987,6.18669749 21.6251613,4.50091333 C21.4900403,3.06094744 22.7033917,2.14744007 24.7272701,1.37478044 C25.3030774,1.15495345 25.9135304,0.964353956 26.5231304,0.802284053 C26.8890938,0.70498804 27.1764115,0.638116045 27.3474822,0.602549046 C27.888204,0.490128567 28.4176805,0.837335401 28.530101,1.37805722 C28.6425214,1.91877903 28.2953146,2.44825547 27.7545928,2.56067595 C27.6172755,2.58922533 27.3649143,2.64796135 27.0370048,2.73514026 C26.4901499,2.88052857 25.944148,3.05100473 25.4405975,3.24324611 C24.2595781,3.694126 23.6045195,4.18730615 23.6166173,4.31625664 C23.6624414,4.81644992 23.8806238,4.92109944 24.4328374,4.64380373 C25.3638326,4.17897401 26.1463257,4.71148738 26.420785,5.59273724 C26.5544728,6.02198971 26.5977723,6.56383036 26.5849898,7.22582355 C26.577607,7.60816764 26.5509869,8.01145545 26.511271,8.41710002 C26.4830649,8.70518674 26.4546513,8.93408542 26.4349218,9.07173915 C26.4219548,9.16221145 26.3971318,9.24840504 26.3621621,9.32883834 C26.5734606,9.19075518 26.8185058,9.05712441 27.0817935,8.93752325 Z" transform="translate(1 2)"/>
</svg>
