<svg id="Layer_1" data-name="Layer 1" xmlns="http://www.w3.org/2000/svg" viewBox="0 0 94.98 62.22"><defs><style>.cls-1{fill:#35536f;}.cls-2{fill:#71c172;}.cls-3{fill:#6d6e71;}.cls-4{fill:#939598;}.cls-5{fill:#d1d3d4;}.cls-14,.cls-6{fill:#a1c3e1;}.cls-7{fill:#bbd6e9;}.cls-10,.cls-8,.cls-9{fill:none;}.cls-10,.cls-14,.cls-8,.cls-9{stroke:#6b5aa7;stroke-miterlimit:10;stroke-width:0.5px;}.cls-8{stroke-dasharray:7.4;}.cls-9{stroke-dasharray:3.7;}.cls-10{stroke-dasharray:12 12;}.cls-11{fill:#6b5aa7;}.cls-12{fill:#7892a9;}.cls-13{fill:#8faec9;}.cls-15{fill:#ebe9e4;}</style></defs><path class="cls-1" d="M8.54,60.82c-3.11,0-5.62,4.1-5.62,9.18H14.17C14.17,64.92,11.65,60.82,8.54,60.82Z" transform="translate(-2.92 -7.78)"/><ellipse class="cls-1" cx="5.62" cy="50.8" rx="3" ry="3.3"/><path class="cls-2" d="M92,41.32c-3.29,0-6,4.34-6,9.7H97.89C97.9,45.65,95.24,41.32,92,41.32Z" transform="translate(-2.92 -7.78)"/><ellipse class="cls-2" cx="89.04" cy="31.17" rx="3.18" ry="3.48"/><path class="cls-3" d="M70.42,57.06c-3.35,0-6.07,4.35-6.07,9.7H76.49C76.48,61.44,73.77,57.06,70.42,57.06Z" transform="translate(-2.92 -7.78)"/><ellipse class="cls-3" cx="67.5" cy="46.92" rx="3.24" ry="3.48"/><path class="cls-4" d="M56.63,61c-3.15,0-5.71,3.69-5.71,8.26H62.33C62.33,64.68,59.77,61,56.63,61Z" transform="translate(-2.92 -7.78)"/><ellipse class="cls-4" cx="53.7" cy="51.21" rx="3.04" ry="2.96"/><rect class="cls-5" x="12.85" y="33.72" width="23.38" height="25.18"/><rect class="cls-6" x="13.85" y="32.72" width="23.38" height="25.18"/><rect class="cls-7" x="17" y="37.34" width="13.5" height="4.79"/><rect class="cls-7" x="17" y="42.85" width="13.5" height="4.79"/><rect class="cls-7" x="17" y="48.37" width="13.5" height="4.79"/><rect class="cls-7" x="17" y="36.31" width="6.97" height="0.35"/><line class="cls-8" x1="18.32" y1="50.2" x2="25.71" y2="50.2"/><line class="cls-9" x1="25.16" y1="40.53" x2="28.86" y2="40.53"/><path class="cls-10" d="M34.33,58.22c.3-.13,2.93-1.36,3.31-3.89A4.94,4.94,0,0,0,35,49.47" transform="translate(-2.92 -7.78)"/><polygon class="cls-11" points="34.26 41.04 34.32 41.48 32.16 41.81 32.65 43.95 32.21 44.05 31.61 41.45 34.26 41.04"/><path class="cls-11" d="M26.22,49.3" transform="translate(-2.92 -7.78)"/><rect class="cls-5" x="39.65" y="16.91" width="23.38" height="25.18"/><rect class="cls-12" x="40.65" y="15.91" width="23.38" height="25.18"/><rect class="cls-13" x="43.8" y="21.54" width="13.5" height="4.79"/><rect class="cls-13" x="43.8" y="27.05" width="13.5" height="4.79"/><rect class="cls-13" x="43.8" y="32.57" width="13.5" height="4.79"/><rect class="cls-13" x="43.8" y="19.5" width="6.97" height="1.35"/><line class="cls-8" x1="45.33" y1="23.18" x2="52.72" y2="23.18"/><line class="cls-9" x1="51.86" y1="35.46" x2="55.56" y2="35.46"/><path class="cls-14" d="M62.89,35.53h1.34a1.18,1.18,0,0,1,1.19,1.18h0a1.18,1.18,0,0,1-1.19,1.18H62.89a1.18,1.18,0,0,1-1.19-1.18h0A1.19,1.19,0,0,1,62.89,35.53Z" transform="translate(-2.92 -7.78)"/><path class="cls-14" d="M62.89,41.29h1.34a1.18,1.18,0,0,1,1.19,1.18h0a1.18,1.18,0,0,1-1.19,1.18H62.89a1.18,1.18,0,0,1-1.19-1.18h0A1.19,1.19,0,0,1,62.89,41.29Z" transform="translate(-2.92 -7.78)"/><rect class="cls-5" x="66.72" y="1.02" width="23.38" height="25.18"/><rect class="cls-1" x="67.5" width="23.38" height="25.18"/><rect class="cls-15" x="70.61" y="5.32" width="13.5" height="4.79"/><rect class="cls-15" x="70.61" y="10.83" width="13.5" height="4.79"/><rect class="cls-15" x="70.61" y="16.35" width="13.5" height="4.79"/><rect class="cls-15" x="70.61" y="3.24" width="6.97" height="1.35"/><path class="cls-6" d="M90,19h1.34a1.18,1.18,0,0,1,1.19,1.18h0a1.18,1.18,0,0,1-1.19,1.18H90a1.18,1.18,0,0,1-1.19-1.18h0A1.19,1.19,0,0,1,90,19Z" transform="translate(-2.92 -7.78)"/><path class="cls-6" d="M90,24.54h1.34a1.18,1.18,0,0,1,1.19,1.18h0a1.18,1.18,0,0,1-1.19,1.18H90a1.18,1.18,0,0,1-1.19-1.18h0A1.19,1.19,0,0,1,90,24.54Z" transform="translate(-2.92 -7.78)"/><rect class="cls-2" x="72.54" y="6.73" width="6.35" height="0.27"/><rect class="cls-2" x="79.74" y="19.02" width="3.35" height="0.27"/></svg>