<?xml version="1.0" encoding="utf-8"?>
<!-- Generator: Adobe Illustrator 24.0.3, SVG Export Plug-In . SVG Version: 6.00 Build 0)  -->
<svg version="1.1" id="Layer_1" xmlns="http://www.w3.org/2000/svg" xmlns:xlink="http://www.w3.org/1999/xlink" x="0px" y="0px"
	 viewBox="0 0 100 75" style="enable-background:new 0 0 100 75;" xml:space="preserve">
<style type="text/css">
	.st0{fill:#6D6E71;}
	.st1{fill:#35536F;}
	.st2{fill:#EBE9E4;}
	.st3{fill:#A1C3E1;}
	.st4{fill:#71C172;}
	.st5{fill:#BE1E2D;}
	.st6{fill:#939598;}
	.st7{fill:#A2C3E1;stroke:#6D6E71;stroke-width:0.75;stroke-miterlimit:10;}
	.st8{fill:#365470;}
	.st9{fill:#EAE9E4;}
	.st10{fill:#A2C3E1;}
	.st11{fill:#72C272;}
	.st12{fill:none;stroke:#6B5BA7;stroke-width:0.75;stroke-miterlimit:10;}
	.st13{fill:none;stroke:#6D6E71;stroke-width:0.75;stroke-miterlimit:10;}
	.st14{fill:#A7A9AC;}
</style>
<rect x="72.12" y="45.47" class="st0" width="19.12" height="11.3"/>
<rect x="68.24" y="22.78" class="st0" width="21.08" height="12.46"/>
<rect x="37.2" y="13.03" class="st0" width="21.72" height="13"/>
<rect x="157.19" y="11.49" class="st1" width="63" height="85"/>
<rect x="165.56" y="29.42" class="st2" width="36.36" height="16.17"/>
<rect x="165.56" y="48.05" class="st2" width="36.36" height="16.17"/>
<rect x="165.56" y="66.67" class="st2" width="36.36" height="16.17"/>
<rect x="165.56" y="22.41" class="st2" width="18.79" height="4.55"/>
<path class="st3" d="M215,37.42h-5.88c-1.14,0-2.07-0.93-2.07-2.07v-3.86c0-1.14,0.93-2.07,2.07-2.07H215
	c1.14,0,2.07,0.93,2.07,2.07v3.86C217.07,36.5,216.14,37.42,215,37.42z"/>
<path class="st3" d="M215,56.05h-5.88c-1.14,0-2.07-0.93-2.07-2.07v-3.86c0-1.14,0.93-2.07,2.07-2.07H215
	c1.14,0,2.07,0.93,2.07,2.07v3.86C217.07,55.13,216.14,56.05,215,56.05z"/>
<rect x="170.76" y="34.19" class="st4" width="17.12" height="0.93"/>
<rect x="182.38" y="57.26" class="st4" width="9.03" height="0.93"/>
<g>
	<rect x="36.16" y="12.42" class="st3" width="22" height="13"/>
	<polygon class="st5" points="50.61,18.93 45.58,16.18 45.58,21.67 	"/>
</g>
<rect x="67.4" y="22.24" class="st3" width="21.08" height="12.46"/>
<path class="st6" d="M85.01,31.29c0.17-0.32,0.32-0.66,0.57-0.92c0.34-0.34,0.87-0.52,1.04-0.97c0.14-0.36,0.04-0.84,0.33-1.09
	c0.12-0.1,0.29-0.13,0.44-0.18c0.43-0.14,0.8-0.44,1.03-0.83c0.04,0.08,0.06,0.17,0.1,0.25v5.77c0,0-5.13,0-5.13,0
	c-0.12-0.38,0.52-0.62,0.76-0.86C84.49,32.11,84.78,31.71,85.01,31.29z"/>
<path class="st4" d="M67.42,33.41c2.49-0.06,4.99-0.12,7.48-0.19c0.62-0.02,1.24-0.03,1.87-0.02c0.97,0.02,1.94,0.12,2.91,0.1
	c0.85-0.02,1.7-0.14,2.56-0.2c1.22-0.08,2.45-0.03,3.68,0.02c0.86,0.04,1.71,0.07,2.57,0.11v1.46l0.05,0H67.4L67.42,33.41z"/>
<rect x="8.63" y="38.13" class="st7" width="44.67" height="28.27"/>
<rect x="11.19" y="39.6" class="st8" width="39.43" height="26.3"/>
<rect x="20.52" y="44.9" class="st9" width="16.43" height="6.11"/>
<rect x="20.52" y="51.94" class="st9" width="16.43" height="6.11"/>
<rect x="20.52" y="58.98" class="st9" width="16.43" height="6.11"/>
<rect x="20.52" y="42.25" class="st9" width="8.49" height="1.72"/>
<path class="st10" d="M40.66,44.9h1.73c0.77,0,1.4,0.63,1.4,1.4v0.22c0,0.77-0.63,1.4-1.4,1.4h-1.73c-0.77,0-1.4-0.63-1.4-1.4V46.3
	C39.26,45.53,39.88,44.9,40.66,44.9z"/>
<path class="st10" d="M40.66,51.94h1.73c0.77,0,1.4,0.63,1.4,1.4v0.22c0,0.77-0.63,1.4-1.4,1.4h-1.73c-0.77,0-1.4-0.63-1.4-1.4
	v-0.22C39.26,52.57,39.88,51.94,40.66,51.94z"/>
<rect x="22.86" y="46.71" class="st11" width="7.74" height="0.35"/>
<rect x="28.12" y="55.42" class="st11" width="4.08" height="0.35"/>
<polygon class="st0" points="59.02,71.58 2.37,71.58 8.24,66.4 53.67,66.4 "/>
<polygon class="st0" points="168.17,-13.88 111.28,-13.88 117.17,-24.07 162.79,-24.07 "/>
<g>
	<rect x="71.4" y="44.9" class="st3" width="19.12" height="11.3"/>
	<polyline class="st12" points="76.02,53.19 79.02,49.05 81.42,51.45 83.22,50.42 86.3,53.18 	"/>
	<polyline class="st13" points="74.89,47.34 74.89,53.76 87.52,53.76 	"/>
</g>
<polygon class="st14" points="4.21,70.94 8.72,66.94 52.98,66.87 57.3,70.94 "/>
<g>
	<ellipse class="st0" cx="77.94" cy="27.53" rx="1.9" ry="2.07"/>
	<g>
		<path class="st0" d="M77.94,28.93c-1.97,0-3.56,2.58-3.56,5.76h7.13C81.5,31.51,79.91,28.93,77.94,28.93z"/>
	</g>
</g>
</svg>
