<svg width="469" height="35" viewBox="0 0 469 35" xmlns="http://www.w3.org/2000/svg"><g fill="none" fill-rule="evenodd"><path d="M102.918 31.788c.01 1.463.01 1.663.777 1.68v.354h-2.666v-.354c.686-.054.758-.164.768-.849.008-.264.008-.561.008-.821v-2.31c0-.766-.008-1.037-.035-1.244-.047-.354-.219-.418-.741-.463v-.342l2.891.01c1.574 0 2.07.75 2.07 1.634 0 .618-.379 1.417-1.258 1.686l1.131 1.967c.408.752.625.924 1.141.996v.215c-.137.01-.274.017-.418.017-1.203 0-1.699-.414-2.205-1.49l-.354-.75c-.379-.805-.504-.754-1.109-.766v.83zm0-1.39c.17.035.414.064.596.064.724.004 1.273-.566 1.3-1.078.041-.738-.334-1.381-1.507-1.381-.164 0-.264.008-.389.036v2.359zm81.55.648v.344c-.578.033-.578.199-.596 1.41v.479c-.492.308-1.203.75-2.455.75-2.197 0-3.246-1.664-3.246-3.336 0-2.043 1.381-3.373 3.117-3.373 1.09 0 1.717.408 2.236.724l.334-.378.049 1.996-.26.046a3.199 3.199 0 0 0-.806-1.298c-.213-.207-.619-.475-1.264-.475-1.113 0-2.039.94-2.039 2.775 0 1.467.725 2.723 1.965 2.723.713 0 1.076-.496 1.111-.535.114-.172.141-.324.129-.604-.029-.814-.139-.832-.846-.904v-.344h2.571zm-84.515 2.776c0-.461.08-1.219.135-1.655h-.307c-.218 1.141-.859 1.084-1.781 1.084-.85 0-1.02-.226-1.02-.642v-1.783h.686c.785 0 1.012.068 1.012.781h.306v-2.106h-.306c-.063.567-.18.756-1.002.756h-.696v-2.25h.784c1.086 0 1.474.08 1.621.948h.289l-.039-1.516H95.09v.342c.459.047.658.074.723.375.044.197.05.898.05 1.152v2.244c0 .172-.006.94-.013 1.094-.018.695-.102.762-.76.822v.354h4.863zm24.787 0v-.346c.5-.051.69-.068.815-.197.146-.143.146-.305.152-1.002v-1.121l-1.693-2.631c-.463-.688-.471-.705-1.084-.74v-.354h3.32v.354c-.668.017-.967.035-.967.341 0 .172.117.372.281.643l.975 1.598.902-1.59c.163-.319.254-.504.254-.651 0-.306-.261-.314-.707-.341v-.354h2.492v.354c-.642.017-.83.207-1.558 1.398l-.994 1.664v1.33c0 1.156.006 1.248.955 1.299v.346h-3.143zm-30.254-6.383v.346c-.613.09-.699.259-1.222 1.527l-1.944 4.635h-.343l-1.744-4.707c-.433-1.213-.49-1.356-1.13-1.455v-.346h3.028v.346c-.516.017-.85.035-.85.406 0 .18.045.334.219.867l1.111 3.246 1.301-3.355c.08-.225.19-.516.19-.676 0-.461-.452-.482-.85-.488v-.346h2.234zm-22.625 0v.346c-.848.06-.848.09-.858 1.445v1.498c0 .781.016 1.449.426 2.047.327.475.883.535 1.161.535.913 0 1.416-.473 1.634-1.227.179-.593.187-1.714.187-2.457 0-.234 0-.996-.008-1.199-.036-.582-.335-.599-.904-.642v-.346h2.431v.346c-.596-.012-.723.123-.758.759-.011.151-.083 1.924-.091 2.196-.019.484-.047.967-.153 1.427-.434 1.717-2.107 1.809-2.549 1.809-.353 0-1.076-.055-1.673-.453-.949-.643-.959-1.6-.959-2.629v-1.447c-.008-.688-.008-.996-.027-1.159-.054-.398-.252-.476-.732-.503v-.346h2.873zm45.987 6.383v-.272c.586-.009.75-.224.75-.73v-4.703h-.795c-.721 0-1.199-.03-1.256 1.111h-.332l.053-1.789h5.796l.053 1.789h-.336c-.052-1.141-.531-1.111-1.254-1.111h-.793v4.703c0 .506.162.721.748.73v.272h-2.634zm-10.493-1.989l.327-.035c.351 1.039.937 1.598 1.896 1.598.678 0 1.276-.289 1.276-.977 0-.724-.696-1.009-1.004-1.136-.254-.102-.524-.184-.778-.283-.523-.19-1.509-.594-1.509-1.834 0-1.192.939-1.864 2.033-1.864.425 0 .922.092 1.467.438l.386-.28.209 1.895-.318.062c-.11-.416-.192-.607-.442-.943-.306-.398-.74-.584-1.248-.584-.677 0-1.074.326-1.074.834 0 .758.75 1.014 1.463 1.244.363.121.66.221.92.371.506.301.924.86.924 1.627 0 1.106-.906 2.018-2.25 2.018a2.857 2.857 0 0 1-1.653-.508l-.531-.385-.094-1.258zm-30.61 1.989v-.346c.524-.025.723-.035.796-.396.091-.426.116-4.211.125-4.872-.353-.324-.497-.388-.921-.423v-.346h1.916c.533.76.65.932 1.59 2.098l1.781 2.205v-2.856c-.008-1.011-.035-1.066-1.049-1.101v-.346h2.512v.346c-.695.006-.757.152-.765 1.191l-.092 4.928h-.379l-.569-.715c-.291-.363-.579-.723-.869-1.076L78.3 29.001v3.311c0 1.029.072 1.066 1.049 1.164v.346h-2.604zm35.886 0v-.346c.621-.08.75-.15.756-.822v-3.397c-.006-1.33-.006-1.367-.756-1.472v-.346h2.646v.346c-.752.072-.752.105-.752 1.472v2.576c0 .225.01.942.03 1.129.045.389.224.479.722.514v.346h-2.646zm-28.116 0v-.346c.625-.08.75-.15.759-.822v-3.397c-.009-1.33-.009-1.367-.759-1.472v-.346h2.65v.346c-.749.072-.749.105-.749 1.472v2.576c0 .225.007.942.027 1.129.044.389.226.479.722.514v.346h-2.65zm54.856-.309v.352h2.643v-.352c-.66-.062-.743-.125-.762-.822l.006-1.82h.707c.713 0 1.092.068 1.137.781h.308v-2.106h-.308c-.036.688-.225.756-1.002.756h-.842v-2.211c.228-.029.353-.035.76-.035 1.25 0 1.65-.006 1.82.992h.314l-.101-1.562h-4.68v.342c.459.047.66.074.725.371.043.199.052.902.052 1.156v2.24c0 .174-.011.944-.021 1.096-.018.697-.096.76-.756.822zm-3.83-.072c.363-.01.871-.19 1.266-.789.449-.692.543-1.328.517-2.16-.027-.821-.256-1.528-.724-2.03-.205-.218-.608-.541-1.143-.525-.531 0-.926.336-1.125.561-.453.513-.66 1.228-.66 2.05 0 .832.111 1.465.582 2.143.414.588.926.75 1.287.75zm3.189-2.774c0 2.208-1.503 3.364-3.195 3.364-1.857 0-3.306-1.34-3.306-3.373 0-1.742 1.169-3.319 3.218-3.309 1.934.008 3.283 1.381 3.283 3.318zm53.24 3.198v-.342c.525-.029.724-.035.797-.399.089-.423.117-4.208.125-4.871-.354-.326-.496-.39-.922-.425v-.342h1.918c.533.76.648.93 1.59 2.096l1.781 2.205v-2.858c-.008-1.01-.035-1.066-1.049-1.101v-.342h2.516v.342c-.7.009-.76.154-.768 1.193l-.092 4.926h-.383l-.568-.713c-.287-.359-.578-.725-.867-1.076l-2.522-3.11v3.307c0 1.033.071 1.07 1.049 1.168v.342h-2.605zm-39.435 0v-.342c.803-.055.803-.09.813-1.273v-3.209l-2.233 4.906h-.56l-2.051-4.973-.047 3.752c0 .625.074.742.752.797v.342h-2.215v-.342c.514-.029.717-.098.748-.531.02-.172.047-.709.055-1.061l.092-2.674c.007-.209.007-.515.007-.742 0-.631-.125-.678-.695-.687v-.342h2.008l1.988 4.846 2.188-4.846h1.943v.377c-.76.045-.767.129-.76 1.121v2.631c0 .437.008.976.036 1.302.037.471.218.559.724.606v.342h-2.793zm4.02 0v-.342c.625-.082.75-.154.759-.822V29.3c-.009-1.326-.009-1.363-.759-1.472v-.342h2.648v.342c-.75.074-.75.109-.75 1.472v2.578c0 .227.012.942.029 1.129.043.389.225.481.721.516v.342h-2.648zm18.178 0v-.342c.625-.082.75-.154.76-.822V29.3c-.01-1.326-.01-1.363-.76-1.472v-.342h2.655v.342c-.75.074-.75.109-.75 1.472v2.578c0 .227.008.942.025 1.129.045.389.227.481.725.516v.342h-2.655zm-7.874 0v-.342c.725-.063.733-.219.733-.832.01-.225.01-.453.01-.678v-2.676c0-.416 0-.832-.03-1.031-.035-.379-.217-.431-.713-.478v-.342h2.735v.342c-.535.056-.735.074-.797.425-.047.205-.053.676-.053 1.059v.879a25.196 25.196 0 0 0 2.983 0v-1.07c-.01-1.164-.018-1.213-.887-1.293v-.342h2.766v.342c-.741.091-.741.099-.741 1.312v2.693c0 .25.008 1.057.037 1.247.045.334.235.396.704.443v.342h-2.766v-.342c.64-.072.812-.09.869-.531.018-.184.018-.426.018-.887v-1.172c-.506-.017-.928-.045-1.454-.045-.55 0-.98.018-1.529.045v1.172c.006 1.328.026 1.328.85 1.418v.342h-2.735zm-1.074-1.416c-.283.459-.961 1.59-2.722 1.59-1.922 0-3.167-1.418-3.167-3.282 0-1.726 1.055-3.425 3.209-3.425 1.135 0 1.737.476 2.108.767l.433-.396.036 1.935-.284.053c-.111-.371-.273-.67-.689-1.121-.195-.207-.666-.625-1.334-.625-1.154 0-2.062.941-2.062 2.597 0 1.399.748 2.719 2.222 2.719 1.115 0 1.537-.623 1.869-1.101l.381.289zm22.214-3.703l-.937 2.644h1.835l-.898-2.644zm.574 5.119v-.342c.434-.029.768-.063.768-.416 0-.127-.039-.262-.074-.381l-.19-.648h-2.248l-.199.548c-.043.139-.082.264-.082.399 0 .451.478.48.867.498v.342h-2.629v-.342c.67-.029.887-.162 1.131-.832l1.727-4.734-.1-.155c.738-.242.947-.353 1.266-.588.125.432.142.489.285.942l1.414 4.336c.252.769.371.959 1.045 1.031v.342h-2.981zM73.027 20.911h-2.37V1.014h4.106l5.016 16.699h.055l5.07-16.699h4.189v19.897h-2.535V3.219h-.056l-5.566 17.692h-2.397L73.082 3.219h-.055v17.692M93.915 1.014h2.535V20.91h-2.535V1.014zM110.009 6.498c.027-1.13-.055-2.26-.579-2.894-.524-.633-1.709-.854-2.232-.854-2.094 0-2.921 1.268-3.004 1.543-.083.221-.579.717-.579 4.134v5.319c0 4.878 1.598 5.456 3.555 5.456.772 0 3.114-.276 3.142-4.161h2.618c.11 6.283-4.327 6.283-5.622 6.283-2.48 0-6.283-.165-6.283-7.882V7.821c0-5.622 2.48-7.22 6.393-7.22 3.941 0 5.457 2.039 5.208 5.897h-2.617M116.732 20.911V1.014h2.536v8.598h6.972V1.014h2.535v19.897h-2.535v-9.094h-6.972v9.094h-2.536M133.735 1.014h2.536V20.91h-2.536V1.014zM150.6 6.333c0-2.343-.964-3.61-3.527-3.61-.8 0-3.665.137-3.665 4.299v6.724c0 4.353 1.267 5.456 3.665 5.456 1.819 0 3.031-.497 3.554-.882v-5.952h-3.665v-2.205h6.201v9.672c-1.626.882-3.527 1.489-6.09 1.489-4.217 0-6.256-2.177-6.256-7.689V7.104c0-3.968 2.039-6.503 6.256-6.503 4.299 0 6.338 1.57 6.173 5.732H150.6M163.938 3.356h-.056l-3.113 10.61h6.365l-3.196-10.61zm-1.543-2.342h3.224l6.476 19.897h-2.839l-1.433-4.74h-7.688l-1.489 4.74h-2.562l6.311-19.897zM188.519 1.014v19.897h-3.473L177.192 3.66h-.054v17.251h-2.26V1.014h3.582l7.744 17.03h.055V1.014h2.26M201.194 14.986v.578c0 2.701 1.709 3.556 3.334 3.556 2.012 0 3.555-.855 3.555-3.225 0-4.409-8.928-3.913-8.928-9.893 0-3.527 2.508-5.401 5.842-5.401 3.638 0 5.677 1.764 5.511 5.814h-2.645c.028-2.177-.661-3.609-3.059-3.609-1.515 0-3.059.771-3.059 2.921 0 4.381 8.929 3.747 8.929 10.058 0 4.188-2.894 5.539-6.173 5.539-5.87.054-5.87-4.437-5.814-6.338h2.507M214.477 1.014h2.535v12.732c0 4.353 1.322 5.456 3.72 5.456s3.72-1.103 3.72-5.456V1.014h2.536v12.621c0 5.512-2.04 7.689-6.256 7.689s-6.255-2.177-6.255-7.689V1.014M233.354 14.986v.578c0 2.701 1.708 3.556 3.334 3.556 2.011 0 3.555-.855 3.555-3.225 0-4.409-8.929-3.913-8.929-9.893 0-3.527 2.508-5.401 5.842-5.401 3.638 0 5.677 1.764 5.511 5.814h-2.645c.028-2.177-.661-3.609-3.059-3.609-1.515 0-3.059.771-3.059 2.921 0 4.381 8.929 3.747 8.929 10.058 0 4.188-2.894 5.539-6.173 5.539-5.869.054-5.869-4.437-5.814-6.338h2.508M257.879 1.014v2.205h-5.235v17.692h-2.537V3.219h-5.235V1.014h13.007M264.493 3.356h-.055l-3.114 10.61h6.365l-3.196-10.61zm-1.543-2.342h3.224l6.476 19.897h-2.838l-1.433-4.74h-7.689l-1.488 4.74h-2.562l6.31-19.897zM275.626 1.014h2.535V20.91h-2.535V1.014zM296.734 1.014v19.897h-3.471L285.408 3.66h-.054v17.251h-2.26V1.014h3.583l7.743 17.03h.055V1.014h2.259M307.372 3.356h-.056l-3.114 10.61h6.366l-3.196-10.61zm-1.544-2.342h3.225l6.475 19.897h-2.838l-1.433-4.74h-7.689l-1.487 4.74h-2.563l6.31-19.897zM320.957 18.705h3.582c2.701 0 3.665-1.928 3.665-3.389 0-3.169-1.956-3.72-4.547-3.72h-2.7v7.109zm0-9.313h3.692c1.985-.028 2.95-1.241 2.95-3.169 0-1.654-.938-3.004-3.06-3.004h-3.582v6.173zm-2.535 11.519V1.014h6.475c2.756 0 3.693.937 4.437 2.039.689 1.075.8 2.26.8 2.646 0 2.48-.855 4.133-3.417 4.712v.138c2.838.331 4.078 2.039 4.078 4.767 0 5.099-3.721 5.595-5.981 5.595h-6.392zM335.342 1.014h2.535V20.91h-2.535V1.014zM342.672 20.911V1.014h2.535v17.691h7.303v2.206h-9.838M355.237 1.014h2.535V20.91h-2.535V1.014zM373.729 1.014v2.205h-5.236v17.692h-2.535V3.219h-5.236V1.014h13.007M385.083 1.014h2.562l-5.43 12.319v7.578h-2.535v-7.578l-5.346-12.319h2.838l3.887 9.618 4.024-9.618M405.004 6.498c.03-1.13-.054-2.26-.578-2.894-.523-.633-1.709-.854-2.232-.854-2.094 0-2.92 1.268-3.004 1.543-.082.221-.578.717-.578 4.134v5.319c0 4.878 1.597 5.456 3.555 5.456.771 0 3.113-.276 3.142-4.161h2.617c.11 6.283-4.326 6.283-5.621 6.283-2.48 0-6.283-.165-6.283-7.882V7.821c0-5.622 2.48-7.22 6.393-7.22 3.941 0 5.457 2.039 5.209 5.897h-2.62M417.6 3.356h-.057l-3.113 10.61h6.365L417.6 3.356zm-1.545-2.342h3.225l6.476 19.897h-2.838l-1.433-4.74h-7.69l-1.486 4.74h-2.564l6.31-19.897zM430.358 14.986v.578c0 2.701 1.709 3.556 3.334 3.556 2.012 0 3.555-.855 3.555-3.225 0-4.409-8.928-3.913-8.928-9.893 0-3.527 2.508-5.401 5.842-5.401 3.636 0 5.677 1.764 5.511 5.814h-2.646c.027-2.177-.66-3.609-3.059-3.609-1.515 0-3.058.771-3.058 2.921 0 4.381 8.929 3.747 8.929 10.058 0 4.188-2.894 5.539-6.173 5.539-5.87.054-5.87-4.437-5.815-6.338h2.508M443.723 20.911V1.014h10.252v2.205h-7.717v6.393h7.166v2.205h-7.166v6.888h7.881v2.206h-10.416M459.458 14.986v.578c0 2.701 1.709 3.556 3.335 3.556 2.012 0 3.555-.855 3.555-3.225 0-4.409-8.93-3.913-8.93-9.893 0-3.527 2.508-5.401 5.842-5.401 3.639 0 5.678 1.764 5.512 5.814h-2.645c.028-2.177-.662-3.609-3.058-3.609-1.516 0-3.059.771-3.059 2.921 0 4.381 8.928 3.747 8.928 10.058 0 4.188-2.893 5.539-6.172 5.539-5.871.054-5.871-4.437-5.816-6.338h2.508M58.21.344h.5V34.94h-.5V.344z" fill="#EBEAE4"/><path d="M24.232 28.953l-9.925-13.564v9.866h3.947v9.744H0v-9.744h3.699V10.086H0V.344h14.34l9.892 13.662L34.13.344h14.335v9.742h-3.7v15.169h3.7v9.744H30.214v-9.744h3.944v-9.866l-9.926 13.564" fill="#EBBF28"/></g></svg>