<?xml version="1.0" encoding="utf-8"?>
<!-- Generator: Adobe Illustrator 24.0.3, SVG Export Plug-In . SVG Version: 6.00 Build 0)  -->
<svg version="1.1" id="Layer_1" xmlns="http://www.w3.org/2000/svg" xmlns:xlink="http://www.w3.org/1999/xlink" x="0px" y="0px"
	 viewBox="0 0 100 75" style="enable-background:new 0 0 100 75;" xml:space="preserve">
<style type="text/css">
	.st0{fill:#A1C3E1;stroke:#58595B;stroke-miterlimit:10;}
	.st1{fill:#35536F;}
	.st2{fill:#EBE9E4;}
	.st3{fill:#A1C3E1;}
	.st4{fill:#71C172;}
	.st5{fill:#58595B;}
	.st6{fill:#BCBEC0;}
	.st7{fill:#7892A9;}
	.st8{fill:#6B5AA7;}
	.st9{fill:none;stroke:#6D6E71;stroke-width:0.75;stroke-miterlimit:10;}
</style>
<rect x="-66.9" y="-6.7" class="st0" width="44.7" height="28.3"/>
<rect x="-58.8" y="-5.2" class="st1" width="28.5" height="26.3"/>
<rect x="-55" y="0.1" class="st2" width="16.4" height="6.1"/>
<rect x="-55" y="7.1" class="st2" width="16.4" height="6.1"/>
<rect x="-55" y="14.2" class="st2" width="16.4" height="6.1"/>
<rect x="-55" y="-2.6" class="st2" width="8.5" height="1.7"/>
<path class="st3" d="M-34.8,0.1h1.7c0.8,0,1.4,0.6,1.4,1.4v0.2c0,0.8-0.6,1.4-1.4,1.4h-1.7c-0.8,0-1.4-0.6-1.4-1.4V1.5
	C-36.2,0.7-35.6,0.1-34.8,0.1z"/>
<path class="st3" d="M-34.8,7.1h1.7c0.8,0,1.4,0.6,1.4,1.4v0.2c0,0.8-0.6,1.4-1.4,1.4h-1.7c-0.8,0-1.4-0.6-1.4-1.4V8.5
	C-36.2,7.7-35.6,7.1-34.8,7.1z"/>
<rect x="-52.6" y="1.9" class="st4" width="7.7" height="0.3"/>
<rect x="-47.4" y="10.6" class="st4" width="4.1" height="0.3"/>
<polygon class="st5" points="-16.3,26.8 -73.2,26.8 -67.3,21.6 -21.7,21.6 "/>
<polygon class="st6" points="-22.8,25.9 -71.4,25.9 -66.4,21.9 -27.4,21.9 "/>
<g>
	<polygon class="st5" points="100.3,36.6 44.9,27.7 45.1,0.2 100.4,9.1 	"/>
	<path class="st7" d="M52.9,26.3c-3.8,0-6.8,5.9-6.8,13.3h13.6C59.8,32.3,56.7,26.3,52.9,26.3z"/>
	<ellipse class="st7" cx="52.8" cy="23.2" rx="3.7" ry="4.4"/>
	<ellipse class="st8" cx="85.6" cy="39" rx="2.3" ry="2.8"/>
	<path class="st8" d="M85.6,41.1c-1.8,0-3.2,2.9-3.2,6.5h6.4C88.8,44,87.4,41.1,85.6,41.1z"/>
	<ellipse class="st8" cx="78" cy="39.9" rx="2.2" ry="2.7"/>
	<path class="st8" d="M78,41.9c-1.7,0-3,2.8-3,6.2H81C81,44.7,79.6,41.9,78,41.9z"/>
	<ellipse class="st8" cx="69.6" cy="38" rx="2.3" ry="2.8"/>
	<path class="st8" d="M69.6,40c-1.8,0-3.2,2.9-3.2,6.5h6.4C72.8,42.9,71.4,40,69.6,40z"/>
</g>
<path class="st5" d="M32.9,70.5H8.4c-2.1,0-3.8-1.7-3.8-3.8V30.3c0-2.1,1.7-3.8,3.8-3.8h24.4c2.1,0,3.8,1.7,3.8,3.8v36.4
	C36.6,68.8,35,70.5,32.9,70.5z"/>
<circle class="st6" cx="20.6" cy="67.5" r="1"/>
<path class="st9" d="M35.6,30"/>
<path class="st9" d="M5.6,30"/>
<path class="st6" d="M25.3,27.9H17c-0.2,0-0.4,0.2-0.4,0.4v0c0,0.2,0.2,0.4,0.4,0.4h8.3c0.2,0,0.4-0.2,0.4-0.4v0
	C25.6,28.1,25.5,27.9,25.3,27.9z"/>
<rect x="5.6" y="30.5" class="st3" width="30" height="35"/>
<rect x="6.6" y="31.5" class="st1" width="28" height="34"/>
<rect x="10.2" y="38" class="st2" width="16" height="7"/>
<rect x="10.2" y="46" class="st2" width="16" height="7"/>
<rect x="10.2" y="54" class="st2" width="16" height="7"/>
<rect x="10.2" y="35" class="st2" width="8" height="2"/>
<rect x="17.2" y="49" class="st4" width="4" height="0.5"/>
<path class="st3" d="M29,38h1.7c0.8,0,1.4,0.6,1.4,1.4v0.2c0,0.8-0.6,1.4-1.4,1.4H29c-0.8,0-1.4-0.6-1.4-1.4v-0.2
	C27.6,38.6,28.2,38,29,38z"/>
<path class="st3" d="M29,46h1.7c0.8,0,1.4,0.6,1.4,1.4v0.2c0,0.8-0.6,1.4-1.4,1.4H29c-0.8,0-1.4-0.6-1.4-1.4v-0.2
	C27.6,46.6,28.2,46,29,46z"/>
<rect x="12.2" y="39.8" class="st4" width="8" height="0.5"/>
</svg>
