<svg xmlns="http://www.w3.org/2000/svg" width="16" height="16" viewBox="0 0 17 24">
  <g fill="currentColor" fill-rule="evenodd">
    <path d="M15,7.4995 C15,7.7755 14.776,8.0005 14.5,8.0005 L2.5,8.0005 C2.224,8.0005 2,7.7755 2,7.4995 L2,2.4995 C2,2.2235 2.224,1.9995 2.5,1.9995 L14.5,1.9995 C14.776,1.9995 15,2.2235 15,2.4995 L15,7.4995 Z M13.5,12.0005 L12.5,12.0005 C12.224,12.0005 12,11.7755 12,11.5005 C12,11.2235 12.224,11.0005 12.5,11.0005 L13.5,11.0005 C13.776,11.0005 14,11.2235 14,11.5005 C14,11.7755 13.776,12.0005 13.5,12.0005 L13.5,12.0005 Z M13.5,15.0005 L12.5,15.0005 C12.224,15.0005 12,14.7755 12,14.5005 C12,14.2235 12.224,14.0005 12.5,14.0005 L13.5,14.0005 C13.776,14.0005 14,14.2235 14,14.5005 C14,14.7755 13.776,15.0005 13.5,15.0005 L13.5,15.0005 Z M13.5,18.0005 L12.5,18.0005 C12.224,18.0005 12,17.7755 12,17.5005 C12,17.2235 12.224,17.0005 12.5,17.0005 L13.5,17.0005 C13.776,17.0005 14,17.2235 14,17.5005 C14,17.7755 13.776,18.0005 13.5,18.0005 L13.5,18.0005 Z M9.5,17.0005 L10.5,17.0005 C10.776,17.0005 11,17.2235 11,17.5005 C11,17.7755 10.776,18.0005 10.5,18.0005 L9.5,18.0005 C9.224,18.0005 9,17.7755 9,17.5005 C9,17.2235 9.224,17.0005 9.5,17.0005 L9.5,17.0005 Z M9,11.5005 C9,11.2235 9.224,11.0005 9.5,11.0005 L10.5,11.0005 C10.776,11.0005 11,11.2235 11,11.5005 C11,11.7755 10.776,12.0005 10.5,12.0005 L9.5,12.0005 C9.224,12.0005 9,11.7755 9,11.5005 L9,11.5005 Z M9.5,14.0005 L10.5,14.0005 C10.776,14.0005 11,14.2235 11,14.5005 C11,14.7755 10.776,15.0005 10.5,15.0005 L9.5,15.0005 C9.224,15.0005 9,14.7755 9,14.5005 C9,14.2235 9.224,14.0005 9.5,14.0005 L9.5,14.0005 Z M13.5,21.0005 L9.5,21.0005 C9.224,21.0005 9,20.7755 9,20.5005 C9,20.2235 9.224,20.0005 9.5,20.0005 L13.5,20.0005 C13.776,20.0005 14,20.2235 14,20.5005 C14,20.7755 13.776,21.0005 13.5,21.0005 L13.5,21.0005 Z M7.5,12.0005 L6.5,12.0005 C6.224,12.0005 6,11.7755 6,11.5005 C6,11.2235 6.224,11.0005 6.5,11.0005 L7.5,11.0005 C7.776,11.0005 8,11.2235 8,11.5005 C8,11.7755 7.776,12.0005 7.5,12.0005 L7.5,12.0005 Z M7.5,15.0005 L6.5,15.0005 C6.224,15.0005 6,14.7755 6,14.5005 C6,14.2235 6.224,14.0005 6.5,14.0005 L7.5,14.0005 C7.776,14.0005 8,14.2235 8,14.5005 C8,14.7755 7.776,15.0005 7.5,15.0005 L7.5,15.0005 Z M7.5,18.0005 L6.5,18.0005 C6.224,18.0005 6,17.7755 6,17.5005 C6,17.2235 6.224,17.0005 6.5,17.0005 L7.5,17.0005 C7.776,17.0005 8,17.2235 8,17.5005 C8,17.7755 7.776,18.0005 7.5,18.0005 L7.5,18.0005 Z M7.5,21.0005 L6.5,21.0005 C6.224,21.0005 6,20.7755 6,20.5005 C6,20.2235 6.224,20.0005 6.5,20.0005 L7.5,20.0005 C7.776,20.0005 8,20.2235 8,20.5005 C8,20.7755 7.776,21.0005 7.5,21.0005 L7.5,21.0005 Z M4.5,12.0005 L3.5,12.0005 C3.224,12.0005 3,11.7755 3,11.5005 C3,11.2235 3.224,11.0005 3.5,11.0005 L4.5,11.0005 C4.776,11.0005 5,11.2235 5,11.5005 C5,11.7755 4.776,12.0005 4.5,12.0005 L4.5,12.0005 Z M4.5,15.0005 L3.5,15.0005 C3.224,15.0005 3,14.7755 3,14.5005 C3,14.2235 3.224,14.0005 3.5,14.0005 L4.5,14.0005 C4.776,14.0005 5,14.2235 5,14.5005 C5,14.7755 4.776,15.0005 4.5,15.0005 L4.5,15.0005 Z M4.5,18.0005 L3.5,18.0005 C3.224,18.0005 3,17.7755 3,17.5005 C3,17.2235 3.224,17.0005 3.5,17.0005 L4.5,17.0005 C4.776,17.0005 5,17.2235 5,17.5005 C5,17.7755 4.776,18.0005 4.5,18.0005 L4.5,18.0005 Z M4.5,21.0005 L3.5,21.0005 C3.224,21.0005 3,20.7755 3,20.5005 C3,20.2235 3.224,20.0005 3.5,20.0005 L4.5,20.0005 C4.776,20.0005 5,20.2235 5,20.5005 C5,20.7755 4.776,21.0005 4.5,21.0005 L4.5,21.0005 Z M15.5,0.0005 L1.5,0.0005 C0.673,-0.0005 0,0.6725 0,1.4995 L0,22.5005 C0,23.3275 0.673,24.0005 1.5,24.0005 L15.5,24.0005 C16.327,24.0005 17,23.3275 17,22.5005 L17,1.4995 C17,0.6725 16.327,-0.0005 15.5,0.0005 L15.5,0.0005 Z"/>
    <path d="M12.5,3.9995 C12.224,3.9995 12,4.2235 12,4.4995 L12,5.4995 C12,5.7755 12.224,5.9995 12.5,5.9995 C12.776,5.9995 13,5.7755 13,5.4995 L13,4.4995 C13,4.2235 12.776,3.9995 12.5,3.9995"/>
  </g>
</svg>
