;<svg
  xmlns="http://www.w3.org/2000/svg"
  width="16"
  height="16"
  viewBox="0 0 24 24"
>
  <path
    fill="currentColor"
    fill-rule="evenodd"
    d="M21.4998,9.9933 C21.6328,9.9933 21.7598,9.9403 21.8538,9.8473 L24.8538,6.8473 C25.0488,6.6513 25.0488,6.3353 24.8538,6.1393 L21.8538,3.1393 C21.7598,3.0463 21.6328,2.9933 21.4998,2.9933 L12.9998,2.9933 L12.9998,1.4933 C12.9998,1.2163 12.7758,0.9933 12.4998,0.9933 C12.2238,0.9933 11.9998,1.2163 11.9998,1.4933 L11.9998,2.9933 L4.4998,2.9933 C4.2238,2.9933 3.9998,3.2163 3.9998,3.4933 L3.9998,9.4933 C3.9998,9.7693 4.2238,9.9933 4.4998,9.9933 L11.9998,9.9933 L11.9998,10.9933 L4.4998,10.9933 C4.3668,10.9933 4.2398,11.0463 4.1458,11.1393 L1.1458,14.1393 C0.9508,14.3353 0.9508,14.6513 1.1458,14.8473 L4.1458,17.8473 C4.2398,17.9403 4.3668,17.9933 4.4998,17.9933 L11.9998,17.9933 L11.9998,24.4933 C11.9998,24.7693 12.2238,24.9933 12.4998,24.9933 C12.7758,24.9933 12.9998,24.7693 12.9998,24.4933 L12.9998,17.9933 L21.4998,17.9933 C21.7758,17.9933 21.9998,17.7693 21.9998,17.4933 L21.9998,11.4933 C21.9998,11.2163 21.7758,10.9933 21.4998,10.9933 L12.9998,10.9933 L12.9998,9.9933 L21.4998,9.9933 Z"
    transform="translate(-1 -1)"
  />
</svg>
