;<svg
  xmlns="http://www.w3.org/2000/svg"
  width="16"
  height="16"
  viewBox="0 0 24 20"
>
  <path
    fill="currentColor"
    fill-rule="evenodd"
    d="M18.2637,10 L20.9997,3.748 L23.7357,10 L18.2637,10 Z M7.7357,10 L2.2637,10 L4.9997,3.748 L7.7357,10 Z M24.9987,10.498 C24.9987,10.465 24.9867,10.434 24.9797,10.402 C24.9727,10.368 24.9717,10.333 24.9577,10.302 L24.9577,10.299 L21.7637,3 L22.4997,3 C22.7767,3 22.9997,2.775 22.9997,2.5 C22.9997,2.224 22.7767,2 22.4997,2 L14.4287,2 C14.2047,1.14 13.4287,0.5 12.4997,0.5 C11.5707,0.5 10.7937,1.14 10.5707,2 L3.4997,2 C3.2237,2 2.9997,2.224 2.9997,2.5 C2.9997,2.775 3.2237,3 3.4997,3 L4.2357,3 L1.0417,10.299 C1.0407,10.3 1.0407,10.301 1.0407,10.302 C1.0277,10.332 1.0267,10.368 1.0197,10.401 C1.0127,10.434 0.9997,10.465 0.9997,10.498 L0.9997,10.5 C0.9997,12.705 2.7937,14.5 4.9997,14.5 C7.2047,14.5 8.9997,12.705 8.9997,10.5 C8.9997,10.499 8.9987,10.498 8.9987,10.498 C8.9987,10.465 8.9867,10.434 8.9797,10.402 C8.9727,10.368 8.9717,10.333 8.9577,10.302 L8.9577,10.299 L5.7637,3 L10.5707,3 C10.7517,3.699 11.2997,4.248 11.9997,4.429 L11.9997,19 L8.9997,19 C8.7237,19 8.4997,19.224 8.4997,19.5 C8.4997,19.775 8.7237,20 8.9997,20 L16.4997,20 C16.7767,20 16.9997,19.775 16.9997,19.5 C16.9997,19.224 16.7767,19 16.4997,19 L12.9997,19 L12.9997,4.429 C13.6997,4.248 14.2467,3.699 14.4287,3 L20.2357,3 L17.0417,10.299 C17.0407,10.3 17.0407,10.301 17.0407,10.302 C17.0277,10.332 17.0267,10.368 17.0197,10.401 C17.0127,10.434 16.9997,10.465 16.9997,10.498 L16.9997,10.5 C16.9997,12.705 18.7937,14.5 20.9997,14.5 C23.2047,14.5 24.9997,12.705 24.9997,10.5 C24.9997,10.499 24.9987,10.498 24.9987,10.498 L24.9987,10.498 Z"
    transform="translate(-1)"
  />
</svg>
