<svg xmlns="http://www.w3.org/2000/svg" width="16" height="16" viewBox="0 0 24 24">
  <g fill="currentColor" fill-rule="evenodd">
    <path d="M16.5,8.7177 C16.976,8.7177 17.441,8.7627 17.899,8.8327 C17.964,8.4537 18,8.0607 18,7.6527 C18,3.5527 13.962,0.2177 9,0.2177 C4.037,0.2177 0,3.5527 0,7.6527 C0,9.6137 0.855,11.4787 2.36,12.8297 L0.566,15.9697 C0.46,16.1537 0.483,16.3857 0.623,16.5457 C0.72,16.6567 0.858,16.7177 1.001,16.7177 C1.062,16.7177 1.126,16.7057 1.186,16.6817 L6.025,14.7457 C6.46,14.8697 6.912,14.9637 7.373,15.0277 C7.395,15.0287 7.437,15.0227 7.448,15.0307 C7.523,15.0307 7.767,15.0287 8.126,15.0087 C8.805,11.4947 12.359,8.7177 16.5,8.7177"/>
    <path d="M16.5,9.7177 C12.435,9.7177 9,12.6947 9,16.2177 C9,19.5737 11.878,22.4417 15.434,22.7907 C15.436,22.7907 15.438,22.7907 15.44,22.7917 C16.737,22.9147 18.012,22.6757 19.012,22.2557 C19.326,22.3737 22.508,23.5667 22.825,23.6857 C23.009,23.7557 23.23,23.7097 23.372,23.5517 C23.509,23.3997 23.539,23.1777 23.447,22.9947 C23.171,22.4417 22.378,20.8577 22.123,20.3447 C23.327,19.2557 24,17.8357 24,16.2177 C24,12.6947 20.565,9.7177 16.5,9.7177"/>
  </g>
</svg>
