;<svg
  xmlns="http://www.w3.org/2000/svg"
  width="16"
  height="16"
  viewBox="0 0 24 25"
>
  <g fill="currentColor" fill-rule="evenodd">
    <path d="M1 22.9675C.447 22.9675 0 23.4155 0 23.9675 0 24.5195.447 24.9675 1 24.9675 1.553 24.9675 2 24.5195 2 23.9675 2 23.4155 1.553 22.9675 1 22.9675M17 11.9675C16.449 11.9675 16 11.5195 16 10.9675 16 10.4155 16.449 9.9675 17 9.9675 17.551 9.9675 18 10.4155 18 10.9675 18 11.5195 17.551 11.9675 17 11.9675M12 11.9675C11.449 11.9675 11 11.5195 11 10.9675 11 10.4155 11.449 9.9675 12 9.9675 12.551 9.9675 13 10.4155 13 10.9675 13 11.5195 12.551 11.9675 12 11.9675M7 11.9675C6.449 11.9675 6 11.5195 6 10.9675 6 10.4155 6.449 9.9675 7 9.9675 7.551 9.9675 8 10.4155 8 10.9675 8 11.5195 7.551 11.9675 7 11.9675M16.332.9675C13.509.9675 10.879 2.4375 9.347 4.8365 8.396 4.2665 7.322 3.9675 6.212 3.9675 2.787 3.9675 0 6.8085 0 10.3005 0 13.7775 2.762 16.6095 6.168 16.6345 7.341 18.2045 9.168 19.1345 11.109 19.1345 12.47 19.1345 13.798 18.6755 14.875 17.8375 15.356 17.9235 15.845 17.9675 16.332 17.9675 20.912 17.9675 24 14.2345 24 9.4675 24 4.7005 20.912.9675 16.332.9675M4.5 18.4675C3.397 18.4675 2.5 19.3645 2.5 20.4675 2.5 21.5705 3.397 22.4675 4.5 22.4675 5.603 22.4675 6.5 21.5705 6.5 20.4675 6.5 19.3645 5.603 18.4675 4.5 18.4675" />
  </g>
</svg>
