<?xml version="1.0" encoding="UTF-8"?>
<svg width="33px" height="44px" viewBox="0 0 33 44" version="1.1" xmlns="http://www.w3.org/2000/svg" xmlns:xlink="http://www.w3.org/1999/xlink">
    <!-- Generator: Sketch 42 (36781) - http://www.bohemiancoding.com/sketch -->
    <title>Group</title>
    <desc>Created with Sketch.</desc>
    <defs></defs>
    <g id="Page-1" stroke="none" stroke-width="1" fill="none" fill-rule="evenodd">
        <g id="Group" fill="#0B0B0A">
            <polygon id="Fill-1" points="12.8338833 33 7.33388333 33 7.33388333 36.6666667 12.8338833 36.6666667"></polygon>
            <polygon id="Fill-2" points="25.6672167 33 14.6672167 33 14.6672167 36.6666667 25.6672167 36.6666667"></polygon>
            <polygon id="Fill-3" points="25.6672167 22 14.6672167 22 14.6672167 25.6666667 25.6672167 25.6666667"></polygon>
            <polygon id="Fill-4" points="25.6672167 27.5 14.6672167 27.5 14.6672167 31.1666667 25.6672167 31.1666667"></polygon>
            <polygon id="Fill-5" points="12.8338833 22 7.33388333 22 7.33388333 25.6666667 12.8338833 25.6666667"></polygon>
            <polygon id="Fill-6" points="12.8338833 27.5 7.33388333 27.5 7.33388333 31.1666667 12.8338833 31.1666667"></polygon>
            <polygon id="Fill-7" points="25.6672167 16.5 14.6672167 16.5 14.6672167 20.1666667 25.6672167 20.1666667"></polygon>
            <polygon id="Fill-8" points="12.8338833 16.5 7.33388333 16.5 7.33388333 20.1666667 12.8338833 20.1666667"></polygon>
            <path d="M20.1666667,12.8333333 L20.1666667,1.83333333 L31.1666667,12.8333333 L20.1666667,12.8333333 Z M27.5,38.5 L5.5,38.5 L5.5,14.6666667 L27.5,14.6666667 L27.5,38.5 Z M32.7323333,11.2676667 L21.7323333,0.267666667 C21.56,0.0971666667 21.3253333,0 21.0833333,0 L0.916666667,0 C0.410666667,0 0,0.410666667 0,0.916666667 L0,43.0833333 C0,43.5893333 0.410666667,44 0.916666667,44 L32.0833333,44 C32.5893333,44 33,43.5893333 33,43.0833333 L33,11.9166667 C33,11.6728333 32.9028333,11.44 32.7323333,11.2676667 L32.7323333,11.2676667 Z" id="Fill-9"></path>
        </g>
    </g>
</svg>