<svg xmlns="http://www.w3.org/2000/svg" width="16" height="16" viewBox="0 -1 24 25">
  <g fill="currentColor" fill-rule="evenodd" transform="translate(0 -1)">
    <path d="M11,1.9994 L16,6.9994 L11,6.9994 L11,1.9994 Z M17,11.0254 L17,6.4994 C17,6.3664 16.947,6.2394 16.854,6.1464 L11.854,1.1464 C11.76,1.0524 11.632,0.9994 11.5,0.9994 L0.5,0.9994 C0.224,0.9994 0,1.2234 0,1.4994 L0,22.4994 C0,22.7754 0.224,22.9994 0.5,22.9994 L11.514,22.9994 C10.568,21.7434 10,20.1894 10,18.4994 C10,14.5324 13.098,11.2834 17,11.0254 L17,11.0254 Z"/>
    <path d="M20.0356,19.3978 L17.8536,21.5798 C17.6586,21.7748 17.3416,21.7748 17.1466,21.5798 L14.9646,19.3978 C14.7686,19.2028 14.7686,18.8858 14.9646,18.6908 C15.1596,18.4958 15.4766,18.4958 15.6716,18.6908 L16.9996,20.0188 L16.9996,15.7698 C16.9996,15.4938 17.2246,15.2698 17.4996,15.2698 C17.7756,15.2698 17.9996,15.4938 17.9996,15.7698 L17.9996,20.0188 L19.3276,18.6908 C19.5236,18.4958 19.8406,18.4958 20.0356,18.6908 C20.2306,18.8858 20.2306,19.2028 20.0356,19.3978 M17.4996,11.9998 C13.9156,11.9998 10.9996,14.9148 10.9996,18.4998 C10.9996,22.0838 13.9156,24.9998 17.4996,24.9998 C21.0846,24.9998 23.9996,22.0838 23.9996,18.4998 C23.9996,14.9148 21.0846,11.9998 17.4996,11.9998"/>
  </g>
</svg>
