<svg width="33" height="40" viewBox="0 0 33 40" xmlns="http://www.w3.org/2000/svg"><path d="M21.45 11.587V1.655l9.9 9.932h-9.9zm2.475 6.62H9.075a.827.827 0 0 1 0-1.654h14.85a.827.827 0 0 1 0 1.655zm.825 5.794c0 .457-.37.828-.825.828A.827.827 0 0 1 23.1 24v-.827h-1.65v8.276h1.65a.827.827 0 0 1 0 1.655h-4.95a.827.827 0 0 1 0-1.655h1.65v-8.276h-1.65V24c0 .457-.37.828-.825.828A.827.827 0 0 1 16.5 24v-1.655c0-.457.37-.828.825-.828h6.6c.455 0 .825.371.825.828V24zm-10.725-.827h-4.95a.827.827 0 0 1 0-1.656h4.95a.827.827 0 0 1 0 1.656zm0 4.965h-4.95a.827.827 0 0 1 0-1.655h4.95a.827.827 0 0 1 0 1.655zm0 4.966h-4.95a.827.827 0 0 1 0-1.655h4.95a.827.827 0 0 1 0 1.655zm-4.95-21.518H16.5a.827.827 0 0 1 0 1.655H9.075a.827.827 0 0 1 0-1.655zm23.682-1.414l-9.9-9.931A.826.826 0 0 0 22.275 0H.825A.827.827 0 0 0 0 .828v38.07c0 .457.37.828.825.828h31.35c.455 0 .825-.37.825-.827v-28.14a.83.83 0 0 0-.243-.586z" fill="#0B0B0A" fill-rule="evenodd"/></svg>