;<svg
  xmlns="http://www.w3.org/2000/svg"
  width="16"
  height="16"
  viewBox="0 0 22 22"
>
  <g fill="currentColor" fill-rule="evenodd">
    <path d="M.3936 21.6104C.5906 21.8044.9026 21.8054 1.1006 21.6104L2.8686 19.8414 3.2226 20.1944C3.4156 20.3894 3.7336 20.3914 3.9296 20.1944 4.1246 19.9994 4.1246 19.6834 3.9296 19.4884L2.5146 18.0734C2.3196 17.8784 2.0026 17.8784 1.8076 18.0734 1.6126 18.2684 1.6126 18.5854 1.8076 18.7804L2.1616 19.1344.3936 20.9024C.1986 21.0974.1986 21.4144.3936 21.6104M2.5146 16.6592L5.3426 19.4892C5.4366 19.5812 5.5636 19.6352 5.6966 19.6352 5.8286 19.6352 5.9556 19.5812 6.0496 19.4892L15.6616 9.8772 12.1256 6.3422 2.5146 15.9522C2.3196 16.1482 2.3196 16.4642 2.5146 16.6592" />
    <path d="M16.3682,9.1699 L21.6062,3.9309 C21.7002,3.8369 21.7532,3.7099 21.7532,3.5779 C21.7532,3.4449 21.7002,3.3179 21.6062,3.2239 L18.7782,0.3959 C18.5822,0.2009 18.2662,0.2009 18.0712,0.3959 L17.6822,0.7849 C17.2762,0.5159 16.8012,0.3709 16.3032,0.3709 C15.6352,0.3709 15.0072,0.6309 14.5352,1.1039 L8.8782,6.7609 C8.6832,6.9559 8.6832,7.2719 8.8782,7.4669 C9.0752,7.6619 9.3912,7.6609 9.5852,7.4669 L15.2432,1.8109 C15.6862,1.3669 16.3852,1.2749 16.9412,1.5269 L12.8332,5.6339 L16.3682,9.1699 Z" />
  </g>
</svg>
