<svg xmlns="http://www.w3.org/2000/svg" width="16" height="16" viewBox="0 0 24 23">
  <path fill="currentColor" fill-rule="evenodd" d="M18.3330752,8.8481 C16.6870752,9.1421 15.2030752,8.5461 15.0190752,7.5181 C14.8350752,6.4881 16.0200752,5.4151 17.6670752,5.1211 C19.3140752,4.8281 20.7980752,5.4231 20.9810752,6.4531 C21.1650752,7.4811 19.9800752,8.5541 18.3330752,8.8481 M10.9810752,7.5181 C10.7980752,8.5461 9.31407524,9.1421 7.66707524,8.8481 C6.02007524,8.5541 4.83507524,7.4811 5.01907524,6.4531 C5.20307524,5.4231 6.68707524,4.8281 8.33307524,5.1211 C9.98007524,5.4151 11.1650752,6.4881 10.9810752,7.5181 M24.9780752,1.2441 C24.9640752,1.0511 24.8410752,0.8831 24.6610752,0.8141 C24.4820752,0.7441 24.2780752,0.7821 24.1380752,0.9141 C22.6610752,2.2911 21.4560752,2.9601 20.4520752,2.9601 C19.6760752,2.9601 19.0340752,2.5851 18.2920752,2.1501 C17.4300752,1.6461 16.4530752,1.0741 15.1180752,1.0741 C14.4460752,1.0741 13.7510752,1.2151 13.0000752,1.5061 C12.2490752,1.2151 11.5540752,1.0741 10.8820752,1.0741 C9.54607524,1.0741 8.56907524,1.6461 7.70807524,2.1501 C6.96607524,2.5851 6.32407524,2.9601 5.54807524,2.9601 C4.53107524,2.9611 3.36007524,2.3101 1.86307524,0.9141 C1.72407524,0.7821 1.52107524,0.7441 1.34007524,0.8141 C1.16007524,0.8831 1.03707524,1.0511 1.02307524,1.2441 C1.00607524,1.4991 0.610075245,7.5651 3.69007524,10.8731 C4.96607524,12.2421 6.64907524,12.9361 8.69407524,12.9361 C10.5850752,12.9361 12.0520752,12.5041 13.0000752,12.1071 C13.9480752,12.5041 15.4150752,12.9361 17.3060752,12.9361 C19.3520752,12.9361 21.0350752,12.2421 22.3110752,10.8711 C22.5660752,10.5971 22.7900752,10.2981 23.0000752,9.9911 L23.0000752,22.9851 L25.0000752,22.9851 L25.0000752,2.4431 C25.0110752,1.7591 24.9820752,1.3091 24.9780752,1.2441" transform="translate(-1)"/>
</svg>
