<svg width="16" height="15" viewBox="0 0 16 15" xmlns="http://www.w3.org/2000/svg"><g transform="translate(1)" fill="none" fill-rule="evenodd"><ellipse stroke="#000" stroke-width=".8" cx="6.708" cy="7.292" rx="4.083" ry="4.083"/><path stroke="#000" stroke-width=".8" d="M6.708 5.833v1.459l1.75 1.75M8.167 3.5l2.041-2.042 2.334 2.334L10.5 5.833M2.917 8.777L.292 11.375v2.333h2.333l2.616-2.607m4.967-9.643L11.375.292l2.333 2.333-1.166 1.167m-1.167-1.167l1.167-1.167"/><path d="M2.042 11.667a.291.291 0 1 0-.002.582.291.291 0 0 0 .002-.582zm.875-.875a.291.291 0 1 0-.002.582.291.291 0 0 0 .002-.582z" fill="#000"/></g></svg>