<svg width="16" height="16" viewBox="0 0 16 16" xmlns="http://www.w3.org/2000/svg"><g stroke-width=".8" stroke="#000" fill="none" fill-rule="evenodd"><path d="M6.833 9.75S5.958 9.458 5.958 8c-.482 0-.482-1.167 0-1.167 0-.195-.875-2.333.584-2.041.291-1.167 3.5-1.167 3.791 0 .203.81-.291 1.898-.291 2.041.482 0 .482 1.167 0 1.167 0 1.458-.875 1.75-.875 1.75v1.458c1.445.542 2.876.99 3.608 1.502A6.708 6.708 0 0 0 8 1.291a6.708 6.708 0 0 0-4.769 11.426c.776-.536 2.306-1.018 3.602-1.509V9.75z"/><path d="M3.231 12.717A6.688 6.688 0 0 0 8 14.708a6.688 6.688 0 0 0 4.775-1.998"/></g></svg>