<svg width="31" height="31" viewBox="0 0 31 31" xmlns="http://www.w3.org/2000/svg" xmlns:xlink="http://www.w3.org/1999/xlink"><defs><path d="M15.5 3C9.148 3 4 8.148 4 14.5S9.148 26 15.5 26 27 20.852 27 14.5 21.852 3 15.5 3zm4.596 15.389a.5.5 0 0 1-.707.707L15.5 15.207l-3.889 3.889a.5.5 0 0 1-.707-.707l3.889-3.889-3.889-3.889a.5.5 0 0 1 .707-.707l3.889 3.889 3.889-3.889a.5.5 0 0 1 .707.707L16.207 14.5l3.889 3.889z" id="b"/><filter x="-50%" y="-50%" width="200%" height="200%" filterUnits="objectBoundingBox" id="a"><feOffset dy="1" in="SourceAlpha" result="shadowOffsetOuter1"/><feGaussianBlur stdDeviation="2" in="shadowOffsetOuter1" result="shadowBlurOuter1"/><feColorMatrix values="0 0 0 0 0 0 0 0 0 0 0 0 0 0 0 0 0 0 0.5 0" in="shadowBlurOuter1"/></filter></defs><g fill="none" fill-rule="evenodd"><use fill="#000" filter="url(#a)" xlink:href="#b"/><use fill="#EBEAE4" xlink:href="#b"/></g></svg>