<svg width="26" height="26" viewBox="0 0 26 26" xmlns="http://www.w3.org/2000/svg"><g stroke="#F1C432" stroke-linejoin="round" fill="none" fill-rule="evenodd"><path d="M2.5 1.5v5a2 2 0 0 0 2 2h2a2 2 0 0 0 2-2v-5" stroke-linecap="round"/><path d="M2.5 5v18c0 1.104.896 1.5 2 1.5h2c1.104 0 2-.396 2-1.5V5"/><path d="M10.5 1.5v5a2 2 0 0 0 2 2h2a2 2 0 0 0 2-2v-5" stroke-linecap="round"/><path d="M10.5 5v18c0 1.104.896 1.5 2 1.5h2c1.104 0 2-.396 2-1.5V5"/><path d="M18.5 1.5v5a2 2 0 0 0 2 2h2a2 2 0 0 0 2-2v-5" stroke-linecap="round"/><path d="M18.5 5v18c0 1.104.896 1.5 2 1.5h2c1.104 0 2-.396 2-1.5V5m-16 15.5h-6m6-2h-6m14 2h-6m6-2h-6m14 2h-6m6-2h-6m-10-4h-6m6-2h-6m14 2h-6m6-2h-6m14 2h-6m6-2h-6"/><path d="M4.5 6.5v-4m2 4v-4m6 4v-4m2 4v-4m6 4v-4m2 4v-4" stroke-linecap="round"/></g></svg>