<?xml version="1.0" encoding="UTF-8" standalone="no"?>
<svg width="26px" height="26px" viewBox="0 0 26 26" version="1.1" xmlns="http://www.w3.org/2000/svg" xmlns:xlink="http://www.w3.org/1999/xlink" xmlns:sketch="http://www.bohemiancoding.com/sketch/ns">
    <!-- Generator: Sketch 3.5.1 (25234) - http://www.bohemiancoding.com/sketch -->
    <title>edgenote-video</title>
    <desc>Created with Sketch.</desc>
    <defs></defs>
    <g id="Page-1" stroke="none" stroke-width="1" fill="none" fill-rule="evenodd" sketch:type="MSPage">
        <g id="edgenote-video" sketch:type="MSArtboardGroup" stroke="#F1C432" stroke-linejoin="round">
            <g id="Group" sketch:type="MSLayerGroup" transform="translate(1.000000, 2.000000)">
                <path d="M23.5,20.0996 C23.5,20.8736 22.855,21.4996 22.063,21.4996 L1.938,21.4996 C1.143,21.4996 0.5,20.8736 0.5,20.0996 L0.5,7.4996 L23.5,7.4996 L23.5,20.0996 L23.5,20.0996 Z" id="Stroke-89" sketch:type="MSShapeGroup"></path>
                <path d="M8.5,18.5 L8.5,10.5 L16.5,14.5 L8.5,18.5 L8.5,18.5 Z" id="Stroke-90" sketch:type="MSShapeGroup"></path>
                <path d="M23.5,5.5 L0.5,5.5 L0.5,1.5 C0.5,0.948 0.947,0.5 1.5,0.5 L22.5,0.5 C23.053,0.5 23.5,0.948 23.5,1.5 L23.5,5.5 L23.5,5.5 Z" id="Stroke-91" sketch:type="MSShapeGroup"></path>
                <path d="M0.5,5.001 L5.001,0.5" id="Stroke-92" sketch:type="MSShapeGroup"></path>
                <path d="M3.4961,5.5039 L8.5001,0.4999" id="Stroke-93" sketch:type="MSShapeGroup"></path>
                <path d="M7.4961,5.5039 L12.5001,0.4999" id="Stroke-94" sketch:type="MSShapeGroup"></path>
                <path d="M11.4961,5.5039 L16.5001,0.4999" id="Stroke-95" sketch:type="MSShapeGroup"></path>
                <path d="M15.5078,5.4932 L20.4998,0.5002" id="Stroke-96" sketch:type="MSShapeGroup"></path>
                <path d="M19.5,5.5 L23.5,1.5" id="Stroke-97" sketch:type="MSShapeGroup"></path>
            </g>
        </g>
    </g>
</svg>