;<svg
  width="26"
  height="26"
  viewBox="0 0 26 26"
  xmlns="http://www.w3.org/2000/svg"
>
  <g stroke="#F1C432" stroke-linejoin="round" fill="none" fill-rule="evenodd">
    <path d="M24.5 24.5h-23v-23h23v23z" />
    <path d="M12.5 16.5v3.984" stroke-linecap="round" />
    <path d="M1.5 20.5h23m-10.547-9.98s1.066-1.082 2.422-1.075c1.354.006 2.746.223 2.906 1.076-.125.921-1.54 1.14-2.78 1.09-1.242-.054-2.043-.565-2.548-1.091zm-2.969 0S9.918 9.438 8.562 9.445c-1.354.006-2.746.223-2.906 1.076.125.921 1.54 1.14 2.781 1.09 1.241-.054 2.042-.565 2.547-1.091zm.627-1.538s.43-1.458-.236-2.639c-.665-1.18-1.53-2.29-2.354-2.016-.744.557-.248 1.9.401 2.96.648 1.058 1.484 1.511 2.19 1.695zm1.613 0s-.428-1.458.237-2.639c.664-1.18 1.53-2.29 2.353-2.016.745.557.248 1.9-.4 2.96-.648 1.058-1.484 1.511-2.19 1.695zm-1.62 3.004s.429 1.458-.236 2.64c-.665 1.18-1.53 2.29-2.354 2.015-.744-.555-.247-1.899.4-2.959.649-1.06 1.485-1.51 2.19-1.696zm1.613 0s-.428 1.458.236 2.64c.665 1.18 1.53 2.29 2.354 2.015.744-.555.248-1.899-.401-2.959-.648-1.06-1.484-1.51-2.19-1.696z" />
  </g>
</svg>
