<svg xmlns="http://www.w3.org/2000/svg" width="24" height="24" viewBox="0 0 24 24">
  <g fill="none" fill-rule="evenodd" stroke="#EBEAE4" stroke-linejoin="round">
    <polygon points="23.5 23.5 .5 23.5 .5 .5 23.5 .5"/>
    <path stroke-linecap="round" d="M11.5,15.5 L11.5,19.484"/>
    <path d="M0.5,19.5 L23.5,19.5 L0.5,19.5 Z M12.953,9.52 C12.953,9.52 14.019,8.438 15.375,8.445 C16.729,8.451 18.121,8.668 18.281,9.521 C18.156,10.442 16.741,10.661 15.501,10.611 C14.259,10.557 13.458,10.046 12.953,9.52 L12.953,9.52 Z M9.984,9.52 C9.984,9.52 8.918,8.438 7.562,8.445 C6.208,8.451 4.816,8.668 4.656,9.521 C4.781,10.442 6.196,10.661 7.437,10.611 C8.678,10.557 9.479,10.046 9.984,9.52 L9.984,9.52 Z M10.611,7.982 C10.611,7.982 11.041,6.524 10.375,5.343 C9.71,4.163 8.845,3.053 8.021,3.327 C7.277,3.884 7.773,5.227 8.422,6.287 C9.07,7.345 9.906,7.798 10.612,7.982 L10.611,7.982 Z M12.224,7.982 C12.224,7.982 11.796,6.524 12.461,5.343 C13.125,4.163 13.991,3.053 14.814,3.327 C15.559,3.884 15.062,5.227 14.414,6.287 C13.766,7.345 12.93,7.798 12.224,7.982 Z M10.604,10.986 C10.604,10.986 11.033,12.444 10.368,13.626 C9.703,14.806 8.838,15.916 8.014,15.641 C7.27,15.086 7.767,13.742 8.414,12.682 C9.063,11.622 9.899,11.172 10.604,10.986 Z M12.217,10.986 C12.217,10.986 11.789,12.444 12.453,13.626 C13.118,14.806 13.983,15.916 14.807,15.641 C15.551,15.086 15.055,13.742 14.406,12.682 C13.758,11.622 12.922,11.172 12.216,10.986 L12.217,10.986 Z"/>
  </g>
</svg>
