<svg width="26" height="26" viewBox="0 0 26 26" xmlns="http://www.w3.org/2000/svg"><g stroke-linecap="round" stroke="#F1C432" stroke-linejoin="round" fill="none" fill-rule="evenodd"><path d="M24 24.313H1.5v-22.5"/><path d="M11 7.93a1.5 1.5 0 1 1-3 0 1.5 1.5 0 0 1 3 0zm-.781 9.383a1.5 1.5 0 1 1-2.999.001 1.5 1.5 0 0 1 2.999-.002zm8.406-7a1.5 1.5 0 1 1-3 0 1.5 1.5 0 0 1 3 0zm-1 7a1.5 1.5 0 1 1-3 0 1.5 1.5 0 0 1 3 0zm6.875-4a1.5 1.5 0 1 1-3 0 1.5 1.5 0 0 1 3 0zM24.5 3a1.5 1.5 0 1 1-3.001-.001A1.5 1.5 0 0 1 24.5 3zm-6.459 6.127l3.951-5.019M10.933 8.392l4.743 1.53M1.5 12.781l6.719-4.075m9.205 7.859l4.28-2.496m-11.485 3.244h4.406M1.684 21.86l5.747-3.782"/></g></svg>