;<svg
  xmlns="http://www.w3.org/2000/svg"
  width="16"
  height="16"
  viewBox="0 0 20 25"
>
  <g
    fill="none"
    fill-rule="evenodd"
    stroke="currentColor"
    stroke-width="1.75"
    stroke-linejoin="round"
  >
    <path d="M12.5 11.5L6.5 11.5M12.5 19.5L6.5 19.5M13.5 18.5L13.5 12.5M5.5 18.5L5.5 12.5" />
    <polygon points="12.501 12.5 14.501 12.5 14.501 10.5 12.501 10.5" />
    <polygon points="12.501 20.5 14.501 20.5 14.501 18.5 12.501 18.5" />
    <polygon points="4.5 20.5 6.5 20.5 6.5 18.5 4.5 18.5" />
    <polygon points="4.5 12.5 6.5 12.5 6.5 10.5 4.5 10.5" />
    <polygon
      stroke-linecap="round"
      points="19.5 23.5 .5 23.5 .5 .5 13.5 .5 19.5 6.5"
    />
    <polyline stroke-linecap="round" points="13.5 .5 13.5 6.5 19.5 6.5" />
  </g>
</svg>
