<svg width="16" height="16" viewBox="0 0 33 44" xmlns="http://www.w3.org/2000/svg"><g fill="currentColor" fill-rule="evenodd"><path d="M12.834 33h-5.5v3.667h5.5zm12.833 0h-11v3.667h11zm0-11h-11v3.667h11zm0 5.5h-11v3.667h11zM12.834 22h-5.5v3.667h5.5zm0 5.5h-5.5v3.667h5.5zm12.833-11h-11v3.667h11zm-12.833 0h-5.5v3.667h5.5z"/><path d="M20.167 12.833v-11l11 11h-11zM27.5 38.5h-22V14.667h22V38.5zm5.232-27.232l-11-11A.926.926 0 0 0 21.083 0H.917A.917.917 0 0 0 0 .917v42.166c0 .506.41.917.917.917h31.166c.506 0 .917-.41.917-.917V11.917a.923.923 0 0 0-.268-.65z"/></g></svg>
