;<svg
  xmlns="http://www.w3.org/2000/svg"
  width="16"
  height="16"
  viewBox="0 0 20 25"
>
  <g
    fill="none"
    fill-rule="evenodd"
    stroke="currentColor"
    stroke-width="1.75"
    stroke-linecap="round"
    stroke-linejoin="round"
  >
    <path d="M7 12.5L5.25 12.5C4.836 12.5 4.5 12.836 4.5 13.25L4.5 14.75C4.5 15.164 4.836 15.5 5.25 15.5L7 15.5 10.5 19 10.5 9 7 12.5 7 12.5zM14 11C14.834 11.688 15.5 12.835 15.5 14 15.5 15.163 14.831 16.312 14 17M12 12.25C12.562 12.659 13 13.251 13 14 13 14.749 12.562 15.341 12 15.75" />
    <polygon points="19.5 23.5 .5 23.5 .5 .5 13.5 .5 19.5 6.5" />
    <polyline points="13.5 .5 13.5 6.5 19.5 6.5" />
  </g>
</svg>
