<svg width="30" height="30" viewBox="0 0 30 30" xmlns="http://www.w3.org/2000/svg"><g stroke="#EBEAE4" stroke-linejoin="round" fill="none" fill-rule="evenodd"><path d="M22.137 15.413c0 3.984-3.197 7.212-7.137 7.212-3.942 0-7.137-3.228-7.137-7.212V8.202C7.863 4.22 11.058.99 15 .99c3.94 0 7.137 3.23 7.137 7.212v7.211z"/><path d="M5.484 13.01v2.403c0 5.378 4.193 9.616 9.516 9.616 5.32 0 9.516-4.238 9.516-9.616V13.01M14.25 25.029v3.606m0-27.645v3.606m2.001-3.195l-.001 3.195m-4-3.195v3.195" stroke-linecap="round"/><path d="M5.484 14.75h19.032"/><path d="M7.863 7.75h4.758m-4.758 2h4.758m9.516-2H17.38m4.757 2H17.38m-9.517 3h4.758m9.516 0H17.38" stroke-linecap="round"/></g></svg>