;<svg
  width="25"
  height="25"
  viewBox="0 0 25 25"
  xmlns="http://www.w3.org/2000/svg"
>
  <g fill="none" fill-rule="evenodd">
    <path
      d="M24 8a3.001 3.001 0 0 1-6 0 3 3 0 0 1 6 0zm-7.5-4a2.5 2.5 0 1 1-5 0 2.5 2.5 0 0 1 5 0zm-7 2a2.5 2.5 0 1 1-5 0 2.5 2.5 0 0 1 5 0zm-4 6a2 2 0 1 1-4.001-.001A2 2 0 0 1 5.5 12zM7 18a2 2 0 1 1-4.001-.001A2 2 0 0 1 7 18zm4.5 4a1.5 1.5 0 1 1-3.001-.001A1.5 1.5 0 0 1 11.5 22zm4.875.145a1 1 0 1 1-1.998.002 1 1 0 0 1 1.998-.002zm3.125-1.77a.5.5 0 1 1-1.002-.002.5.5 0 0 1 1.002.002zM21.781 18a.5.5 0 1 1-1 0 .5.5 0 0 1 1 0z"
      stroke="#EBEAE4"
      stroke-linecap="round"
      stroke-linejoin="round"
    />
    <path d="M22.5 15a.5.5 0 1 0 0 1 .5.5 0 0 0 0-1" fill="#EBEAE4" />
  </g>
</svg>
