<svg width="30" height="30" viewBox="0 0 30 30" xmlns="http://www.w3.org/2000/svg"><g stroke="#EBEAE4" stroke-linejoin="round" fill="none" fill-rule="evenodd"><path d="M28.29 13.728c0 6.093-6.034 11.033-13.477 11.033a16.13 16.13 0 0 1-4.722-.695l-7.745 3.618 3.033-6.076c-2.496-2.003-4.043-4.793-4.043-7.88 0-6.096 6.033-11.036 13.476-11.036 7.444 0 13.477 4.94 13.477 11.036z"/><path d="M11.883 11.66c0-1.95 1.574-3.602 3.515-3.602a3.492 3.492 0 0 1 3.516 3.492 3.492 3.492 0 0 1-3.516 3.492v1.469" stroke-linecap="round"/><path d="M15.984 19.158a.587.587 0 0 1-.586.588.587.587 0 0 1 0-1.176c.324 0 .586.264.586.588z" stroke-width=".5" fill="#EBEAE4"/></g></svg>