<svg width="20" height="18" viewBox="0 0 20 18" xmlns="http://www.w3.org/2000/svg"><path d="M2.554 15.545h6.545v-.409c0-1.014-.51-2.158-1.84-2.634a2.04 2.04 0 0 0 .613-1.457A2.048 2.048 0 0 0 5.827 9a2.048 2.048 0 0 0-2.046 2.045c0 .57.236 1.085.613 1.457-1.33.476-1.84 1.62-1.84 2.634v.41zm8.182-.818h6.545v-.818h-6.545v.818zm0-1.636h6.545v-.818h-6.545v.818zm0-1.636h6.545v-.819h-6.545v.819zm0-1.637h3.272V9h-3.272v.818zM.099 7.364h19.637V17.59a.41.41 0 0 1-.41.409H.509a.41.41 0 0 1-.409-.41V7.365zm10.637-4.909a.818.818 0 1 0-1.637 0 .818.818 0 0 0 1.637 0m9 1.227v2.863H.099V3.682a.41.41 0 0 1 .41-.41h6.954v-.817A2.458 2.458 0 0 1 9.918 0a2.458 2.458 0 0 1 2.454 2.455v.818h6.955a.41.41 0 0 1 .409.409" fill="#EBEAE5" fill-rule="evenodd"/></svg>