<svg width="26" height="18" viewBox="0 0 26 18" xmlns="http://www.w3.org/2000/svg"><g fill="#EBEAE5" fill-rule="evenodd"><path d="M21.152 7.993C20.902 3.545 17.216 0 12.706 0S4.51 3.545 4.26 7.993C1.872 8.248 0 10.25 0 12.706a4.77 4.77 0 0 0 4.765 4.764.53.53 0 0 0 .53-.529v-8.47c0-4.088 3.324-7.412 7.411-7.412s7.412 3.324 7.412 7.411v8.471c0 .293.237.53.53.53a4.77 4.77 0 0 0 4.764-4.765c0-2.455-1.872-4.458-4.26-4.713"/><path d="M18.53 12.706h-1.59a.53.53 0 0 0-.473.292l-.914 1.828-1.272-5.937a.53.53 0 0 0-.473-.416.513.513 0 0 0-.536.33l-1.68 4.2-1.06-2.123a.532.532 0 0 0-.898-.08l-1.43 1.906H6.883a.53.53 0 0 0 0 1.059h1.589a.529.529 0 0 0 .423-.212L9.97 12.12l1.205 2.411a.507.507 0 0 0 .495.293.53.53 0 0 0 .47-.333l1.472-3.681 1.224 5.712a.53.53 0 0 0 .991.127l1.442-2.884h1.261a.53.53 0 0 0 0-1.06"/></g></svg>