<svg width="24" height="24" viewBox="0 0 24 24" xmlns="http://www.w3.org/2000/svg" xmlns:xlink="http://www.w3.org/1999/xlink"><defs><path id="a" d="M-102-15h212v56h-212z"/><mask id="b" x="0" y="0" width="212" height="56" fill="#fff"><use xlink:href="#a"/></mask></defs><g fill="none" fill-rule="evenodd"><use stroke="#BFBDAF" mask="url(#b)" stroke-width="2" fill="#D6D4CA" xlink:href="#a"/><path fill="#BFBDB1" d="M0 0h24v24H0z"/><path d="M8.333 7.25h11.334M8.333 12.705h11.334M8.333 18.16h11.334M5.333 8.614V5.936l-1 .998m1.38 7.134h-1.38c.987-1.363 1.334-1.252 1.334-2.02 0-.376-.3-.67-.667-.67-.369 0-.643.288-.643.665m-.024 4.752h1.288l-.667 1.048c.55 0 .667.328.667.67 0 .34-.116.669-.667.669h-.62" stroke="#000"/></g></svg>