<?xml version="1.0" encoding="UTF-8" standalone="no"?>
<svg width="30px" height="30px" viewBox="0 0 30 30" version="1.1" xmlns="http://www.w3.org/2000/svg" xmlns:xlink="http://www.w3.org/1999/xlink" xmlns:sketch="http://www.bohemiancoding.com/sketch/ns">
    <!-- Generator: Sketch 3.5.1 (25234) - http://www.bohemiancoding.com/sketch -->
    <title>consider</title>
    <desc>Created with Sketch.</desc>
    <defs></defs>
    <g id="Page-1" stroke="none" stroke-width="1" fill="none" fill-rule="evenodd" sketch:type="MSPage">
        <g id="consider" sketch:type="MSArtboardGroup" stroke="#EBEAE4" stroke-linejoin="round">
            <g id="Group" sketch:type="MSLayerGroup" transform="translate(1.500000, 1.125000)">
                <path d="M11.2418478,8.5275 C11.2418478,7.52600543 12.063587,6.71404891 13.0663043,6.71404891 C14.0788043,6.71404891 14.9103261,7.53456522 14.9103261,8.54828804 L14.9103261,15.8852446 L20.3482337,17.7194837 C21.5576087,18.1071196 21.8241848,19.5573913 21.5392663,20.7961141 L20.2846467,27.5387772 L10.5203804,27.5387772 L5.6107337,20.1847011 C5.05434783,19.3336141 5.053125,17.7280435 6.27595109,17.7280435 C7.49877717,17.7280435 8.79619565,18.230625 11.2418478,21.999375 L11.2418478,8.5275 L11.2418478,8.5275 Z" id="Stroke-709" sketch:type="MSShapeGroup"></path>
                <path d="M8.79619565,0.373206522 L2.65638587,8.93298913 L0.236413043,6.51423913" id="Stroke-710" stroke-linecap="round" sketch:type="MSShapeGroup"></path>
                <path d="M18.5788043,0.373206522 L27.138587,8.93298913" id="Stroke-711" stroke-linecap="round" sketch:type="MSShapeGroup"></path>
                <path d="M27.138587,0.373206522 L18.5788043,8.93298913" id="Stroke-712" stroke-linecap="round" sketch:type="MSShapeGroup"></path>
            </g>
        </g>
    </g>
</svg>