<svg version="1" xmlns="http://www.w3.org/2000/svg" width="24" height="24" viewBox="0 0 24 24"><g><path d="M13 12h-7c-1.103 0-2 .897-2 2s.897 2 2 2c1.102 0 2-.897 2-2 0-.366-.106-.705-.278-1h3.556c-.172.295-.278.634-.278 1 0 1.103.897 2 2 2 1.102 0 2-.897 2-2s-.898-2-2-2zm-6 2c0 .551-.448 1-1 1s-1-.449-1-1 .448-1 1-1 1 .449 1 1zm6 1c-.552 0-1-.449-1-1s.448-1 1-1 1 .449 1 1-.448 1-1 1zM23.535 10.441c-.291-.19-.655-.226-.973-.092l-4.562 1.901v-1.75c0-.827-.673-1.5-1.5-1.5h-.5v-2.5c0-.276.225-.5.5-.5h1.592c.207.581.757 1 1.408 1h3c.827 0 1.5-.673 1.5-1.5s-.673-1.5-1.5-1.5h-3c-.651 0-1.201.419-1.408 1h-1.592c-.827 0-1.5.673-1.5 1.5v2.5h-3v-1.5c0-.827-.673-1.5-1.5-1.5h-10c-.276 0-.5.224-.5.5s.224.5.5.5h10c.275 0 .5.224.5.5v1.5h-8.5c-.827 0-1.5.673-1.5 1.5v8c0 .827.673 1.5 1.5 1.5h14c.827 0 1.5-.673 1.5-1.5v-1.75l4.564 1.903c.127.052.261.078.395.078.202 0 .405-.06.584-.177.286-.196.457-.518.457-.862v-6.385c0-.345-.172-.667-.465-.866zm-4.035-5.441h3c.275 0 .5.224.5.5s-.225.5-.5.5h-3c-.275 0-.5-.224-.5-.5s.225-.5.5-.5zm-3 14h-14c-.275 0-.5-.224-.5-.5v-8c0-.276.225-.5.5-.5h14c.275 0 .5.224.5.5v8c0 .276-.225.5-.5.5zm6.447-1.271l-4.947-2.062v-2.33l5-2.029-.053 6.421z"/></g></svg>