<svg version="1" xmlns="http://www.w3.org/2000/svg" width="24" height="24" viewBox="0 0 24 24"><g><path d="M4.5 16c-1.379 0-2.5 1.122-2.5 2.5s1.121 2.5 2.5 2.5 2.5-1.122 2.5-2.5-1.121-2.5-2.5-2.5zm0 4c-.827 0-1.5-.673-1.5-1.5s.673-1.5 1.5-1.5 1.5.673 1.5 1.5-.673 1.5-1.5 1.5zM10.342 19.974c.262.089.545-.053.633-.316l.885-2.658h1.279l.886 2.658c.071.21.266.342.475.342l.158-.026c.262-.087.403-.37.316-.632l-1-3c-.068-.204-.259-.342-.474-.342h-2c-.215 0-.406.138-.475.342l-1 3c-.087.262.055.545.317.632zM8 5h1v4h-1zM10 5h1v4h-1zM12 5h1v4h-1zM14 5h1v4h-1zM16 5h1v4h-1zM21.5 17h-3c-.276 0-.5.224-.5.5v2c0 .276.224.5.5.5h3c.276 0 .5-.224.5-.5v-2c0-.276-.224-.5-.5-.5zm-.5 2h-2v-1h2v1zM20.5 14h-3.5v-.5c0-.276-.224-.5-.5-.5h-.5v-2h.5c1.379 0 2.5-1.122 2.5-2.5v-5c0-.276-.224-.5-.5-.5h-12c-.276 0-.5.224-.5.5v5c0 1.378 1.121 2.5 2.5 2.5h.5v2h-.5c-.276 0-.5.224-.5.5v.5h-4.5c-1.93 0-3.5 1.57-3.5 3.5v2c0 1.93 1.57 3.5 3.5 3.5h4.5v.5c0 .276.224.5.5.5h8c.276 0 .5-.224.5-.5v-.5h3.5c1.93 0 3.5-1.57 3.5-3.5v-2c0-1.93-1.57-3.5-3.5-3.5zm-17 8c-1.379 0-2.5-1.122-2.5-2.5v-2c0-1.378 1.121-2.5 2.5-2.5h4.5v7h-4.5zm3.5-13.5v-4.5h11v4.5c0 .827-.673 1.5-1.5 1.5h-8c-.827 0-1.5-.673-1.5-1.5zm3 2.5h5v2h-5v-2zm6 12h-7v-9h7v9zm7-3.5c0 1.378-1.121 2.5-2.5 2.5h-3.5v-7h3.5c1.379 0 2.5 1.122 2.5 2.5v2z"/></g></svg>