<?xml version="1.0" encoding="UTF-8" standalone="no"?>
<svg width="26px" height="26px" viewBox="0 0 26 26" version="1.1" xmlns="http://www.w3.org/2000/svg" xmlns:xlink="http://www.w3.org/1999/xlink" xmlns:sketch="http://www.bohemiancoding.com/sketch/ns">
    <!-- Generator: Sketch 3.5.1 (25234) - http://www.bohemiancoding.com/sketch -->
    <title>edgenote-gallery</title>
    <desc>Created with Sketch.</desc>
    <defs></defs>
    <g id="Page-1" stroke="none" stroke-width="1" fill="none" fill-rule="evenodd" sketch:type="MSPage">
        <g id="edgenote-gallery" sketch:type="MSArtboardGroup" stroke="#F1C432" stroke-linejoin="round">
            <g id="Group" sketch:type="MSLayerGroup" transform="translate(1.000000, 1.000000)">
                <path d="M23.5,23.5 L0.5,23.5 L0.5,0.5 L23.5,0.5 L23.5,23.5 Z" id="Stroke-1902" sketch:type="MSShapeGroup"></path>
                <path d="M11.5,15.5 L11.5,19.484" id="Stroke-1903" stroke-linecap="round" sketch:type="MSShapeGroup"></path>
                <path d="M0.5,19.5 L23.5,19.5" id="Stroke-1904" sketch:type="MSShapeGroup"></path>
                <path d="M12.9531,9.5195 C12.9531,9.5195 14.0191,8.4375 15.3751,8.4445 C16.7291,8.4515 18.1211,8.6685 18.2811,9.5215 C18.1561,10.4425 16.7411,10.6615 15.5001,10.6105 C14.2591,10.5575 13.4581,10.0465 12.9531,9.5195 L12.9531,9.5195 Z" id="Stroke-1905" sketch:type="MSShapeGroup"></path>
                <path d="M9.9844,9.5195 C9.9844,9.5195 8.9184,8.4375 7.5624,8.4445 C6.2084,8.4515 4.8164,8.6685 4.6564,9.5215 C4.7814,10.4425 6.1964,10.6615 7.4374,10.6105 C8.6784,10.5575 9.4794,10.0465 9.9844,9.5195 L9.9844,9.5195 Z" id="Stroke-1906" sketch:type="MSShapeGroup"></path>
                <path d="M10.6113,7.9824 C10.6113,7.9824 11.0403,6.5244 10.3753,5.3434 C9.7103,4.1634 8.8443,3.0524 8.0213,3.3274 C7.2773,3.8844 7.7733,5.2264 8.4223,6.2864 C9.0703,7.3454 9.9063,7.7984 10.6113,7.9824 L10.6113,7.9824 Z" id="Stroke-1907" sketch:type="MSShapeGroup"></path>
                <path d="M12.2236,7.9824 C12.2236,7.9824 11.7956,6.5244 12.4606,5.3434 C13.1246,4.1634 13.9906,3.0524 14.8136,3.3274 C15.5586,3.8844 15.0616,5.2264 14.4136,6.2864 C13.7656,7.3454 12.9296,7.7984 12.2236,7.9824 L12.2236,7.9824 Z" id="Stroke-1908" sketch:type="MSShapeGroup"></path>
                <path d="M10.6045,10.9863 C10.6045,10.9863 11.0325,12.4443 10.3675,13.6253 C9.7035,14.8053 8.8375,15.9163 8.0145,15.6413 C7.2695,15.0863 7.7665,13.7423 8.4145,12.6823 C9.0625,11.6223 9.8985,11.1713 10.6045,10.9863 L10.6045,10.9863 Z" id="Stroke-1909" sketch:type="MSShapeGroup"></path>
                <path d="M12.2168,10.9863 C12.2168,10.9863 11.7888,12.4443 12.4528,13.6253 C13.1178,14.8053 13.9838,15.9163 14.8068,15.6413 C15.5508,15.0863 15.0548,13.7423 14.4058,12.6823 C13.7578,11.6223 12.9218,11.1713 12.2168,10.9863 L12.2168,10.9863 Z" id="Stroke-1910" sketch:type="MSShapeGroup"></path>
            </g>
        </g>
    </g>
</svg>