<?xml version="1.0" encoding="UTF-8" standalone="no"?>
<svg width="26px" height="26px" viewBox="0 0 26 26" version="1.1" xmlns="http://www.w3.org/2000/svg" xmlns:xlink="http://www.w3.org/1999/xlink" xmlns:sketch="http://www.bohemiancoding.com/sketch/ns">
    <!-- Generator: Sketch 3.5.1 (25234) - http://www.bohemiancoding.com/sketch -->
    <title>edgenote-audio</title>
    <desc>Created with Sketch.</desc>
    <defs></defs>
    <g id="Page-1" stroke="none" stroke-width="1" fill="none" fill-rule="evenodd" sketch:type="MSPage">
        <g id="edgenote-audio" sketch:type="MSArtboardGroup" stroke-linecap="round" stroke="#F1C432" stroke-linejoin="round">
            <g id="Group" sketch:type="MSLayerGroup" transform="translate(1.000000, 5.000000)">
                <path d="M4.5,8 C4.5,3.858 7.856,0.5 12,0.5 C16.143,0.5 19.5,3.858 19.5,8" id="Stroke-6933" sketch:type="MSShapeGroup"></path>
                <path d="M4.5,8 C2.291,8 0.5,9.791 0.5,12 C0.5,14.209 2.291,16 4.5,16 L4.5,8 L4.5,8 Z" id="Stroke-6934" sketch:type="MSShapeGroup"></path>
                <path d="M19.5,8 C21.709,8 23.5,9.791 23.5,12 C23.5,14.209 21.709,16 19.5,16 L19.5,8 L19.5,8 Z" id="Stroke-6935" sketch:type="MSShapeGroup"></path>
                <path d="M17.5,12.5 L16,12.5 L14.5,15.5 L13,8.5 L11,13.5 L9.5,10.5 L8,12.5 L6.5,12.5" id="Stroke-6936" sketch:type="MSShapeGroup"></path>
            </g>
        </g>
    </g>
</svg>