<?xml version="1.0" encoding="UTF-8" standalone="no"?>
<svg width="26px" height="26px" viewBox="0 0 26 26" version="1.1" xmlns="http://www.w3.org/2000/svg" xmlns:xlink="http://www.w3.org/1999/xlink" xmlns:sketch="http://www.bohemiancoding.com/sketch/ns">
    <!-- Generator: Sketch 3.5.1 (25234) - http://www.bohemiancoding.com/sketch -->
    <title>edgenote-image</title>
    <desc>Created with Sketch.</desc>
    <defs></defs>
    <g id="Page-1" stroke="none" stroke-width="1" fill="none" fill-rule="evenodd" sketch:type="MSPage">
        <g id="edgenote-image" sketch:type="MSArtboardGroup" stroke-linecap="round" stroke="#F1C432" stroke-linejoin="round">
            <g id="Group" sketch:type="MSLayerGroup" transform="translate(1.000000, 1.000000)">
                <path d="M23,23.3125 L0.5,23.3125 L0.5,0.8125" id="Stroke-5737" sketch:type="MSShapeGroup"></path>
                <path d="M10,6.9297 C10,7.7587 9.328,8.4297 8.5,8.4297 C7.672,8.4297 7,7.7587 7,6.9297 C7,6.1017 7.672,5.4297 8.5,5.4297 C9.328,5.4297 10,6.1017 10,6.9297 L10,6.9297 Z" id="Stroke-5738" sketch:type="MSShapeGroup"></path>
                <path d="M9.2187,16.3125 C9.2187,17.1415 8.5477,17.8125 7.7187,17.8125 C6.8907,17.8125 6.2187,17.1415 6.2187,16.3125 C6.2187,15.4845 6.8907,14.8125 7.7187,14.8125 C8.5477,14.8125 9.2187,15.4845 9.2187,16.3125 L9.2187,16.3125 Z" id="Stroke-5739" sketch:type="MSShapeGroup"></path>
                <path d="M17.625,9.3125 C17.625,10.1415 16.953,10.8125 16.125,10.8125 C15.297,10.8125 14.625,10.1415 14.625,9.3125 C14.625,8.4845 15.297,7.8125 16.125,7.8125 C16.953,7.8125 17.625,8.4845 17.625,9.3125 L17.625,9.3125 Z" id="Stroke-5740" sketch:type="MSShapeGroup"></path>
                <path d="M16.625,16.3125 C16.625,17.1415 15.953,17.8125 15.125,17.8125 C14.297,17.8125 13.625,17.1415 13.625,16.3125 C13.625,15.4845 14.297,14.8125 15.125,14.8125 C15.953,14.8125 16.625,15.4845 16.625,16.3125 L16.625,16.3125 Z" id="Stroke-5741" sketch:type="MSShapeGroup"></path>
                <path d="M23.5,12.3125 C23.5,13.1415 22.828,13.8125 22,13.8125 C21.172,13.8125 20.5,13.1415 20.5,12.3125 C20.5,11.4845 21.172,10.8125 22,10.8125 C22.828,10.8125 23.5,11.4845 23.5,12.3125 L23.5,12.3125 Z" id="Stroke-5742" sketch:type="MSShapeGroup"></path>
                <path d="M23.5,2 C23.5,2.828 22.828,3.5 22,3.5 C21.172,3.5 20.5,2.828 20.5,2 C20.5,1.172 21.172,0.5 22,0.5 C22.828,0.5 23.5,1.172 23.5,2 L23.5,2 Z" id="Stroke-5743" sketch:type="MSShapeGroup"></path>
                <path d="M17.041,8.127 L20.992,3.108" id="Stroke-5744" sketch:type="MSShapeGroup"></path>
                <path d="M9.9326,7.3916 L14.6756,8.9226" id="Stroke-5745" sketch:type="MSShapeGroup"></path>
                <path d="M0.5,11.7812 L7.219,7.7062" id="Stroke-5746" sketch:type="MSShapeGroup"></path>
                <path d="M16.4238,15.5645 L20.7038,13.0685" id="Stroke-5747" sketch:type="MSShapeGroup"></path>
                <path d="M9.2187,16.3125 L13.6247,16.3125" id="Stroke-5748" sketch:type="MSShapeGroup"></path>
                <path d="M0.6836,20.8604 L6.4306,17.0784" id="Stroke-5749" sketch:type="MSShapeGroup"></path>
            </g>
        </g>
    </g>
</svg>