<?xml version="1.0" encoding="UTF-8" standalone="no"?>
<svg width="26px" height="26px" viewBox="0 0 26 26" version="1.1" xmlns="http://www.w3.org/2000/svg" xmlns:xlink="http://www.w3.org/1999/xlink" xmlns:sketch="http://www.bohemiancoding.com/sketch/ns">
    <!-- Generator: Sketch 3.5.1 (25234) - http://www.bohemiancoding.com/sketch -->
    <title>edgenote-link</title>
    <desc>Created with Sketch.</desc>
    <defs></defs>
    <g id="Page-1" stroke="none" stroke-width="1" fill="none" fill-rule="evenodd" sketch:type="MSPage">
        <g id="edgenote-link" sketch:type="MSArtboardGroup" stroke-linecap="round" stroke="#F1C432" stroke-linejoin="round">
            <g id="Group" sketch:type="MSLayerGroup" transform="translate(2.000000, 1.000000)">
                <path d="M3,3.5 L14,3.5" id="Stroke-1" sketch:type="MSShapeGroup"></path>
                <path d="M8.0005,12.4997 L3.0005,12.4997 L3.0005,6.4997 L8.0005,6.4997 L8.0005,12.4997 Z" id="Stroke-2" sketch:type="MSShapeGroup"></path>
                <path d="M11,8.5 L14,8.5" id="Stroke-3" sketch:type="MSShapeGroup"></path>
                <path d="M10,10.5 L14,10.5" id="Stroke-4" sketch:type="MSShapeGroup"></path>
                <path d="M10,12.5 L14,12.5" id="Stroke-5" sketch:type="MSShapeGroup"></path>
                <path d="M3,14.5 L14,14.5" id="Stroke-6" sketch:type="MSShapeGroup"></path>
                <path d="M3,16.5 L14,16.5" id="Stroke-7" sketch:type="MSShapeGroup"></path>
                <path d="M3,18.5 L14,18.5" id="Stroke-8" sketch:type="MSShapeGroup"></path>
                <path d="M19,5.5 L21,5.5 L21,20.5 C21,21.052 20.553,21.5 20,21.5 C19.448,21.5 19,21.052 19,20.5 L19,2 L17,2 L17,4" id="Stroke-9" sketch:type="MSShapeGroup"></path>
                <path d="M20,23.5 L3,23.5 C1.344,23.5 0,22.157 0,20.5 L0,0.5 L17,0.5 L17,20.5 C17,22.157 18.344,23.5 20,23.5 C21.657,23.5 23,22.157 23,20.5 L23,3.5 L19,3.5" id="Stroke-11" sketch:type="MSShapeGroup"></path>
            </g>
        </g>
    </g>
</svg>