<svg version="1" xmlns="http://www.w3.org/2000/svg" width="24" height="24" viewBox="0 0 24 24"><g><path d="M17.5 8h-9c-.827 0-1.5.673-1.5 1.5v.5h-1.5c-.276 0-.5.224-.5.5v6c0 .276.224.5.5.5h1.5v5.5c0 .827.673 1.5 1.5 1.5h9c.827 0 1.5-.673 1.5-1.5v-13c0-.827-.673-1.5-1.5-1.5zm-10.5 3v2h-1v-2h1zm-1 5v-2h1v2h-1zm12 6.5c0 .275-.225.5-.5.5h-9c-.272 0-.5-.229-.5-.5v-13c0-.271.228-.5.5-.5h9c.275 0 .5.225.5.5v13zM16.5 21h-7c-.276 0-.5.224-.5.5s.224.5.5.5h7c.276 0 .5-.224.5-.5s-.224-.5-.5-.5zM16.5 10h-7c-.276 0-.5.224-.5.5v9c0 .276.224.5.5.5h7c.276 0 .5-.224.5-.5v-9c0-.276-.224-.5-.5-.5zm-.5 9h-6v-8h6v8z"/><circle cx="13.5" cy="13.5" r=".5"/><circle cx="13.5" cy="16.5" r=".5"/><path d="M12 0c-6.617 0-12 5.383-12 12v3c0 .276.224.5.5.5h.5v1c0 .827.673 1.5 1.5 1.5s1.5-.673 1.5-1.5v-3c0-.827-.673-1.5-1.5-1.5s-1.5.673-1.5 1.5v-1.5c0-6.065 4.935-11 11-11s11 4.935 11 11v1.5c0-.827-.673-1.5-1.5-1.5s-1.5.673-1.5 1.5v3c0 .827.673 1.5 1.5 1.5s1.5-.673 1.5-1.5v-1h.5c.276 0 .5-.224.5-.5v-3c0-6.617-5.383-12-12-12zm-10 13.5c0-.271.228-.5.5-.5.275 0 .5.225.5.5v3c0 .275-.225.5-.5.5-.272 0-.5-.229-.5-.5v-3zm20 3c0 .275-.225.5-.5.5-.272 0-.5-.229-.5-.5v-3c0-.271.228-.5.5-.5.275 0 .5.225.5.5v3z"/></g></svg>