<svg version="1" xmlns="http://www.w3.org/2000/svg" width="24" height="24" viewBox="0 0 24 24"><g><path d="M14.5 5h-5.5c-.276 0-.5.224-.5.5s.224.5.5.5h5.5c.276 0 .5-.224.5-.5s-.224-.5-.5-.5zM14.5 8h-5.5c-.276 0-.5.224-.5.5s.224.5.5.5h5.5c.276 0 .5-.224.5-.5s-.224-.5-.5-.5zM14.5 11h-5.5c-.276 0-.5.224-.5.5s.224.5.5.5h5.5c.276 0 .5-.224.5-.5s-.224-.5-.5-.5zM14.5 14h-5.5c-.276 0-.5.224-.5.5s.224.5.5.5h5.5c.276 0 .5-.224.5-.5s-.224-.5-.5-.5zM21 0l-.333.034-.167-.034h-12c-1.93 0-3.5 1.57-3.5 3.5v13.5h-1.5c-1.93 0-3.5 1.57-3.5 3.5s1.57 3.5 3.5 3.5h12c1.93 0 3.5-1.57 3.5-3.5v-16.5h4.5c.276 0 .5-.224.5-.5 0-2.061-1.233-3.5-3-3.5zm-17.5 23c-1.379 0-2.5-1.121-2.5-2.5s1.121-2.5 2.5-2.5h9.553c-.65.636-1.053 1.521-1.053 2.5s.403 1.864 1.053 2.5h-9.553zm14.5-2.5c0 1.379-1.121 2.5-2.5 2.5s-2.5-1.121-2.5-2.5 1.121-2.5 2.5-2.5c.276 0 .5-.224.5-.5s-.224-.5-.5-.5h-9.5v-13.5c0-1.379 1.121-2.5 2.5-2.5h10.28c-.48.532-.78 1.229-.78 2v17.5zm1-17.5c0-1.102.897-2 2-2 1.058 0 1.809.785 1.968 2h-3.968z"/></g></svg>