<?xml version="1.0" encoding="UTF-8" standalone="no"?>
<svg width="30px" height="30px" viewBox="0 0 30 30" version="1.1" xmlns="http://www.w3.org/2000/svg" xmlns:xlink="http://www.w3.org/1999/xlink" xmlns:sketch="http://www.bohemiancoding.com/sketch/ns">
    <!-- Generator: Sketch 3.5.1 (25234) - http://www.bohemiancoding.com/sketch -->
    <title>explore</title>
    <desc>Created with Sketch.</desc>
    <defs></defs>
    <g id="Page-1" stroke="none" stroke-width="1" fill="none" fill-rule="evenodd" sketch:type="MSPage">
        <g id="explore" sketch:type="MSArtboardGroup" stroke="#EBEAE4" stroke-linejoin="round">
            <g id="Group" sketch:type="MSLayerGroup" transform="translate(1.125000, 1.125000)">
                <path d="M22.7282873,22.7282873 L0.0639204545,22.7282873 L0.0639204545,0.0639204545 L22.7282873,0.0639204545 L22.7282873,22.7282873 Z" id="Stroke-6613" sketch:type="MSShapeGroup"></path>
                <path d="M25.4050824,7.90299168 L28.0608129,8.14563373 L26.243664,28.0609462 L6.32835146,26.2437973" id="Stroke-6614" stroke-linecap="round" sketch:type="MSShapeGroup"></path>
                <path d="M0.0639204545,18 L22.7282873,18" id="Stroke-6615" sketch:type="MSShapeGroup"></path>
                <path d="M15.5987441,8.1367013 C15.5987441,10.3871396 13.7762624,12.2109545 11.5258241,12.2109545 C9.27405256,12.2109545 7.45157082,10.3871396 7.45157082,8.1367013 C7.45157082,5.88759619 9.27405256,4.06378125 11.5258241,4.06378125 C13.7762624,4.06378125 15.5987441,5.88759619 15.5987441,8.1367013 L15.5987441,8.1367013 Z" id="Stroke-6616" stroke-linecap="round" sketch:type="MSShapeGroup"></path>
                <path d="M18.0438293,18 L5.00781879,18 C5.00781879,14.8027935 7.92485613,12.2106879 11.5258241,12.2106879 C15.126792,12.2106879 18.0438293,14.8027935 18.0438293,18 L18.0438293,18 Z" id="Stroke-6617" stroke-linecap="round" sketch:type="MSShapeGroup"></path>
            </g>
        </g>
    </g>
</svg>