<?xml version="1.0" encoding="UTF-8" standalone="no"?>
<svg width="30px" height="30px" viewBox="0 0 30 30" version="1.1" xmlns="http://www.w3.org/2000/svg" xmlns:xlink="http://www.w3.org/1999/xlink" xmlns:sketch="http://www.bohemiancoding.com/sketch/ns">
    <!-- Generator: Sketch 3.5.1 (25234) - http://www.bohemiancoding.com/sketch -->
    <title>listen</title>
    <desc>Created with Sketch.</desc>
    <defs></defs>
    <g id="Page-1" stroke="none" stroke-width="1" fill="none" fill-rule="evenodd" sketch:type="MSPage">
        <g id="listen" sketch:type="MSArtboardGroup" stroke="#EBEAE4" stroke-linejoin="round">
            <g id="Group" sketch:type="MSLayerGroup" transform="translate(5.250000, 0.750000)">
                <path d="M16.8872549,14.6634615 C16.8872549,18.6466346 13.6897647,21.875 9.75,21.875 C5.80785621,21.875 2.6127451,18.6466346 2.6127451,14.6634615 L2.6127451,7.45192308 C2.6127451,3.46995192 5.80785621,0.240384615 9.75,0.240384615 C13.6897647,0.240384615 16.8872549,3.46995192 16.8872549,7.45192308 L16.8872549,14.6634615 L16.8872549,14.6634615 Z" id="Stroke-1911" sketch:type="MSShapeGroup"></path>
                <path d="M0.233660131,12.2596154 L0.233660131,14.6634615 C0.233660131,20.0408654 4.42679739,24.2788462 9.75,24.2788462 C15.0708235,24.2788462 19.2663399,20.0408654 19.2663399,14.6634615 L19.2663399,12.2596154" id="Stroke-1912" stroke-linecap="round" sketch:type="MSShapeGroup"></path>
                <path d="M9,24.2788462 L9,27.8846154" id="Stroke-1913" stroke-linecap="round" sketch:type="MSShapeGroup"></path>
                <path d="M9,0.240384615 L9,3.84615385" id="Stroke-1914" stroke-linecap="round" sketch:type="MSShapeGroup"></path>
                <path d="M11.001,0.651201923 L11,3.84591346" id="Stroke-1915" stroke-linecap="round" sketch:type="MSShapeGroup"></path>
                <path d="M7,0.651201923 L7,3.84591346" id="Stroke-1916" stroke-linecap="round" sketch:type="MSShapeGroup"></path>
                <path d="M0.233660131,14 L19.2663399,14" id="Stroke-1917" sketch:type="MSShapeGroup"></path>
                <path d="M2.6127451,7 L7.37091503,7" id="Stroke-1918" stroke-linecap="round" sketch:type="MSShapeGroup"></path>
                <path d="M2.6127451,9 L7.37091503,9" id="Stroke-1919" stroke-linecap="round" sketch:type="MSShapeGroup"></path>
                <path d="M16.8872549,7 L12.129085,7" id="Stroke-1920" stroke-linecap="round" sketch:type="MSShapeGroup"></path>
                <path d="M16.8872549,9 L12.129085,9" id="Stroke-1921" stroke-linecap="round" sketch:type="MSShapeGroup"></path>
                <path d="M2.6127451,12 L7.37091503,12" id="Stroke-1922" stroke-linecap="round" sketch:type="MSShapeGroup"></path>
                <path d="M16.8872549,12 L12.129085,12" id="Stroke-1923" stroke-linecap="round" sketch:type="MSShapeGroup"></path>
            </g>
        </g>
    </g>
</svg>