<?xml version="1.0" encoding="UTF-8" standalone="no"?>
<svg width="26px" height="26px" viewBox="0 0 26 26" version="1.1" xmlns="http://www.w3.org/2000/svg" xmlns:xlink="http://www.w3.org/1999/xlink" xmlns:sketch="http://www.bohemiancoding.com/sketch/ns">
    <!-- Generator: Sketch 3.5.1 (25234) - http://www.bohemiancoding.com/sketch -->
    <title>loading</title>
    <desc>Created with Sketch.</desc>
    <defs></defs>
    <g id="Page-1" stroke="none" stroke-width="1" fill="none" fill-rule="evenodd" sketch:type="MSPage">
        <g id="loading" sketch:type="MSArtboardGroup">
            <g id="Group" sketch:type="MSLayerGroup" transform="translate(1.000000, 1.000000)">
                <path d="M23,7 C23,8.656 21.656,10 20,10 C18.343,10 17,8.656 17,7 C17,5.344 18.343,4 20,4 C21.656,4 23,5.344 23,7 L23,7 Z" id="Stroke-2162" stroke="#EBEAE4" stroke-linecap="round" stroke-linejoin="round" sketch:type="MSShapeGroup"></path>
                <path d="M15.5,3 C15.5,4.381 14.381,5.5 13,5.5 C11.619,5.5 10.5,4.381 10.5,3 C10.5,1.619 11.619,0.5 13,0.5 C14.381,0.5 15.5,1.619 15.5,3 L15.5,3 Z" id="Stroke-2163" stroke="#EBEAE4" stroke-linecap="round" stroke-linejoin="round" sketch:type="MSShapeGroup"></path>
                <path d="M8.5,5 C8.5,6.381 7.381,7.5 6,7.5 C4.619,7.5 3.5,6.381 3.5,5 C3.5,3.619 4.619,2.5 6,2.5 C7.381,2.5 8.5,3.619 8.5,5 L8.5,5 Z" id="Stroke-2164" stroke="#EBEAE4" stroke-linecap="round" stroke-linejoin="round" sketch:type="MSShapeGroup"></path>
                <path d="M4.5,11 C4.5,12.104 3.604,13 2.5,13 C1.396,13 0.5,12.104 0.5,11 C0.5,9.896 1.396,9 2.5,9 C3.604,9 4.5,9.896 4.5,11 L4.5,11 Z" id="Stroke-2165" stroke="#EBEAE4" stroke-linecap="round" stroke-linejoin="round" sketch:type="MSShapeGroup"></path>
                <path d="M6,17 C6,18.104 5.104,19 4,19 C2.896,19 2,18.104 2,17 C2,15.896 2.896,15 4,15 C5.104,15 6,15.896 6,17 L6,17 Z" id="Stroke-2166" stroke="#EBEAE4" stroke-linecap="round" stroke-linejoin="round" sketch:type="MSShapeGroup"></path>
                <path d="M10.5,21 C10.5,21.828 9.828,22.5 9,22.5 C8.172,22.5 7.5,21.828 7.5,21 C7.5,20.171 8.172,19.5 9,19.5 C9.828,19.5 10.5,20.171 10.5,21 L10.5,21 Z" id="Stroke-2167" stroke="#EBEAE4" stroke-linecap="round" stroke-linejoin="round" sketch:type="MSShapeGroup"></path>
                <path d="M15.375,21.1455 C15.375,21.6985 14.928,22.1455 14.375,22.1455 C13.822,22.1455 13.375,21.6985 13.375,21.1455 C13.375,20.5935 13.822,20.1455 14.375,20.1455 C14.928,20.1455 15.375,20.5935 15.375,21.1455 L15.375,21.1455 Z" id="Stroke-2168" stroke="#EBEAE4" stroke-linecap="round" stroke-linejoin="round" sketch:type="MSShapeGroup"></path>
                <path d="M18.5,19.375 C18.5,19.651 18.275,19.875 18,19.875 C17.724,19.875 17.5,19.651 17.5,19.375 C17.5,19.099 17.724,18.875 18,18.875 C18.275,18.875 18.5,19.099 18.5,19.375 L18.5,19.375 Z" id="Stroke-2169" stroke="#EBEAE4" stroke-linecap="round" stroke-linejoin="round" sketch:type="MSShapeGroup"></path>
                <path d="M20.7812,17 C20.7812,17.276 20.5572,17.5 20.2812,17.5 C20.0052,17.5 19.7812,17.276 19.7812,17 C19.7812,16.724 20.0052,16.5 20.2812,16.5 C20.5572,16.5 20.7812,16.724 20.7812,17 L20.7812,17 Z" id="Stroke-2170" stroke="#EBEAE4" stroke-linecap="round" stroke-linejoin="round" sketch:type="MSShapeGroup"></path>
                <path d="M21.5,14 C21.224,14 21,14.224 21,14.5 C21,14.776 21.224,15 21.5,15 C21.775,15 22,14.776 22,14.5 C22,14.224 21.775,14 21.5,14" id="Fill-2171" fill="#EBEAE4" sketch:type="MSShapeGroup"></path>
            </g>
        </g>
    </g>
</svg>